<?xml version="1.0" standalone="no"?>
<!DOCTYPE svg PUBLIC "-//W3C//DTD SVG 1.1//EN" "http://www.w3.org/Graphics/SVG/1.1/DTD/svg11.dtd" >
<svg>
<metadata>
Created by FontForge 20120731 at Thu Jul 11 01:54:20 2019
 By www
Typeface (c) Gemfonts
</metadata>
<defs>
<font id="ArialicHollow" horiz-adv-x="1139" >
  <font-face 
    font-family="Arialic Hollow"
    font-weight="400"
    font-stretch="normal"
    units-per-em="2048"
    panose-1="2 11 6 4 2 2 2 2 2 4"
    ascent="1638"
    descent="-410"
    x-height="1072"
    cap-height="1476"
    bbox="-467.033 -675 2205 2134"
    underline-thickness="150"
    underline-position="-142"
    unicode-range="U+0020-FFFC"
  />
<missing-glyph horiz-adv-x="1024" 
d="M128 0v1854h768v-1854h-768zM256 128h512v1598h-512v-1598z" />
    <glyph glyph-name=".notdef" horiz-adv-x="1024" 
d="M128 0v1854h768v-1854h-768zM256 128h512v1598h-512v-1598z" />
    <glyph glyph-name=".null" horiz-adv-x="0" 
 />
    <glyph glyph-name="nonmarkingreturn" horiz-adv-x="569" 
 />
    <glyph glyph-name="space" unicode=" " horiz-adv-x="569" 
 />
    <glyph glyph-name="glyph4" horiz-adv-x="569" 
 />
    <glyph glyph-name="glyph5" horiz-adv-x="569" 
 />
    <glyph glyph-name="exclam" unicode="!" horiz-adv-x="569" 
d="M409 1141l-52 -778q-1 -9 -10 -9h-116q-9 0 -10 9l-17 234q-3 39 -16 234l-22 367v268q0 10 10 10h223q10 0 10 -10v-325zM389 1456h-203v-315q0 -111 14 -271q9 -90 24 -271l16 -225h98l51 767v315zM184 -10q-10 0 -10 10v205q0 10 10 10h207q10 0 10 -10v-205
q0 -10 -10 -10h-207zM381 10v185h-187v-185h187z" />
    <glyph glyph-name="quotedbl" unicode="&#x22;" horiz-adv-x="727" 
d="M593 945q-1 -8 -10 -8h-108q-7 0 -17 50q-22 105 -42 237v242q0 10 10 10h205q10 0 10 -10v-242zM621 1227v229h-185v-229l47 -270h92zM309 1224l-45 -279q-1 -8 -10 -8h-110q-8 0 -15 39l-45 252v238q0 10 10 10h205q10 0 10 -10v-242zM152 957h93l4 24l40 246v229h-185
v-229z" />
    <glyph glyph-name="numbersign" unicode="#" 
d="M1012 1367l-60 -295h161q10 0 10 -10v-149q0 -10 -10 -10h-195l-71 -343h266q10 0 10 -10v-149q0 -10 -10 -10h-300l-85 -418q-2 -8 -10 -8h-150q-14 0 -9 23q4 16 11 49l72 354h-294l-85 -418q-2 -8 -10 -8h-150q-14 0 -9 23q4 16 11 49l73 354h-157q-10 0 -10 10v149
q0 10 10 10h191l70 343h-261q-10 0 -10 10v149q0 10 10 10h295l85 421q2 8 10 8h150q14 0 9 -23q-4 -17 -11 -50l-73 -356h295l85 421q2 8 10 8h151q11 0 11 -20t-12 -64q-5 -17 -14 -50zM1015 1481h-131l-85 -421q-2 -8 -10 -8h-315q-12 0 -10 12l85 417h-130l-85 -421
q-2 -8 -10 -8h-293v-129h263q12 0 10 -12l-74 -363q-2 -8 -10 -8h-189v-129h159q12 0 10 -12l-85 -414h130l85 418q2 8 10 8h314q12 0 10 -12l-84 -414h130l85 418q2 8 10 8h298v129h-268q-13 0 -10 12l62 297q3 17 13 66q2 8 10 8h193v129h-163q-12 0 -10 12zM452 903
l-70 -343h294l71 343h-295zM444 923h315q12 0 10 -12l-75 -363q-2 -8 -10 -8h-314q-12 0 -10 12l74 363q2 8 10 8z" />
    <glyph glyph-name="dollar" unicode="$" 
d="M500 1524v77q0 10 10 10h106q10 0 10 -10v-77q344 -37 391 -369q1 -9 -9 -11l-186 -28q-9 -1 -11 9q-28 187 -185 226v-499q118 -30 168 -50q259 -104 259 -385q0 -191 -118.5 -317t-308.5 -138v-173q0 -10 -10 -10h-106q-10 0 -10 10v171q-130 18 -208 58
q-93 48 -156 146.5t-73 241.5q-1 9 8 11l181 34q10 2 12 -9q28 -184 123 -260q50 -40 113 -50v554q-108 21 -222 85q-184 103 -184 335q0 197 139 319q91 80 267 99zM606 -201v172q0 10 10 10q185 9 301 130t116 306q0 259 -241 365q-40 17 -178 52q-8 2 -8 10v519
q0 12 12 10q178 -37 211 -236l167 25q-50 311 -381 343q-9 1 -9 10v76h-86v-76q0 -9 -9 -10q-175 -18 -264 -96q-133 -117 -133 -303q0 -219 174 -317q113 -64 224 -85q8 -2 8 -10v-573q0 -11 -11 -10q-111 12 -189 111q-53 67 -74 207l-162 -30q22 -264 211 -361
q82 -42 216 -59q9 -1 9 -10v-170h86zM500 1353q-92 -17 -149 -79t-57 -154q0 -173 206 -239v472zM520 1365v-498q0 -14 -13 -10q-233 70 -233 263q0 102 67 172q64 67 167 83q12 2 12 -10zM626 655v-522q102 16 162 92t60 180q0 94 -45.5 150t-176.5 100zM868 405
q0 -115 -69 -197.5t-182 -96.5q-11 -1 -11 10v548q0 14 13 10q148 -48 198.5 -110t50.5 -164z" />
    <glyph glyph-name="percent" unicode="%" horiz-adv-x="1821" 
d="M1682 213q-63 -277 -304 -277q-104 0 -181 57q-140 104 -140 351v2q0 160 76 266q85 119 239 119h4q150 0 242 -108q88 -102 88 -254v-18q-1 -12 -1 -18v-1q-7 -49 -23 -119zM1662 217q16 65 23 117q0 161 -72 262q-82 115 -237 115h-4q-146 0 -225 -114
q-70 -99 -70 -251v-2q0 -236 132 -335q72 -54 167 -54q119 0 205 83q50 48 81 179zM1277 534q-43 -110 -43 -208q0 -246 146 -246q148 0 148 260v24q0 161 -87 208q-28 15 -59 15q-63 0 -105 -53zM1261 545q47 62 119 62q73 0 120.5 -60.5t47.5 -181.5v-25q0 -280 -168 -280
q-166 0 -166 266q0 105 45 217zM1360 1429l-769 -1488q-2 -4 -9 -5h-149q-17 0 -9 15l802 1545q2 4 9 5h146q10 0 10 -8q-4 -13 -31 -64zM1365 1481h-124l-792 -1525h127zM756 1103q0 -165 -79 -274q-88 -123 -248 -123q-163 0 -248 127q-72 109 -72 281q0 165 77 270
q86 117 241 117q164 0 252 -121q77 -107 77 -277zM427 1481q-148 0 -228 -114q-70 -99 -70 -253q0 -164 66 -266q79 -122 234 -122q152 0 234 117q73 102 73 260q0 162 -71 263q-82 115 -238 115zM492 1342q-28 15 -59 15q-147 0 -147 -261q0 -246 146 -246q147 0 147 260
q0 185 -87 232zM599 1110q0 -280 -167 -280q-166 0 -166 266q0 281 166 281q72 0 119.5 -60.5t47.5 -206.5z" />
    <glyph glyph-name="ampersand" unicode="&#x26;" horiz-adv-x="1366" 
d="M1287 55l-81 -95q-6 -7 -13 -2q-108 69 -220 200q-179 -193 -421 -193q-231 0 -365 155q-109 126 -109 284q0 274 343 441q-159 185 -159 319q0 127 90 221q86 91 213 111q32 5 71 5q160 0 261 -103q90 -92 90 -220q0 -211 -272 -360l246 -313q39 83 62 187q2 10 12 8
l187 -40q10 -2 8 -12q-47 -189 -128 -314q99 -129 223 -217q4 -3 4 -7q0 -6 -42 -55zM1304 107q-122 89 -222 221q-4 6 0 12q79 119 126 302l-167 36q-25 -112 -69 -197q-7 -14 -17 -1l-263 335q-7 9 3 15q272 146 272 348q0 120 -85 206q-95 97 -246 97q-142 0 -245 -86
q-109 -92 -109 -231q0 -125 163 -315q9 -10 -4 -16q-343 -164 -343 -429q0 -118 66.5 -221t173.5 -154q93 -44 214 -44q239 0 414 195q7 8 15 -1q112 -132 215 -200zM629 1333h-2q-67 0 -113.5 -42.5t-46.5 -109.5q0 -54 52 -125q6 -8 90 -106l20 12q154 92 154 211
q0 69 -42.5 114.5t-111.5 45.5zM803 1173q0 -85 -59 -148q-16 -18 -68 -56q-56 -42 -68 -42q-5 0 -48 50q-113 132 -113 204q0 75 52 123.5t128 48.5h2q77 0 125.5 -51.5t48.5 -128.5zM528 711q-236 -142 -236 -296q0 -109 77 -190t185 -81q82 0 166 51q79 48 128 119z
M538 730l330 -409q1 -2 1 -4q0 -31 -83 -100q-113 -93 -232 -93q-117 0 -199.5 87t-82.5 204q0 167 253 318q7 4 13 -3z" />
    <glyph glyph-name="quotesingle" unicode="'" horiz-adv-x="391" 
d="M305 1219l-48 -274q-1 -8 -10 -8h-111q-9 0 -17 49l-39 235v245q0 10 10 10h205q10 0 10 -10v-247zM144 957h95l46 265v234h-185v-234z" />
    <glyph glyph-name="parenleft" unicode="(" horiz-adv-x="682" 
d="M563 1393q-149 -264 -201 -489q-43 -185 -43 -374q0 -479 297 -956q9 -15 -8 -15h-129q-29 0 -156 226q-209 373 -209 746q0 286 119 572q20 49 57 110q72 121 181 284q4 3 8 4h129q18 0 9 -15q-19 -32 -54 -93zM591 1481h-107q-51 -69 -177 -278q-47 -79 -97 -219
q-76 -215 -76 -453q0 -366 207 -737q64 -115 143 -215h106q-291 475 -291 951q0 349 140 668q41 93 152 283z" />
    <glyph glyph-name="parenright" unicode=")" horiz-adv-x="682" 
d="M336 1392q282 -423 282 -861q0 -381 -221 -766q-118 -206 -144 -206h-129q-17 0 -8 15q297 476 297 956v9q0 375 -161 699q-40 81 -137 248q-9 15 9 15h129q10 0 83 -109zM248 1481h-107q105 -179 148 -275q144 -319 144 -667v-9q0 -476 -291 -951h106q350 447 350 952
q0 481 -350 950z" />
    <glyph glyph-name="asterisk" unicode="*" horiz-adv-x="797" 
d="M499 1134q59 -56 157 -176q2 -2 2 -5q0 -6 -49 -41l-75 -53q-8 -6 -14 2q-55 74 -129 200q-69 -130 -122 -200q-3 -3 -7 -3q-7 0 -68 45t-61 50q0 3 2 5q39 48 78 94l12 14q36 42 63 69q-122 25 -227 52q-7 2 -7 12q4 12 24 73l22 70q3 10 28 1q136 -49 201 -83
q-9 91 -18 231q-1 10 10 10h145q11 0 9 -38q-6 -92 -20 -203q97 48 221 88q13 4 22 -26q4 -17 13 -50q14 -45 24 -72q0 -10 -7 -12q-119 -39 -229 -54zM530 881l103 73q-60 75 -164 179q-15 16 6 18q118 14 237 52l-39 123q-124 -41 -225 -92q-7 -3 -12 0q-4 3 -3 10
q15 109 22 220l1 17h-125q2 -73 20 -238q1 -7 -2.5 -9t-6.5 -2t-6 1q-28 16 -215 91l-5 2l-39 -122q107 -28 234 -53q19 -4 5 -17q-2 -2 -76 -82l-12 -13q-12 -13 -71 -85l51 -37q7 -4 51 -36q51 70 123 206q9 16 18 0q73 -128 130 -206z" />
    <glyph glyph-name="plus" unicode="+" horiz-adv-x="1196" 
d="M503 629h-389q-10 0 -10 10v168q0 10 10 10h389v389q0 10 10 10h170q10 0 10 -10v-389h389q10 0 10 -10v-168q0 -10 -10 -10h-389v-392q0 -10 -10 -10h-170q-10 0 -10 10v392zM523 247h150v392q0 10 10 10h389v148h-389q-10 0 -10 10v389h-150v-389q0 -10 -10 -10h-389
v-148h389q10 0 10 -10v-392z" />
    <glyph glyph-name="comma" unicode="," horiz-adv-x="569" 
d="M224 -299q-4 -2 -7 -1t-5 5q-50 74 -52 82q0 7 6 9q100 46 108 194h-92q-10 0 -10 10v205q0 10 10 10h205q10 0 10 -10v-205q0 -116 -41.5 -187.5t-131.5 -111.5zM192 10h92q12 0 12 -24q0 -148 -107 -201l-4 -2l39 -60l4 2q149 74 149 275v195h-185v-185z" />
    <glyph glyph-name="hyphen" unicode="-" horiz-adv-x="682" 
d="M628 440q0 -10 -10 -10h-553q-10 0 -10 10v181q0 10 10 10h553q10 0 10 -10v-181zM608 611h-533v-161h533v161z" />
    <glyph glyph-name="hyphen" unicode="&#x2010;" horiz-adv-x="682" 
d="M628 440q0 -10 -10 -10h-553q-10 0 -10 10v181q0 10 10 10h553q10 0 10 -10v-181zM608 611h-533v-161h533v161z" />
    <glyph glyph-name="period" unicode="." horiz-adv-x="569" 
d="M186 -10q-10 0 -10 10v205q0 10 10 10h205q10 0 10 -10v-205q0 -10 -10 -10h-205zM381 195h-185v-185h185v185z" />
    <glyph glyph-name="slash" unicode="/" horiz-adv-x="569" 
d="M561 1424l-406 -1452q-2 -7 -10 -7h-145q-10 0 -10 11q3 10 17 60l408 1458q2 7 10 7h144q10 0 10 -11q-3 -14 -18 -66zM556 1481h-123l-420 -1496h124z" />
    <glyph glyph-name="zero" unicode="0" 
d="M775 1433q276 -147 276 -710q0 -493 -215 -669q-108 -89 -273 -89q-488 0 -488 758v21q0 474 216 650q108 88 272 88q120 0 212 -49zM563 1462q-468 0 -468 -696v-43q0 -738 468 -738q307 0 416 325q52 156 52 413q0 739 -468 739zM764 1198q-56 79 -102 101
q-30 14 -100 14h-1q-119 0 -190 -101q-91 -130 -91 -489v-4q0 -236 37 -364q66 -222 246 -222q283 0 283 590q0 359 -82 475zM779 1211q60 -85 76 -199q11 -76 11 -289q0 -610 -303 -610t-303 606v4q0 610 301 610h1q130 0 217 -122z" />
    <glyph glyph-name="one" unicode="1" 
d="M583 -10q-10 0 -10 10v1124q-146 -129 -347 -203q-13 -5 -13 9v174q2 7 6 9q313 147 419 363q3 5 9 6h115q11 -10 11 -75v-1407q0 -10 -10 -10h-180zM759 1462h-106q-112 -217 -420 -364v-154q209 82 343 210q17 16 17 -7v-1137h160v1397q0 24 6 55z" />
    <glyph glyph-name="two" unicode="2" 
d="M62 -10q-12 0 -12 25q0 51 24 114q48 126 167 250q65 68 227 202q282 234 342 378q24 58 24 110q0 111 -79 179q-74 65 -187 65q-130 0 -203 -76.5t-74 -207.5q0 -11 -58 -5l-63 6l-51 3t-33 16q20 212 146 322.5t340 110.5q198 0 328 -108q139 -115 139 -309
q0 -142 -92 -276q-61 -89 -201 -216q-39 -35 -188 -163q-102 -87 -122 -106q-66 -61 -106 -121h701q10 0 10 -10v-173q0 -10 -10 -10h-969zM1021 10v153h-709q-18 0 -9 15q53 86 227 236q252 218 260 226q146 143 194 256q35 83 35 169q0 243 -215 349q-97 48 -232 48
q-423 0 -465 -405l164 -17q4 135 83 214t214 79q121 0 201 -71q85 -74 85 -193q0 -162 -230 -378q-28 -26 -213 -183q-133 -113 -202 -194q-137 -161 -137 -304h949z" />
    <glyph glyph-name="three" unicode="3" 
d="M913 101q-98 -94 -180 -120q-54 -17 -181 -17q-194 0 -324 114q-133 116 -152 308q-1 11 44 16l59 7q57 7 82 12q16 0 20 -21q12 -56 21 -81q69 -186 251 -186q126 0 209 85t83 211q0 122 -77.5 198.5t-199.5 76.5q-47 0 -124 -20q-15 -4 -15 26q0 23 9 72l13 71
q1 7 39 7q81 0 152 31q83 36 115 100q22 44 22 104q0 100 -65 159.5t-165 59.5t-167 -63q-76 -108 -88 -192q-2 -11 -17 -8l-175 31q-10 2 -8 12q34 181 151.5 284.5t299.5 103.5q178 0 305 -105q134 -111 134 -286q0 -51 -14 -97q-3 -8 -13 -31q-47 -108 -157 -166
q256 -75 256 -364q0 -196 -143 -332zM276 1072q17 88 90 192l1 1q69 69 182 69q108 0 179 -66t71 -173q0 -124 -95 -193q-85 -62 -214 -62q-8 0 -20 1l-17 -134q68 17 115 17q130 0 213.5 -82.5t83.5 -212.5q0 -134 -89 -225t-223 -91q-233 0 -295 287l-161 -22
q21 -181 148 -288q124 -106 307 -106q201 0 340 123q144 127 144 326q0 290 -266 351q-9 2 -10 9q0 6 8 10q133 62 183 197q13 35 13 91q0 167 -128 272q-121 99 -291 99q-172 0 -284 -96t-145 -266z" />
    <glyph glyph-name="four" unicode="4" 
d="M852 341v-341q0 -10 -10 -10h-180q-10 0 -10 10v341h-626q-10 0 -10 10v165q1 4 2 6l669 950q4 3 8 4h147q10 0 10 -10v-940h188q10 0 10 -10v-165q0 -10 -10 -10h-188zM1030 361v145h-188q-10 0 -10 10v940h-132l-664 -943v-152h626q10 0 10 -10v-341h160v341
q0 10 10 10h188zM652 1145l-430 -619h430v619zM672 1177v-661q0 -10 -10 -10h-459q-19 0 -8 16l459 661q5 7 12 5q6 -2 6 -11z" />
    <glyph glyph-name="five" unicode="5" 
d="M949 147q-145 -182 -393 -182q-199 0 -328 110q-134 112 -153 308q-1 10 49 14l89 8q47 4 55 4q16 0 19 -16q9 -50 14 -66q44 -97 77 -127q74 -67 178 -67q139 0 223 107q77 98 77 241q0 144 -79 231q-81 91 -224 91q-171 0 -259 -137q-3 -6 -9 -5l-169 22q-12 2 -8 29
q4 16 12 49l129 687q2 8 10 8h729q10 0 10 -10v-172q0 -10 -10 -10h-577l-72 -362q125 80 262 80q205 0 337 -141q129 -138 129 -344q0 -202 -118 -350zM933 159q114 143 114 338q0 198 -123 330q-126 135 -323 135q-143 0 -271 -90q-6 -4 -9 -4q-10 0 3 63l69 345q2 8 10 8
h575v152h-711l-138 -734l152 -20q94 141 272 141q151 0 239 -96q84 -93 84 -246q0 -152 -82 -256q-89 -112 -238 -112q-111 0 -191 72q-48 44 -82 134l-1 1q-9 23 -16 69l-170 -14q21 -184 149 -289q123 -101 311 -101q239 0 377 174z" />
    <glyph glyph-name="six" unicode="6" 
d="M994 215q-125 -250 -408 -250q-230 0 -375 170q-150 174 -144 551l1 62q6 375 158 562q140 172 377 172q178 0 291 -99t135 -275q1 -10 -9 -11l-179 -14q-9 -1 -11 8q-23 104 -65 149q-69 74 -173 74q-184 0 -276 -223q-44 -107 -49 -302l4 6q111 166 341 166
q199 0 324 -145q119 -138 119 -340q0 -139 -61 -261zM977 224q58 116 58 252q0 193 -113 325q-120 140 -310 140q-223 0 -348 -190q-5 -8 -11 -6q-7 2 -7 11q4 392 189 528q68 50 157 50q201 0 256 -230l160 12q-24 164 -131.5 255t-273.5 91q-250 0 -381 -178
q-134 -181 -134 -534v-2l-1 -62q-6 -369 140 -539q139 -162 359 -162q271 0 391 239zM578 782h-2q-129 0 -207 -90q-75 -86 -75 -217q0 -136 75 -235q82 -107 214 -107q128 0 202 106q66 93 66 226q0 134 -68 221q-74 96 -205 96zM871 465q0 -142 -71 -241
q-80 -111 -217 -111q-140 0 -228 113q-81 105 -81 249q0 137 81 230q86 97 221 97h2q139 0 219 -102q74 -93 74 -235z" />
    <glyph glyph-name="seven" unicode="7" 
d="M1052 1299q-157 -168 -292 -422q-124 -236 -194 -477q-54 -185 -69 -401q-1 -9 -10 -9h-185q-10 0 -10 10q5 270 126 605q93 256 253 496q61 92 122 163h-696q-10 0 -10 10v173q0 10 10 10h949q10 0 10 -10v-140q-1 -5 -4 -8zM1037 1312l2 2l-3 -7v130h-929v-153h708
q23 0 8 -17q-74 -85 -136 -177q-157 -234 -250 -492q-117 -323 -125 -588h166q33 458 282 906q149 268 277 396z" />
    <glyph glyph-name="eight" unicode="8" 
d="M331 796l-9 4q-190 84 -190 294v3q0 153 103 260q100 102 254 121q33 4 74 4q182 0 305 -104q131 -111 131 -289q0 -207 -198 -293l13 -5q245 -94 245 -372q0 -207 -145 -333q-139 -121 -348 -121q-212 0 -349 122q-144 128 -144 337q0 288 258 372zM1039 419
q0 279 -269 366q-9 3 -9 10q0 6 8 9q210 79 210 285q0 171 -125 275q-116 98 -291 98q-172 0 -287 -95q-124 -102 -124 -270v-3q0 -211 213 -290q9 -3 9 -10q-1 -6 -9 -9q-272 -71 -272 -361q0 -201 138 -323q131 -116 335 -116q201 0 334 115q139 121 139 319zM567 1314h-2
q-95 0 -161 -59q-68 -62 -68 -155q0 -102 64.5 -164t166.5 -62q97 0 162 60t65 156t-65 160t-162 64zM814 1090q0 -104 -71.5 -170t-175.5 -66q-111 0 -181 67.5t-70 178.5q0 102 73 168t176 66h2q105 0 176 -69.5t71 -174.5zM564 707h-2q-124 0 -204 -80t-80 -204
q0 -127 81.5 -208.5t208.5 -81.5q126 0 206.5 79.5t80.5 204.5q0 126 -82.5 208t-208.5 82zM834 578q41 -70 41 -161q0 -134 -86.5 -219t-220.5 -85q-135 0 -222.5 87.5t-87.5 222.5q0 132 86 218t218 86h2q182 0 270 -149z" />
    <glyph glyph-name="nine" unicode="9" 
d="M997 312q-127 -347 -473 -347q-177 0 -288.5 98.5t-133.5 274.5q-1 10 9 11l173 16q9 1 11 -8q40 -224 233 -224q229 0 305 303q27 107 27 218v5q-127 -172 -341 -172q-203 0 -327 146q-117 138 -117 344q0 218 125 358q131 147 346 147q152 0 271 -81t180 -222
q62 -144 62 -416q0 -282 -62 -451zM979 319q60 164 60 444q0 215 -39 346q-55 185 -198 278q-116 75 -256 75q-207 0 -332 -141q-119 -134 -119 -344q0 -197 112 -330q118 -140 312 -140q223 0 342 188q4 8 11 6q7 -1 7 -11q1 -34 1 -36q0 -210 -71 -354q-93 -187 -281 -187
q-206 0 -251 231l-154 -14q24 -165 129 -255t272 -90q333 0 455 334zM568 1313q-132 0 -214 -108q-74 -98 -74 -234q0 -130 76 -215q79 -90 207 -90q134 0 208 96q68 87 68 224q0 133 -67 225q-75 102 -204 102zM859 986q0 -147 -73 -239q-80 -101 -223 -101q-136 0 -221 96
q-82 91 -82 229q0 144 80 248q88 114 228 114q137 0 218 -108q73 -97 73 -239z" />
    <glyph glyph-name="colon" unicode=":" horiz-adv-x="569" 
d="M185 847q-10 0 -10 10v205q0 10 10 10h205q10 0 10 -10v-205q0 -10 -10 -10h-205zM380 1052h-185v-185h185v185zM185 -10q-10 0 -10 10v205q0 10 10 10h205q10 0 10 -10v-205q0 -10 -10 -10h-205zM380 195h-185v-185h185v185z" />
    <glyph glyph-name="semicolon" unicode=";" horiz-adv-x="569" 
d="M182 847q-10 0 -10 10v205q0 10 10 10h205q10 0 10 -10v-205q0 -10 -10 -10h-205zM377 1052h-185v-185h185v185zM320 -235q-37 -38 -96 -64q-3 -1 -6 -1q-4 0 -6 5q-50 74 -52 82q0 7 6 9q100 47 108 194h-92q-10 0 -10 10v205q0 10 10 10h205q10 0 10 -10v-205
q0 -156 -77 -235zM192 10h92q10 0 10 -10q-6 -167 -109 -217l39 -60q153 71 153 277v195h-185v-185z" />
    <glyph glyph-name="less" unicode="&#x3c;" horiz-adv-x="1196" 
d="M1093 1040q0 -7 -6 -9l-748 -307l748 -310q6 -2 6 -9v-179q0 -15 -14 -9l-971 415q-5 2 -6 9v168q2 7 6 9l971 410q14 6 14 -9v-179zM1073 1204l-951 -402v-154l951 -407v157l-764 317q-22 9 0 18l764 314v157z" />
    <glyph glyph-name="equal" unicode="=" horiz-adv-x="1196" 
d="M104 1030q0 10 10 10h968q10 0 10 -10v-168q0 -10 -10 -10h-968q-10 0 -10 10v168zM124 872h948v148h-948v-148zM114 407q-10 0 -10 10v168q0 10 10 10h968q10 0 10 -10v-168q0 -10 -10 -10h-968zM1072 427v148h-948v-148h948z" />
    <glyph glyph-name="greater" unicode="&#x3e;" horiz-adv-x="1196" 
d="M1087 818q5 -2 6 -9v-168q-2 -7 -6 -9l-880 -376q-94 -40 -100 -40q-5 0 -5 10v179q0 7 6 9l747 310l-374 153q-78 33 -373 154q-6 2 -6 9v179q0 15 14 9zM122 1204v-157l763 -314q22 -9 0 -18l-763 -317v-157l951 407v154z" />
    <glyph glyph-name="question" unicode="?" 
d="M822 710q-62 -55 -81 -75q-43 -45 -61 -90q-23 -57 -25 -184q0 -10 -10 -10h-173q-10 0 -10 10l-1 54q0 21 2 49q10 139 84 236q26 34 179 176q66 61 88 100q27 68 27 103q0 109 -83 183q-80 71 -190 71q-237 0 -283 -289q-1 -9 -11 -8l-95 11q-26 2 -78 7q-20 2 -20 18
q0 8 6 42q9 49 24 92q106 295 454 295q196 0 332 -105q149 -114 149 -305q0 -99 -46 -181.5t-178 -199.5zM482 371h153q4 166 57 237l188 184q146 145 146 299q0 183 -143 291q-130 99 -318 99q-333 0 -435 -282q-20 -56 -29 -122l166 -20q50 296 301 296q118 0 204 -77
q89 -80 89 -197q0 -52 -29 -111v-1q-26 -52 -118 -133q-112 -99 -134 -125q-96 -115 -99 -294q0 -9 1 -44zM676 0q0 -10 -10 -10h-205q-10 0 -10 10v205q0 10 10 10h205q10 0 10 -10v-205zM471 10h185v185h-185v-185z" />
    <glyph glyph-name="at" unicode="@" horiz-adv-x="2079" 
d="M1308 926l29 131q2 8 10 8h179q10 0 10 -15q0 7 -22 -96l-138 -649q-14 -66 -14 -76q0 -56 60 -56q49 0 133 59q114 80 179 213q64 129 64 271q0 282 -215 457q-201 164 -490 164q-233 0 -420 -106q-194 -110 -299 -312t-105 -434q0 -503 408 -674q200 -84 443 -84
q486 0 696 298q4 3 8 4h181q16 0 9 -14q-53 -109 -177 -218q-271 -238 -714 -238q-455 0 -728 223q-294 241 -294 687q0 266 115 502q121 248 336 386q228 146 550 146q535 0 766 -409q98 -174 98 -381q0 -293 -207 -522q-185 -205 -405 -205q-138 0 -183 86q-11 21 -17 68
q-142 -153 -300 -153q-172 0 -277 148q-95 133 -95 311v16q0 145 83 307q71 139 180 225q125 100 266 100q183 0 297 -168zM1829 9q-215 -302 -709 -302q-242 0 -431 77q-221 90 -332 274q-108 179 -108 427q0 237 104 437q110 212 307.5 323.5t432.5 111.5q298 0 504 -169
q221 -181 221 -472q0 -147 -66 -280q-67 -137 -185 -220q-90 -63 -145 -63q-32 0 -56 22t-24 54q0 18 30 157l142 659h-159l-32 -144q-6 -27 -19 -6q-109 179 -293 179q-132 0 -252 -95q-105 -83 -173 -212q-73 -138 -83 -290l-1 -15q-1 -16 -1 -31q0 -111 52 -218
q100 -206 301 -206q157 0 299 163q4 5 9 5q8 0 13 -36q6 -42 14 -57q40 -76 165 -76q211 0 391 199q201 223 201 508q0 212 -108 392.5t-295 277.5q-194 100 -441 100q-632 0 -882 -553q-99 -219 -99 -461q0 -306 151 -522q156 -223 444 -311q188 -57 407 -57q434 0 700 234
q114 101 166 196h-160zM1156 878q-56 47 -132 47q-150 0 -251 -178q-86 -152 -86 -313q0 -106 48 -185q56 -94 156 -94q118 0 229 130q126 147 126 364q0 153 -90 229zM1266 649q0 -144 -64 -274q-69 -141 -188 -205q-65 -35 -123 -35q-85 0 -146 67q-55 60 -71 149
q-7 40 -7 83q0 170 92 328q106 183 265 183q82 0 145 -52q97 -80 97 -244z" />
    <glyph glyph-name="A" unicode="A" horiz-adv-x="1366" 
d="M1148 -10q-7 0 -9 6l-169 438h-599l-159 -437q-3 -7 -9 -7h-206q-9 0 -9 9q0 4 24 67l539 1404q2 6 9 6h208q5 -3 109 -248q78 -182 255 -610l246 -614q6 -14 -9 -14h-221zM768 1456h-201l-555 -1446h184l159 437q3 7 9 7h613q7 0 9 -6l169 -438h199l-147 359
q-442 1080 -439 1087zM748 1021q-49 129 -86 250q-31 -142 -105 -338q-25 -65 -123 -321h483l-9 -14zM925 608q6 -16 -8 -16h-497q-14 0 -9 14l132 346q75 201 107 362q2 9 10 10q7 0 10 -9q35 -121 97 -287l6 -16z" />
    <glyph glyph-name="B" unicode="B" horiz-adv-x="1366" 
d="M1222 229q-81 -165 -274 -214q-98 -25 -239 -25h-559q-10 0 -10 10v1466q0 10 10 10h550q321 0 437 -186q59 -95 59 -199q0 -203 -189 -309q260 -89 260 -357q0 -105 -45 -196zM1247 425q0 266 -269 345q-25 7 -1 19q199 99 199 302q0 104 -58 191.5t-153 129.5
q-100 44 -265 44h-540v-1446h549q538 0 538 415zM354 1283v-423h307q224 0 288 86q36 49 36 122q0 155 -128 195q-64 20 -220 20h-283zM637 1303q160 0 226 -21q142 -45 142 -214q0 -164 -156 -211q-57 -17 -188 -17h-317q-10 0 -10 10v443q0 10 10 10h293zM354 667v-484
h355q117 0 175 17q162 48 162 225q0 168 -152 218q-73 24 -211 24h-329zM344 687h339q141 0 214 -24q169 -56 169 -238q0 -146 -108 -213q-79 -49 -249 -49h-365q-10 0 -10 10v504q0 10 10 10z" />
    <glyph glyph-name="C" unicode="C" horiz-adv-x="1479" 
d="M1383 1067q3 -10 -8 -13l-191 -45q-9 -2 -12 7q-95 299 -382 299q-335 0 -433 -292q-45 -133 -45 -278q0 -395 219 -526q113 -68 244 -68q340 0 419 365q2 8 15 8q8 -3 78 -21q42 -3 117 -30q4 -2 4 -8l-2 -8l-2 -9q-49 -221 -220 -357q-159 -126 -393 -126
q-459 0 -621 382q-78 184 -78 397v1q0 278 128 470q138 207 399 267q83 19 175 19q220 0 373.5 -112t215.5 -322zM1386 458l-174 44q-41 -173 -149 -269q-114 -102 -288 -102q-147 0 -261 74.5t-167 209.5q-55 141 -55 330q0 373 220 515q116 75 278 75q298 0 399 -304
l171 40q-60 199 -209 306q-147 104 -357 104q-193 0 -348 -86q-163 -90 -248.5 -257t-85.5 -393v-1q0 -202 69 -371q79 -195 230 -293q146 -95 380 -95q227 0 382.5 123t211.5 346z" />
    <glyph glyph-name="D" unicode="D" horiz-adv-x="1479" 
d="M926 1455q354 -82 435 -502q19 -99 19 -212q0 -466 -277 -651q-150 -100 -416 -100h-529q-10 0 -10 10v1466q0 10 10 10h505q172 0 263 -21zM168 1456v-1446h519q235 0 378 81q160 91 237 298q58 157 58 352q0 252 -97 431q-114 211 -341 263q-91 21 -259 21h-495z
M362 1283v-1100h303q187 0 282 50q213 112 213 511q0 416 -256 510q-79 29 -244 29h-298zM660 1303q169 0 252 -31q268 -100 268 -528q0 -326 -149 -475q-106 -106 -366 -106h-313q-10 0 -10 10v1120q0 10 10 10h308z" />
    <glyph glyph-name="E" unicode="E" horiz-adv-x="1366" 
d="M366 662v-479h890q10 0 10 -10v-173q0 -10 -10 -10h-1094q-10 0 -10 10v1466q0 10 10 10h1060q10 0 10 -10v-173q0 -10 -10 -10h-856v-429h801q10 0 10 -10v-172q0 -10 -10 -10h-801zM1212 1456h-1040v-1446h1074v153h-890q-10 0 -10 10v499q0 10 10 10h801v152h-801
q-10 0 -10 10v449q0 10 10 10h856v153z" />
    <glyph glyph-name="F" unicode="F" horiz-adv-x="1251" 
d="M372 1283v-434h678q10 0 10 -10v-173q0 -10 -10 -10h-678v-656q0 -10 -10 -10h-194q-10 0 -10 10v1466q0 10 10 10h989q10 0 10 -10v-173q0 -10 -10 -10h-785zM1147 1303v153h-969v-1446h174v656q0 10 10 10h678v153h-678q-10 0 -10 10v454q0 10 10 10h785z" />
    <glyph glyph-name="G" unicode="G" horiz-adv-x="1593" 
d="M1265 565h-421q-10 0 -10 10v172q0 10 10 10l621 1q10 0 10 -10v-544q0 -5 -28 -26l-27 -20q-261 -193 -562 -193q-220 0 -392 84q-195 96 -276 281v2q-91 326 -91 394q0 220 81 398q94 206 271 286h2q321 91 390 91q339 0 497 -199q9 -14 36 -59q53 -90 77 -185
q3 -10 -30 -19l-152 -41q-10 -3 -13 7q-33 111 -79 172q-144 138 -335 138q-442 0 -515 -444q-10 -61 -10 -133q0 -387 258 -515q127 -63 270 -63q105 0 221 40q121 41 197 107v258zM1455 209v529l-601 -1v-152h421q10 0 10 -10v-273q0 -37 -188 -113q-122 -49 -250 -49
q-160 0 -287 70q-136 75 -201 213q-60 129 -60 315q0 272 135 430q143 167 410 167q205 0 349 -144l1 -1q42 -42 81 -170l78 22l78 21q-28 105 -107 227q-152 191 -481 191q-142 0 -383 -89q-169 -91 -260 -284q-81 -173 -81 -382q0 -140 89 -387q91 -176 273 -269
q166 -85 377 -85q302 0 551 189z" />
    <glyph glyph-name="H" unicode="H" horiz-adv-x="1479" 
d="M154 1466q0 10 10 10h194q10 0 10 -10v-592h742v592q0 10 10 10h194q10 0 10 -10v-1466q0 -10 -10 -10h-194q-10 0 -10 10v681h-742v-681q0 -10 -10 -10h-194q-10 0 -10 10v1466zM174 1456v-1446h174v681q0 10 10 10h762q10 0 10 -10v-681h174v1446h-174v-592
q0 -10 -10 -10h-762q-10 0 -10 10v592h-174z" />
    <glyph glyph-name="I" unicode="I" horiz-adv-x="569" 
d="M385 1476q10 0 10 -10v-1466q0 -10 -10 -10h-194q-10 0 -10 10v1466q0 10 10 10h194zM375 1456h-184l10 10v-1456h174v1446z" />
    <glyph glyph-name="J" unicode="J" horiz-adv-x="1024" 
d="M875 467q0 -205 -45 -289l-1 -1q-21 -32 -47 -65q-114 -147 -329 -147q-198 0 -303 114q-1 1 -20 27q-85 115 -81 310q0 13 39 17q19 2 43 3l102 14q11 1 11 -10q6 -163 59.5 -222.5t148.5 -59.5q63 0 115 29q58 32 74 88q2 5 6 18q14 53 14 163v1010q0 10 10 10h194
q10 0 10 -10v-999zM855 1456h-174v-1000q0 -109 -13 -160q-22 -87 -90 -126q-55 -32 -126 -32q-169 0 -209 159l-3 12q-12 48 -15 120l-156 -22q-2 -182 77 -289q16 -22 19 -25q99 -108 288 -108q127 0 222 52q60 33 137 150q43 99 43 280v989z" />
    <glyph glyph-name="K" unicode="K" horiz-adv-x="1366" 
d="M1106 -10q-6 1 -8 4l-515 733l-229 -223v-504q0 -10 -10 -10h-194q-10 0 -10 10v1466q0 10 10 10h194q10 0 10 -10v-703l711 710q4 3 7 3h263q25 0 7 -17l-609 -588l637 -865q12 -16 -8 -16h-256zM1342 10l-630 856q-5 7 1 13l597 577h-234l-725 -724q-17 -17 -17 7v717
h-174v-1446h174v498q1 5 3 7l240 234q8 8 15 -1l519 -738h231z" />
    <glyph glyph-name="L" unicode="L" 
d="M150 -10q-10 0 -10 10v1466q0 10 10 10h194q10 0 10 -10v-1283h712q10 0 10 -10v-173q0 -10 -10 -10h-916zM1056 10v153h-712q-10 0 -10 10v1283h-174v-1446h896z" />
    <glyph glyph-name="M" unicode="M" horiz-adv-x="1706" 
d="M861 244q18 57 228 667l192 558q2 7 9 7h261q10 0 10 -10v-1466q0 -10 -10 -10h-187q-10 0 -10 10v1168l-407 -1171q-2 -7 -9 -7h-175q-7 0 -9 7l-405 1190v-1187q0 -10 -10 -10h-187q-10 0 -10 10v1466q0 10 10 10h292q7 0 9 -7zM1297 1456l-360 -1046
q-35 -103 -66 -202q-3 -9 -10 -9t-10 9l-26 85q-2 8 -154 462l-234 701h-275v-1446h167v1238q0 10 8 11q8 2 11 -8l422 -1241h161l424 1220q3 10 11 8q8 -1 8 -11v-1217h167v1446h-244z" />
    <glyph glyph-name="N" unicode="N" horiz-adv-x="1479" 
d="M352 1119v-1119q0 -10 -10 -10h-186q-10 0 -10 10v1466q0 10 10 10h199q6 -1 8 -4l752 -1124v1118q0 10 10 10h186q10 0 10 -10v-1466q0 -10 -10 -10h-199q-6 1 -8 4zM166 1456v-1446h166v1142q0 9 7 11q6 2 11 -5l767 -1148h184v1446h-166v-1141q0 -9 -7 -11
q-6 -2 -11 5l-767 1147h-184z" />
    <glyph glyph-name="O" unicode="O" horiz-adv-x="1593" 
d="M1172 1404q339 -202 339 -673q0 -215 -83 -387q-92 -191 -267 -287q-168 -92 -361 -92q-318 0 -518 217q-193 211 -193 532v3q0 343 182 557q193 228 530 228q206 0 371 -98zM1162 1386q-162 96 -361 96q-246 0 -423 -134t-238 -371q-31 -120 -31 -260v-3
q0 -313 187 -518q194 -211 504 -211q195 0 353 90q164 94 251 264.5t87 391.5q0 460 -329 655zM455 1177q-101 -96 -128 -203q-18 -72 -18 -263q0 -238 124 -393q134 -167 366 -167q241 0 373 175q119 157 119 406q0 364 -233 511q-114 72 -255 72h-1q-202 0 -347 -138z
M441 1191q104 99 185 126q53 18 176 18h1q149 0 267.5 -75.5t179.5 -211t61 -316.5q0 -258 -125 -421q-137 -180 -387 -180q-173 0 -301.5 97t-178.5 263q-30 99 -30 220q0 335 152 480z" />
    <glyph glyph-name="P" unicode="P" horiz-adv-x="1366" 
d="M1165 719q-84 -92 -186 -116q-67 -17 -251 -17h-366v-586q0 -10 -10 -10h-194q-10 0 -10 10v1466q0 10 10 10h553q202 0 306 -34q153 -50 224 -196q46 -94 46 -204q0 -191 -122 -323zM1151 733q80 86 102 156q14 46 14 153q0 223 -158 333q-117 81 -398 81h-543v-1446
h174v586q0 10 10 10h376q307 0 423 127zM905 1270q-47 13 -178 13h-365v-504h369q336 0 336 257q0 84 -41 146q-43 67 -121 88zM1087 1036q0 -277 -356 -277h-379q-10 0 -10 10v524q0 10 10 10h375q125 0 172 -11q90 -21 140 -93q48 -68 48 -163z" />
    <glyph glyph-name="Q" unicode="Q" horiz-adv-x="1593" 
d="M1505 -37q-6 -16 -17 -48q-16 -43 -30 -38q-140 50 -298 166l-15 11q-163 -89 -359 -89q-202 0 -364 96q-166 97 -255 274.5t-89 397.5v2q0 334 187 545q196 222 525 222q204 0 366 -94q168 -98 256 -276t88 -398q0 -361 -215 -576q112 -76 221 -121q25 -10 21 -20z
M1505 15l-7 3q-118 51 -235 131q-10 7 -1 15q218 209 218 570q0 208 -77 373q-85 181 -252 280q-161 95 -361 95q-321 0 -511 -216q-181 -206 -181 -531v-2q0 -207 79 -373q86 -181 253 -280q160 -95 356 -95q194 0 355 90q5 3 31 -16q147 -109 283 -160zM965 182l-15 9
q-69 42 -157 63q-8 2 -8 11l18 54l28 84q5 15 14 12q164 -46 274 -137q157 150 161 440q5 375 -233 525q-120 76 -273 72q-233 -6 -367 -182q-109 -143 -109 -400q0 -363 232 -511q112 -71 261 -71q90 0 174 31zM848 393l-40 -122q97 -26 184 -83q6 -3 7 -8q0 -7 -23 -15
q-92 -34 -185 -34q-161 0 -286.5 84.5t-181.5 234.5q-45 120 -45 283q0 422 294 557q93 43 202 45q218 4 361 -135q169 -165 165 -482q-4 -305 -174 -460q-7 -6 -13 -1q-105 89 -265 136z" />
    <glyph glyph-name="R" unicode="R" horiz-adv-x="1479" 
d="M1209 -10q-6 1 -8 5l-194 305q-55 87 -107 157q-80 109 -129 140q-42 27 -85 37q-58 7 -106 7h-215v-641q0 -10 -10 -10h-194q-10 0 -10 10v1466q0 10 10 10h650q175 0 267 -28q136 -42 206 -161q59 -100 59 -221q0 -337 -391 -404q134 -71 254 -258l255 -399
q10 -15 -8 -15h-244zM1435 10l-245 384q-72 113 -160 193q-37 34 -114 71q-9 4 -8 11t11 8q404 55 404 389q0 114 -55 210q-60 102 -161.5 141t-295.5 39h-640v-1446h174v641q0 10 10 10h225q47 0 109 -7h1q95 -17 193 -141q57 -72 140 -203l191 -300h221zM772 829
q242 0 314 111q37 57 37 126q0 228 -304 228h-454v-465h407zM772 809h-417q-10 0 -10 10v485q0 10 10 10h464q324 0 324 -248q0 -170 -160 -229q-76 -28 -211 -28z" />
    <glyph glyph-name="S" unicode="S" horiz-adv-x="1366" 
d="M1200 188q-144 -223 -483 -223q-397 0 -553 237q-78 119 -82 269q0 9 43 13l149 13q10 1 11 -9q25 -209 202 -286q99 -43 221 -43q135 0 232 51q122 64 122 188q0 134 -166 198q-63 24 -259 71q-183 44 -266 83q-233 110 -233 337q0 124 69 221q67 93 184 142
q123 51 273 51q348 0 487 -212q69 -106 74 -236q0 -9 -56 -13l-139 -11q-10 -1 -11 9q-29 272 -347 272q-231 0 -303 -122q-24 -41 -24 -88q0 -111 136 -169q43 -19 231 -62q196 -45 272 -76q285 -115 285 -379q0 -119 -69 -226zM1184 199q65 100 65 215q0 237 -244 349
q-82 38 -297 87q-102 23 -164 42q-121 36 -159 71q-60 55 -60 137q0 125 118 184q91 46 229 46q330 0 366 -280l167 12q-10 169 -120 276q-103 101 -275 131q-69 12 -146 12q-319 0 -445 -192q-61 -93 -61 -202q0 -203 203 -310q91 -48 268 -89q206 -48 275 -74
q178 -68 178 -216q0 -158 -174 -225q-88 -34 -200 -34q-270 0 -381 162q-46 67 -61 175l-164 -14q7 -159 96.5 -274.5t241.5 -164.5q118 -38 277 -38q328 0 467 214z" />
    <glyph glyph-name="T" unicode="T" horiz-adv-x="1251" 
d="M735 1283v-1283q0 -10 -10 -10h-194q-10 0 -10 10v1283h-473q-10 0 -10 10v173q0 10 10 10h1162q10 0 10 -10v-173q0 -10 -10 -10h-475zM58 1303h473q10 0 10 -10v-1283h174v1283q0 10 10 10h475v153h-1142v-153z" />
    <glyph glyph-name="U" unicode="U" horiz-adv-x="1479" 
d="M1324 606q0 -253 -72 -388q-135 -253 -511 -253q-415 0 -533 283q-57 137 -57 371v847q0 10 10 10h194q10 0 10 -10v-846q0 -188 34 -277q65 -105 118 -135q85 -48 207 -48q209 0 297 93q89 123 89 367v846q0 10 10 10h194q10 0 10 -10v-860zM1130 1456v-836
q0 -250 -93 -379q-95 -101 -313 -101q-246 0 -342 193l-1 2q-36 72 -36 285v836h-174v-837q0 -260 73 -399q124 -235 497 -235q364 0 493 242q70 131 70 380v849h-174z" />
    <glyph glyph-name="V" unicode="V" horiz-adv-x="1366" 
d="M1324 1371l-539 -1375q-2 -6 -9 -6h-199q-7 0 -9 6l-568 1466q-5 14 9 14h210q8 0 24 -46l366 -1026q42 -117 68 -207q26 90 172 482l294 790q3 7 9 7h198q10 0 10 -7q0 -6 -36 -98zM1335 1456h-176l-394 -1058q-37 -100 -78 -240q-3 -9 -10 -9t-10 9q-33 119 -186 546
l-269 752h-188l560 -1446h185z" />
    <glyph glyph-name="W" unicode="W" horiz-adv-x="1933" 
d="M1413 261q29 131 77 327l215 880q2 8 10 8h195q10 0 10 -14q-3 -8 -33 -119l-369 -1346q-2 -7 -10 -7h-187q-8 0 -10 7l-349 1231q-7 -29 -22 -86l-7 -28l-311 -1117q-2 -7 -10 -7h-198q-8 0 -24 62l-375 1411q-3 13 10 13h199q8 0 10 -8l223 -961q29 -125 53 -253
l55 225l279 990q2 7 10 7h234q8 0 10 -7l218 -771q64 -235 97 -437zM1723 1456l-228 -934q-50 -204 -73 -319q-2 -10 -10 -10q-9 1 -10 11q-29 198 -99 463q-5 19 -129 457l-94 332h-218l-277 -983q-11 -40 -66 -270q-2 -10 -10 -10q-8 1 -10 10q-25 139 -62 300l-221 953
h-178l384 -1446h182l317 1137q16 57 35 144q2 10 10 10t10 -10q5 -24 46 -171l307 -1110h171l397 1446h-174z" />
    <glyph glyph-name="X" unicode="X" horiz-adv-x="1366" 
d="M810 775l551 -769q11 -16 -8 -16h-240q-6 1 -8 4l-369 523q-7 11 -41 62l-15 23q-40 -66 -184 -266l-246 -342q-4 -3 -8 -4h-233q-20 0 -8 16l563 758l-496 696q-11 16 8 16h231q5 -1 8 -4l266 -376q51 -73 90 -132q7 -12 20 -34q43 67 234 319l169 223q4 3 8 4h211
q20 0 8 -16zM95 1456l489 -686q4 -6 0 -12l-555 -748h208l365 507q13 18 69 109q8 14 17 0q38 -61 238 -344l192 -272h216l-544 759q-4 6 0 12l503 675h-186l-292 -385q-71 -93 -115 -166q-9 -15 -18 0q-38 68 -117 179l-263 372h-207z" />
    <glyph glyph-name="Y" unicode="Y" horiz-adv-x="1366" 
d="M680 796q88 151 385 599l51 77q4 3 8 4h226q10 0 10 -7q0 -5 -17 -30l-568 -821v-618q0 -10 -10 -10h-194q-10 0 -10 10v618l-563 842q-11 16 8 16h236q5 0 38 -50l206 -312q110 -168 194 -318zM1331 1456h-202l-47 -72q-111 -169 -393 -613q-9 -15 -18 0
q-72 128 -367 582l-67 103h-212l554 -829q2 -4 2 -6v-611h174v611q1 4 2 6z" />
    <glyph glyph-name="Z" unicode="Z" horiz-adv-x="1251" 
d="M784 1125q72 90 137 158h-795q-10 0 -10 10v173q0 10 10 10h1050q10 0 10 -10v-173q-1 -4 -2 -6l-898 -1104h914q10 0 10 -10v-173q0 -10 -10 -10h-1159q-10 0 -10 10v180q1 4 2 6zM51 176v-166h1139v153h-926q-23 0 -8 17l70 80q5 6 19 22l821 1015v159h-1030v-153h808
q24 0 7 -17q-69 -70 -286 -342z" />
    <glyph glyph-name="bracketleft" unicode="[" horiz-adv-x="569" 
d="M139 -417q-10 0 -10 10v1873q0 10 10 10h397q10 0 10 -10v-149q0 -10 -10 -10h-207v-1555h207q10 0 10 -10v-149q0 -10 -10 -10h-397zM526 -397v129h-207q-10 0 -10 10v1575q0 10 10 10h207v129h-377v-1853h377z" />
    <glyph glyph-name="backslash" unicode="\" horiz-adv-x="569" 
d="M425 -35q-8 0 -10 7l-425 1516q-4 13 10 13h145q16 0 27 -71l407 -1452q4 -13 -10 -13h-144zM556 -15l-419 1496h-124l420 -1496h123z" />
    <glyph glyph-name="bracketright" unicode="]" horiz-adv-x="569" 
d="M39 -417q-10 0 -10 10v149q0 10 10 10h207v1555h-207q-10 0 -10 10v149q0 10 10 10h397q10 0 10 -10v-1873q0 -10 -10 -10h-397zM426 -397v1853h-377v-129h207q10 0 10 -10v-1575q0 -10 -10 -10h-207v-129h377z" />
    <glyph glyph-name="asciicircum" unicode="^" horiz-adv-x="961" 
d="M726 680q-7 0 -9 6l-238 575l-231 -575q-2 -6 -9 -6h-185q-10 0 -10 8q8 22 61 142l293 665q2 5 9 6h144q10 -6 365 -807q6 -14 -9 -14h-181zM892 700l-34 76l-307 705h-137l-345 -781h163l138 344q13 31 100 247q9 22 18 0l245 -591h159z" />
    <glyph glyph-name="underscore" unicode="_" 
d="M-31 -417q-10 0 -10 10v130q0 10 10 10h1193q10 0 10 -10v-130q0 -10 -10 -10h-1193zM1152 -397v110h-1173v-110h1173z" />
    <glyph glyph-name="grave" unicode="`" horiz-adv-x="682" 
d="M320 1184q-5 1 -8 4l-207 251q-27 33 -27 38q0 7 11 7h241q7 -2 9 -6l135 -280q7 -14 -9 -14h-145zM449 1204l-125 260h-214l215 -260h124z" />
    <glyph glyph-name="a" unicode="a" 
d="M864 -10q-26 0 -44 122q-177 -146 -383 -146q-250 0 -339 168q-34 64 -34 146q0 164 133 254q12 7 48 26q84 43 246 62q211 25 312 59q1 31 1 40q0 105 -48 148q-65 58 -198 58q-118 0 -176 -40q-63 -43 -91 -154q-2 -9 -11 -8l-118 16q-69 9 -67 20q48 226 245 297
q105 38 244 38q98 -11 225 -33q128 -48 169 -149q27 -67 27 -229l1 -465q8 -132 55 -215q8 -15 -9 -15h-188zM1035 10q-27 55 -38 116q-12 69 -12 319v240q0 156 -24 218q-37 96 -160 142q-74 28 -217 31q-276 6 -392 -141q-51 -65 -75 -168l157 -21q31 115 99 160
q62 41 185 41q266 0 266 -226q0 -54 -8 -56q-104 -37 -323 -63q-115 -13 -150 -23q-63 -17 -135 -61q-124 -76 -124 -238q0 -218 216 -277q62 -17 137 -17q205 0 385 153q14 12 16 -7q7 -69 32 -122h165zM803 518q-100 -37 -283 -63q-88 -13 -121 -23q-123 -39 -123 -147
q0 -81 64 -122q55 -36 140 -36q216 0 295 164q28 58 28 176v51zM809 542q14 6 14 -9v-66q0 -227 -153 -313q-83 -47 -190 -47q-94 0 -154 41q-70 48 -70 137q0 109 102 153q49 21 160 37q196 28 291 67z" />
    <glyph glyph-name="b" unicode="b" 
d="M311 102v-102q0 -10 -10 -10h-167q-10 0 -10 10v1466q0 10 10 10h180q10 0 10 -10v-496q113 126 281 126q158 0 271 -89q110 -87 157 -241q32 -105 32 -219q0 -237 -113 -398q-129 -183 -356 -183q-178 0 -285 136zM1045 547q0 160 -59 285q-68 145 -200 205
q-86 39 -181 39q-172 0 -283 -139q-6 -7 -12 -5t-6 11v513h-160v-1446h147v123q0 13 9 11q6 -2 12 -10q102 -148 284 -148q160 0 277 105q112 100 151 259q21 86 21 197zM393 829q-58 -69 -74 -135q-10 -44 -10 -155v-2q0 -251 118 -349q65 -54 154 -54q54 0 100 22
q180 85 180 376q0 247 -127 346q-64 50 -145 50q-113 0 -196 -99zM589 948q154 0 231 -138q61 -111 61 -278q0 -303 -192 -394q-51 -24 -108 -24q-151 0 -239 144q-53 87 -53 279v2q0 270 167 372q61 37 133 37z" />
    <glyph glyph-name="c" unicode="c" horiz-adv-x="1024" 
d="M563 -34q-175 0 -298.5 92t-169.5 259q-25 92 -25 210v3q0 369 236 500q119 66 258 66q174 0 287.5 -88t146.5 -256q3 -15 -39 -17l-144 -22q-10 -1 -12 8q-48 207 -220 207h-27q-148 -37 -198 -94q-83 -96 -83 -302q0 -273 145 -361q61 -37 141 -37q221 0 257 256
q1 10 22 10q-31 0 73 -12q19 -1 58 -4q46 -4 44 -20q-29 -183 -147 -290q-121 -108 -305 -108zM993 357l-157 21q-41 -264 -275 -264q-306 0 -306 418q0 215 87 315q56 64 210 100l2 1h17q195 0 250 -214l155 24q-67 318 -412 318q-139 0 -248 -63q-116 -67 -170 -189
q-56 -127 -56 -294v-3q0 -373 257 -496q94 -45 216 -45q173 0 288 101q113 98 142 270z" />
    <glyph glyph-name="d" unicode="d" 
d="M802 969v497q0 10 10 10h179q10 0 10 -10v-1466q0 -10 -10 -10h-167q-10 0 -10 10v102q-103 -136 -287 -136q-179 0 -304 124q-118 115 -151 297q-12 65 -12 143q0 353 217 495q109 71 242 71q174 0 283 -127zM981 1456h-159v-516q0 -9 -6 -11q-7 -2 -12 5
q-103 142 -285 142q-132 0 -234.5 -69t-152.5 -192q-52 -127 -52 -285q0 -180 73 -315q82 -153 240 -207q64 -22 134 -22q191 0 289 153q5 8 11 6q7 -2 7 -11v-124h147v1446zM536 927q-160 0 -230 -157q-41 -92 -41 -240q0 -233 122 -337q69 -59 157 -59q101 0 171 68
q63 61 87 164q14 61 15 133q3 244 -103 353q-73 75 -178 75zM837 499q-3 -157 -68 -261q-78 -124 -225 -124q-100 0 -177 69q-71 63 -100 164q-22 77 -22 183q0 170 59 279q75 138 232 138q102 0 177 -66q129 -113 124 -382z" />
    <glyph glyph-name="e" unicode="e" 
d="M65 526q0 248 127 403q136 167 379 167q179 0 304 -99.5t168 -273.5q21 -86 21 -190q0 -6 -1 -48q0 -10 -10 -10h-781q16 -227 171 -309q61 -32 139 -32q195 0 271 211q2 8 10 7l93 -12q15 -2 93 -11q12 -1 9 -13q-95 -350 -477 -350q-250 0 -387 155q-129 148 -129 401
v4zM85 526v-4q0 -244 124 -386q131 -150 372 -150q360 0 454 325l-166 20q-82 -217 -287 -217q-153 0 -242 111q-80 99 -89 259q-1 11 10 11h782q1 25 1 38q0 236 -116 383q-127 160 -357 160q-235 0 -365 -161q-121 -149 -121 -389zM282 643h571q-14 126 -81 202
q-75 83 -196 83h-3q-123 0 -203 -82q-77 -78 -88 -203zM573 948h3q138 0 228 -108q58 -69 70 -206q1 -11 -10 -11h-593q-11 0 -10 11q9 137 91 224q86 90 221 90z" />
    <glyph glyph-name="f" unicode="f" horiz-adv-x="569" 
d="M168 1072v103q0 105 18 158q57 168 286 168q78 0 170 -18q9 -2 9 -19q0 16 -16 -77q-3 -22 -11 -66q-3 -16 -15 -16q-16 0 -50.5 5.5t-51.5 5.5q-14 0 -32 -2l-18 -2l-8 -2q-82 -21 -82 -150v-88h197q10 0 10 -10v-140q0 -10 -10 -10h-197v-912q0 -10 -10 -10h-179
q-10 0 -10 10v912h-149q-10 0 -10 10v140q0 10 10 10h149zM554 932v120h-197q-10 0 -10 10v98q0 160 107 172l9 1l10 1q20 2 34 2q46 0 98 -8l23 137q-85 16 -156 16q-211 0 -266 -150q-18 -49 -18 -156v-113q0 -10 -10 -10h-149v-120h149q10 0 10 -10v-912h159v912
q0 10 10 10h197z" />
    <glyph glyph-name="g" unicode="g" 
d="M809 113q-116 -123 -284 -123q-223 0 -352 166q-117 151 -117 381q0 234 115 388q128 171 355 171q179 0 300 -135v101q0 10 10 10h166q10 0 10 -10v-918q0 -249 -52 -356q-111 -229 -438 -229q-190 0 -302 79q-132 92 -128 274q0 11 20 11q-14 0 86 -15l80 -12
q7 -1 18 -44q13 -50 48 -76q65 -48 177 -48q227 0 275 183q13 49 13 202zM522 -421q314 0 421 218q49 100 49 347v908h-146v-118q0 -9 -6 -11t-12 5q-119 148 -302 148q-219 0 -341 -165q-109 -148 -109 -374q0 -222 111 -367q123 -160 338 -160q169 0 286 136q5 6 12 4
q6 -2 6 -11q1 -181 -13 -234q-52 -197 -295 -197q-225 0 -253 169l-156 23q0 -166 127 -250q107 -71 283 -71zM539 927q-143 0 -217 -123q-61 -102 -61 -254q0 -163 58 -264q72 -127 223 -127q282 0 282 385q0 156 -63 259q-76 124 -222 124zM844 544q0 -169 -65 -276
q-78 -129 -237 -129q-161 0 -238 132q-63 107 -63 279q0 160 67 268q80 129 231 129q154 0 236 -130q69 -110 69 -273z" />
    <glyph glyph-name="h" unicode="h" 
d="M820 -10q-10 0 -10 10v673q0 248 -214 248q-77 0 -143 -39q-70 -41 -99 -109.5t-29 -191.5v-581q0 -10 -10 -10h-180q-10 0 -10 10v1466q0 10 10 10h180q10 0 10 -10v-500q125 130 308 130q256 0 339 -181q38 -83 38 -242v-673q0 -10 -10 -10h-180zM145 1456v-1446h160
v571q0 237 135 317q73 43 156 43q234 0 234 -268v-663h160v663q0 132 -25 204q-69 199 -332 199q-186 0 -310 -143q-5 -6 -12 -4q-6 2 -6 11v516h-160z" />
    <glyph glyph-name="i" unicode="i" horiz-adv-x="455" 
d="M136 1249q-10 0 -10 10v207q0 10 10 10h180q10 0 10 -10v-207q0 -10 -10 -10h-180zM306 1456h-160v-187h160v187zM326 0q0 -10 -10 -10h-180q-10 0 -10 10v1062q0 10 10 10h180q10 0 10 -10v-1062zM146 1052v-1042h160v1042h-160z" />
    <glyph glyph-name="j" unicode="j" horiz-adv-x="455" 
d="M134 1247q-10 0 -10 10v209q0 10 10 10h180q10 0 10 -10v-209q0 -10 -10 -10h-180zM304 1456h-160v-189h170l-10 -10v199zM318 -177q-29 -264 -271 -264q-158 0 -151 31l34 153q2 11 13 8q55 -14 82 -14q55 5 74 32q25 35 25 177v1116q0 10 10 10h180q10 0 10 -10v-1120
q0 -65 -6 -119zM304 1052h-160v-1106q0 -113 -11 -149q-24 -76 -108 -80q-24 -1 -77 12l-30 -134q62 -16 129 -16q157 0 215 110q42 79 42 253v1110z" />
    <glyph glyph-name="k" unicode="k" horiz-adv-x="1024" 
d="M326 654l409 415q4 3 7 3h233q25 0 7 -17l-400 -388l442 -661q11 -16 -8 -16h-222q-6 1 -8 5l-345 532l-115 -110v-417q0 -10 -10 -10h-180q-10 0 -10 10v1466q0 10 10 10h180q10 0 10 -10v-812zM146 1456v-1446h160v411q1 5 3 7l52 50q78 75 83 75t7 -5l348 -538h198
l-436 652q-5 7 1 13l388 377h-204l-401 -406q-27 -27 -33 -27t-6 11v826h-160z" />
    <glyph glyph-name="l" unicode="l" horiz-adv-x="455" 
d="M321 0q0 -10 -10 -10h-180q-10 0 -10 10v1466q0 10 10 10h180q10 0 10 -10v-1466zM301 1456h-160v-1446h160v1446z" />
    <glyph glyph-name="m" unicode="m" horiz-adv-x="1706" 
d="M921 921q126 175 325 175q338 0 338 -367v-729q0 -10 -10 -10h-179q-10 0 -10 10v669q0 105 -17 151q-58 100 -162 100q-250 0 -250 -303v-617q0 -10 -10 -10h-180q-10 0 -10 10v690q0 231 -172 231q-16 0 -39 -3q-165 -21 -204 -191q-16 -70 -16 -176v-551
q0 -10 -10 -10h-180q-10 0 -10 10v1062q0 10 10 10h161q10 0 10 -10v-118q113 152 312 152q229 0 303 -175zM1564 10v719q0 347 -318 347q-197 0 -320 -182q-3 -5 -7 -5q-8 6 -24 39q-73 148 -277 148q-191 0 -301 -151q-18 -25 -25 -23q-6 2 -6 11v139h-141v-1042h160v541
q0 150 32 231q46 117 169 149q34 9 74 9q196 0 196 -250v-680h160v607q0 229 154 299q53 24 116 24q129 0 180 -111l1 -1q18 -39 18 -159v-659h159z" />
    <glyph glyph-name="n" unicode="n" 
d="M307 942q118 154 328 154q213 0 305 -129q68 -95 68 -304v-663q0 -10 -10 -10h-180q-10 0 -10 10v646q0 94 -12 137q-38 137 -201 137q-51 0 -97 -16q-103 -36 -143 -127q-30 -69 -30 -197v-580q0 -10 -10 -10h-180q-10 0 -10 10v1062q0 10 10 10h162q10 0 10 -10v-120z
M988 10v653q0 149 -27 223q-39 107 -153 156q-79 34 -173 34q-216 0 -330 -171q-5 -7 -11 -5q-7 2 -7 11v141h-142v-1042h160v570q0 132 34 208q44 97 152 135q49 17 103 17q164 0 212 -126q22 -57 22 -168v-636h160z" />
    <glyph glyph-name="o" unicode="o" 
d="M1010 218q-43 -83 -86 -122q-27 -26 -99 -65q-116 -64 -259 -65q-229 -2 -376 155q-132 141 -132 397v16q0 298 167 442q139 120 341 120q239 0 377 -158q130 -149 130 -392q0 -207 -63 -328zM994 229q40 78 52 151q7 48 7 166q0 234 -124 378q-132 152 -363 152
q-193 0 -327 -116q-161 -139 -161 -426v-15q0 -249 134 -392t365 -141q132 1 242 64q115 65 175 179zM557 927q-121 0 -208 -99t-87 -297q0 -73 14 -140q24 -115 98 -184q78 -73 192 -73q159 0 237 128q65 106 65 275q0 160 -68 265q-80 125 -231 125h-12zM556 947h13
q120 0 203 -79q77 -73 103 -195q13 -62 13 -136q0 -177 -71 -289q-84 -134 -251 -134q-122 0 -206 77q-79 73 -104 196q-12 60 -13 144q-1 169 70 282q83 134 243 134z" />
    <glyph glyph-name="p" unicode="p" 
d="M838 40q-113 -76 -250 -74q-69 1 -111 18l-10 4l-9 3l-10 4l-8 4l-7 4q-73 41 -108 80v-490q0 -10 -10 -10h-180q-10 0 -10 10v1469q0 10 10 10h164q10 0 10 -10v-108q114 142 298 142q222 0 347 -169q113 -153 113 -388q0 -346 -229 -499zM1047 539q0 226 -107 373
q-120 164 -333 164q-187 0 -300 -158q-5 -7 -12 -5q-6 2 -6 11v128h-144v-1449h160v507q0 9 6 11t12 -5q54 -68 119 -96l23 -10l8 -3l10 -4q43 -16 106 -17q130 -1 239 70q219 145 219 483zM474 903q-166 -100 -166 -378v-2q0 -282 169 -365q49 -24 105 -24q152 0 225 141
q58 110 56 276q-1 151 -61 255q-73 129 -212 129q-63 0 -116 -32zM464 920q58 35 126 35q148 0 227 -135q64 -109 66 -269q2 -175 -61 -291q-78 -146 -240 -146q-154 0 -232 134q-62 109 -62 275v2q0 289 176 395z" />
    <glyph glyph-name="q" unicode="q" 
d="M279 1026q105 70 241 70h2q104 -42 160 -68q113 -52 138 -80v114q0 10 10 10h162q10 0 10 -10v-1469q0 -10 -10 -10h-180q-10 0 -10 10v491q-103 -118 -268 -118q-181 0 -309 127q-119 119 -151 303q-12 69 -12 145q0 341 217 485zM82 541q0 -224 111 -380
q126 -175 341 -175q175 0 270 133q5 7 12 5q6 -2 6 -11v-510h160v1449h-142v-132q0 -9 -7 -11q-6 -2 -11 5q-72 105 -303 162q-129 0 -230 -67q-207 -137 -207 -468zM549 134q138 0 210 124q60 100 61 249q2 164 -58 280q-75 147 -225 147q-93 0 -161 -64q-63 -59 -88 -153
q-21 -78 -21 -183q0 -157 61 -266q75 -134 221 -134zM247 534q0 169 60 279q75 141 230 141q159 0 240 -153q65 -122 63 -294q-2 -158 -66 -264q-77 -129 -225 -129q-155 0 -236 139q-66 114 -66 281z" />
    <glyph glyph-name="r" unicode="r" horiz-adv-x="682" 
d="M714 1009l-30 -79q-30 -79 -36 -79q-36 16 -93 36q-22 4 -39 3q-193 -12 -193 -334v-556q0 -10 -10 -10h-180q-10 0 -10 10v1062q0 10 10 10h162q10 0 10 -10v-123q94 157 220 157q95 0 190 -59q8 -5 -1 -28zM698 1024q-88 52 -173 52q-122 0 -221 -180q-4 -8 -12 -6
q-7 1 -7 11v151h-142v-1042h160v546q0 347 213 354q59 2 127 -34z" />
    <glyph glyph-name="s" unicode="s" horiz-adv-x="1024" 
d="M149 341q80 11 89 14q12 0 15 -18q6 -40 19 -70q58 -133 244 -133q92 0 155 33q79 42 79 126q0 57 -48 88q-31 20 -222 70q-92 24 -236 76q-161 77 -161 253q0 149 125 240q105 76 276 76h13q254 0 354 -138q46 -63 64 -168q4 -24 -112 -26q-26 -5 -49 -9q-33 -5 -35 8
q-24 165 -222 165q-220 0 -220 -127q0 -69 85 -102q23 -9 158 -45q76 -20 267 -84q168 -64 168 -258q0 -100 -59 -182q-56 -78 -151 -120q-100 -44 -228 -44q-402 0 -464 349q-3 15 40 20q19 2 56 6zM75 309q62 -323 442 -323q260 0 367 162q51 77 51 164q0 137 -98 206
q-59 41 -221 88q-4 1 -102 28q-134 37 -160 47q-97 38 -97 120q0 147 240 147q209 0 240 -173l156 22q-33 183 -193 244q-92 35 -203 35h-13q-260 0 -350 -169q-31 -58 -31 -127q0 -163 150 -234q69 -33 232 -76q43 -11 128.5 -34.5t117.5 -52.5q39 -36 39 -90
q0 -93 -85 -140q-69 -39 -169 -39q-247 0 -283 220z" />
    <glyph glyph-name="t" unicode="t" horiz-adv-x="569" 
d="M357 912v-611q0 -89 17 -110q21 -27 75 -27q31 0 78 7q12 2 17 -32q2 -17 6 -50q15 -97 15 -77q0 -18 -9 -20q-76 -16 -138 -16q-186 0 -237 119q-23 53 -23 216v601h-122q-10 0 -10 10v140q0 10 10 10h122v253q2 7 5 9l179 108q15 9 15 -9v-361h171q10 0 10 -10v-140
q0 -10 -10 -10h-171zM337 1415l-159 -96v-257q0 -10 -10 -10h-122v-120h122q10 0 10 -10v-611q0 -161 21 -209q47 -106 219 -106q55 0 125 14l-23 140q-43 -6 -71 -6q-73 0 -96 44q-16 31 -16 113v621q0 10 10 10h171v120h-171q-10 0 -10 10v353z" />
    <glyph glyph-name="u" unicode="u" 
d="M821 125q-24 -30 -49 -53q-115 -106 -278 -106q-100 0 -184 38q-96 43 -140 122q-49 89 -49 278v658q0 10 10 10h180q10 0 10 -10v-589q0 -143 11 -189q16 -66 67 -104q69 -39 131 -39q79 0 145 38q70 41 98.5 110.5t28.5 203.5v569q0 10 10 10h180q10 0 10 -10v-1062
q0 -10 -10 -10h-161q-10 0 -10 10v125zM131 1052l10 10v-658q0 -152 28 -227q39 -105 154 -156q79 -35 171 -35q157 0 265 100q30 28 64 76q5 7 11 5q7 -2 7 -11v-146h141v1042h-160v-559q0 -121 -21 -186q-28 -86 -103 -136t-168 -50q-68 0 -141 42q-59 43 -77 118
q-11 46 -11 192v579h-170z" />
    <glyph glyph-name="v" unicode="v" horiz-adv-x="1024" 
d="M607 -4q-2 -6 -9 -6h-168q-7 0 -9 6l-404 1062q-5 14 9 14h190q6 0 9 -7l147 -410q72 -202 140 -407q25 83 53 156l5 13l236 648q3 7 9 7h185q14 0 9 -14zM986 1052h-164l-239 -655q-32 -88 -61 -188q-3 -9 -10 -9q-8 0 -10 9q-30 108 -196 572l-97 271h-168l396 -1042
h154z" />
    <glyph glyph-name="w" unicode="w" horiz-adv-x="1479" 
d="M423 262q8 34 142 532l73 271q2 7 10 7h185q8 0 10 -8l203 -784l232 785q3 7 10 7h175q10 0 10 -16q0 -23 -20 -76q-9 -20 -24 -61l-288 -922q-3 -7 -10 -7h-187q-8 0 -10 7l-201 778l-204 -778q-2 -7 -10 -7h-188q-7 0 -10 7l-325 1062q-4 13 10 13h186q8 0 10 -7z
M1449 1052h-154l-240 -812q-3 -9 -10 -9q-8 0 -10 9l-210 812h-169l-23 -82q-44 -151 -87 -302q-63 -222 -107 -426l-5 -23q-2 -10 -10 -10t-10 9l-230 834h-164l318 -1042h173l213 810q2 9 10 9t10 -10l34 -152q2 -10 7 -28l167 -629h172z" />
    <glyph glyph-name="x" unicode="x" horiz-adv-x="1024" 
d="M961 1018l-335 -456l391 -556q11 -16 -8 -16h-221q-6 1 -8 4l-268 407l-271 -407q-4 -3 -8 -4h-218q-11 0 -11 6t46 71l341 485l-355 504q-11 16 8 16h225q6 -1 8 -5l94 -143q35 -53 124 -192l12 -19q31 46 251 355q4 3 8 4h215q11 0 11 -7q0 -5 -31 -47zM961 1052h-190
q-98 -136 -257 -364q-3 -5 -7 -5q-5 0 -19 22l-10 16q-48 77 -214 331h-201l348 -494q4 -6 0 -12l-377 -536h194l276 415q3 4 7 5q7 0 22 -24l45 -71q69 -104 215 -325h197l-384 546q-4 6 0 12z" />
    <glyph glyph-name="y" unicode="y" horiz-adv-x="1024" 
d="M525 240q28 108 139 409l153 416q3 7 9 7h180q10 0 10 -9q-3 -11 -19 -54l-386 -1031q-57 -152 -83 -205q-63 -129 -132 -171q-5 -4 -19 -12q-56 -31 -134 -31q-25 0 -69 8q-55 10 -57 23l-5 40q-2 15 -11 91q-5 35 -3 42q1 9 12 7q63 -18 100 -16q10 0 36 2q73 8 111 69
q16 26 54 132l12 36l2 5l-401 1060q-5 14 9 14h194q8 0 23 -43l122 -341q77 -214 153 -448zM992 1052h-159l-225 -612q-35 -95 -73 -241q-3 -10 -10 -10q-8 0 -10 9q-32 120 -162 483l-133 371h-173l398 -1050q-1 -8 -16 -51q-36 -105 -56 -136q-49 -77 -162 -81
q-36 -1 -92 13l17 -149q59 -19 107 -19q77 0 143 40q90 55 207 367z" />
    <glyph glyph-name="z" unicode="z" horiz-adv-x="1024" 
d="M693 911q-99 -5 -180 -5h-433q-10 0 -10 10v146q0 10 10 10h868q10 0 10 -10v-118q-3 -12 -577 -682q-32 -35 -95 -104q104 7 203 7h491q10 0 10 -10v-155q0 -10 -10 -10h-940q-10 0 -10 10v146q1 4 2 7zM50 142v-132h920v135h-481q-100 0 -226 -9q-12 -1 -12 6
q0 8 23 33l44 48q12 12 47 53l573 709v67h-848v-126h423q94 0 202 6q12 1 12 -6t-13 -22z" />
    <glyph glyph-name="braceleft" unicode="{" horiz-adv-x="684" 
d="M247 531q164 -79 189 -307q7 -64 7 -144v-40q0 -156 4 -191q8 -72 48 -95q31 -18 110 -18h31q10 0 10 -10v-157q0 -10 -10 -10h-56q-180 0 -256 94q-61 76 -68 290q0 15 -2 143q-1 70 -17 210q-32 139 -180 143q-10 0 -10 10v163q0 10 10 10q148 4 180 142q16 67 17 251
q2 209 20 282q39 156 179 194q36 10 127 10h56q10 0 10 -10v-157q0 -10 -10 -10h-31q-107 0 -138 -45q-24 -35 -24 -150v-44q0 -68 -2 -154q-4 -158 -34 -235q-40 -103 -160 -165zM626 1481h-46q-105 0 -156 -21q-71 -29 -111 -111q-37 -76 -39 -335q-1 -97 -3 -139
q-5 -88 -20 -136q-41 -128 -184 -137v-143q155 -9 190 -159q16 -69 17 -213q-1 -83 13 -295q16 -149 154 -198q42 -15 139 -15h46v137h-21q-85 0 -121 21q-48 28 -57 110q-4 36 -4 192v41q0 174 -30 260q-44 127 -173 181q-20 8 0 18q123 60 165 158q31 73 36 235
q2 67 2 153v44q0 123 30 164q37 51 152 51h21v137z" />
    <glyph glyph-name="bar" unicode="|" horiz-adv-x="532" 
d="M188 -441q-10 0 -10 10v1922q0 10 10 10h157q10 0 10 -10v-1922q0 -10 -10 -10h-157zM198 -421h137v1902h-137v-1902z" />
    <glyph glyph-name="braceright" unicode="}" horiz-adv-x="684" 
d="M438 532q-121 84 -150 139q-48 92 -48 310v64q0 144 -5 169l-1 5l-1 6q-10 59 -40 79t-115 20h-31q-10 0 -10 10v157q0 10 10 10h56q275 0 312 -229q13 -81 14 -230q1 -163 9 -231q22 -185 188 -189q10 0 10 -10v-163q0 -10 -10 -10q-147 -4 -180 -143q-13 -54 -18 -345
q-3 -156 -31 -230q-44 -116 -167 -151q-38 -11 -127 -11h-56q-10 0 -10 10v157q0 10 10 10h31q107 0 138 45q24 35 24 151q0 15 1 141q-2 54 10 190l2 12l3 15q34 171 182 242zM57 1344h21q83 0 118 -19q45 -24 57 -97l1 -6l1 -5q5 -25 5 -172v-64q0 -213 46 -301
q29 -56 156 -140q21 -11 1 -19q-150 -63 -187 -235l-3 -14l-2 -12q-11 -66 -11 -328q0 -123 -30 -165q-36 -51 -152 -51h-21v-137h46q102 0 156 22q73 30 112 111q34 71 37 239q0 59 1 177q2 109 17 173q35 149 190 158v143q-175 11 -198 207q-8 68 -9 230q-1 152 -13 229
q-24 152 -154 198q-43 15 -139 15h-46v-137z" />
    <glyph glyph-name="asciitilde" unicode="~" horiz-adv-x="1196" 
d="M984 577q-67 -28 -151 -28q-108 0 -292 82q-117 52 -193 52q-117 0 -254 -133q-17 -16 -17 7v205q1 5 6 10l2 2q118 118 280 118q87 0 182 -35q76 -31 151 -61q99 -38 154 -38q128 0 251 134q17 19 17 -7v-212q0 -16 -60 -54q-48 -30 -76 -42zM97 580l15 14
q117 109 236 109q81 0 202 -54q180 -80 283 -80q150 0 267 108v183l-3 -2q-121 -120 -245 -120q-58 0 -122 25q-39 16 -116 48q-151 61 -249 61q-165 0 -266 -111l-2 -3v-178z" />
    <glyph glyph-name="exclamdown" unicode="&#xa1;" horiz-adv-x="682" 
d="M240 847q-10 0 -10 10v205q0 10 10 10h207q10 0 10 -10v-205q0 -10 -10 -10h-207zM447 867l-10 -10v195h-187v-185h197zM222 -79l52 777q1 9 10 9h116q9 0 10 -9l55 -777v-325q0 -10 -10 -10h-223q-10 0 -10 10v325zM242 -394h203v314q0 157 -20 384l-34 383h-98
l-51 -766v-315z" />
    <glyph glyph-name="cent" unicode="&#xa2;" 
d="M884 71q-87 -75 -153 -95q-45 -14 -145 -14q-46 0 -96 12l-115 -386q-3 -10 -13 -7l-112 32q-10 3 -7 13l113 390q-259 131 -259 510v2q0 373 239 504q118 65 242 65q35 0 93 -7l110 379q2 9 56 -6q77 -21 74 -32l-110 -378q105 -48 148 -116l1 -1q34 -73 75 -184
q2 -11 -53 -19l-47 -7q-94 -14 -74 -14q-19 0 -21 9q-23 99 -81 155l-215 -741q27 -6 49 -6q111 0 182 77q65 70 80 184q1 10 25 10q23 0 78 -11q20 -1 59.5 -4t36.5 -18q-33 -187 -160 -296zM1022 360l-158 18q-18 -118 -89 -190q-77 -79 -192 -79q-77 0 -71 22l184 633
q41 142 47 142q3 -1 7 -4q70 -60 98 -168l155 24q-17 69 -70 168q-53 71 -148 112q-8 4 -6 12l110 377l-91 27l-110 -378q-2 -8 -11 -7q-64 8 -99 8q-118 0 -233 -63q-228 -125 -228 -486v-2q0 -162 57 -287q66 -146 198 -209q8 -4 6 -12l-113 -388l93 -27l115 386
q3 10 13 7q54 -14 100 -14q171 0 289 106q114 101 147 272zM588 933q-184 0 -251 -180q-35 -94 -35 -218q0 -247 108 -341l215 737q-23 2 -37 2zM588 953q17 0 51 -3q12 -1 9 -13l-223 -763q-4 -14 -16 -5q-127 95 -127 366q0 277 147 371q74 47 159 47z" />
    <glyph glyph-name="sterling" unicode="&#xa3;" 
d="M298 209q61 14 114 14q84 0 189 -25q171 -41 231 -41q73 0 188 55q9 4 13 -6l58 -165q3 -9 -5 -12q-153 -64 -247 -64q-75 0 -220 45t-221 45q-154 0 -297 -91q-2 -2 -5 -2q-8 0 -44 92l-34 87q-4 8 4 13q155 86 206 244q19 59 19 139q0 56 -15 114h-188q-10 0 -10 10
v148q0 10 10 10h141q-48 164 -48 254q0 196 132 313q127 113 325 115q190 2 311 -99.5t149 -288.5q2 -15 -43 -20q-18 -1 -55 -4q-109 -15 -80 -15q-20 0 -21 10q-14 110 -80 177q-70 72 -178 72q-104 0 -175 -64q-73 -67 -73 -170q0 -105 46 -254l8 -26h308q10 0 10 -10
v-148q0 -10 -10 -10h-269q14 -39 14 -78q0 -184 -158 -364zM1069 44l-51 145q-113 -52 -186 -52q-64 0 -235 41q-105 25 -185 25q-60 0 -137 -21q-8 -2 -16 2q-7 4 2 14q175 186 175 375q0 42 -18 84q-2 4 -2 7q0 7 11 7h274v128h-305q-8 0 -20 40q-47 158 -47 260
q0 111 79 184q77 70 189 70t188 -74q72 -70 89 -183l159 24q-29 176 -144.5 269.5t-294.5 91.5q-190 -2 -311 -109q-126 -112 -126 -299q0 -86 51 -261q4 -13 -10 -13h-144v-128h186q27 0 27 -134q0 -264 -227 -396l61 -154q144 88 297 88q76 0 222 -45t219 -45q91 0 230 59
z" />
    <glyph glyph-name="currency" unicode="&#xa4;" 
d="M1007 288q-60 -62 -64 -63q-6 0 -48 42l-94 95q-105 -70 -236 -70q-130 0 -236 70l-94 -95q-42 -42 -47 -42q-44 0 -84 41t-40 86q0 6 38 43l98 96q-68 110 -68 235q0 124 68 234l-133 130q-2 3 -3 6q0 6 60 68t64 62q5 0 48 -43l93 -93q106 69 236 69q131 0 236 -69
l93 93q43 43 48 43q2 0 63.5 -62.5t61.5 -64.5q0 -6 -38 -43l-98 -96q68 -110 68 -234q0 -125 -68 -235l98 -95q38 -37 38 -44q-9 -11 -60 -64zM1043 354l-132 129q-6 6 -1 12q69 108 69 231q0 122 -69 230q-5 6 1 12l132 129l-102 105l-132 -132q-6 -6 -13 -1
q-102 70 -231 70q-128 0 -231 -70q-7 -5 -13 1l-132 132l-101 -105l132 -129q6 -6 1 -12q-69 -108 -69 -230q0 -123 69 -231q5 -6 -1 -12l-132 -129l101 -105l132 133q6 6 13 1q103 -71 231 -71q129 0 231 71q7 5 13 -1l132 -133zM564 476q105 0 177 72.5t72 177.5
q0 104 -71 176.5t-175 72.5h-3q-104 0 -176.5 -72.5t-72.5 -176.5q0 -105 72 -177.5t177 -72.5zM295 726q0 113 78 191t191 78h3q111 0 188.5 -79t77.5 -190q0 -113 -78 -191.5t-191 -78.5t-191 78.5t-78 191.5z" />
    <glyph glyph-name="yen" unicode="&#xa5;" 
d="M745 765h324q10 0 10 -10v-148q0 -10 -10 -10h-402v-123h402q10 0 10 -10v-139q0 -10 -10 -10h-402v-315q0 -10 -10 -10h-180q-10 0 -10 10v315h-405q-10 0 -10 10v139q0 10 10 10h405v123h-405q-10 0 -10 10v148q0 10 10 10h324l-398 696q-9 15 9 15h200q7 -2 9 -5
l202 -360q82 -145 155 -290q30 63 73 143l274 507q2 4 9 5h214q18 0 9 -15zM1116 1456h-191l-271 -502q-61 -112 -82 -162q-9 -22 -18 0q-24 60 -164 309l-199 355h-177l398 -696q9 -15 -9 -15h-331v-128h405q10 0 10 -10v-143q0 -10 -10 -10h-405v-119h405q10 0 10 -10
v-315h160v315q0 10 10 10h402v119h-402q-10 0 -10 10v143q0 10 10 10h402v128h-331q-18 0 -9 15z" />
    <glyph glyph-name="brokenbar" unicode="&#xa6;" horiz-adv-x="532" 
d="M355 701q0 -10 -10 -10h-157q-10 0 -10 10v790q0 10 10 10h157q10 0 10 -10v-790zM335 1481h-137v-770h137v770zM188 -441q-10 0 -10 10v791q0 10 10 10h157q10 0 10 -10v-791q0 -10 -10 -10h-157zM198 -421h137v771h-137v-771z" />
    <glyph glyph-name="section" unicode="&#xa7;" 
d="M979 264q-40 -44 -142 -89q150 -120 150 -278q0 -98 -54.5 -177t-145.5 -119q-96 -42 -207 -42q-200 0 -315 103l-2 1q-108 97 -130 266q-2 15 44 20q18 1 54 4l92 13q9 1 11 -8q24 -114 75 -167q58 -60 169 -60q120 18 154 49q54 49 54 115q0 47 -34 88q-48 58 -197 154
q-76 48 -227 144q-257 165 -257 363q0 100 60 179q59 76 156 108q-120 120 -120 244q0 122 84 212q81 85 204 107q39 7 87 7q384 0 428 -356q2 -16 -46 -19q-19 0 -57 -2l-93 -9q-9 -1 -11 9q-36 209 -205 209q-108 0 -166 -72q-29 -36 -29 -77q0 -49 34 -90
q47 -57 359 -252q148 -93 204 -151q95 -99 95 -227q0 -117 -76 -200zM781 1136l168 17q-47 328 -407 328q-144 0 -245 -80q-110 -86 -110 -226q0 -120 126 -241q13 -12 -4 -17q-97 -28 -156 -100q-62 -75 -62 -173q0 -146 129 -260q40 -35 289 -194q207 -132 259 -195
q38 -46 38 -100q0 -73 -60.5 -128.5t-165.5 -55.5h-1q-209 0 -263 234l-162 -23q23 -155 122 -244l2 -1q110 -98 302 -98q239 0 339 157q48 76 48 161q0 155 -155 273q-14 10 2 17q109 45 151 91q70 77 70 186q0 121 -93 217q-51 53 -197 144l-195 122q-100 66 -133 97
q-74 69 -74 140q0 77 72 126q63 43 143 43q183 0 223 -217zM393 846q-139 -81 -139 -182q0 -105 164 -211q56 -34 202 -124q43 -27 109 -73q136 72 136 175q0 106 -199 234q-170 109 -273 181zM831 557q54 -65 54 -126q0 -118 -152 -196q-6 -3 -11 1q-88 55 -315 200
q-173 113 -173 228t155 203q6 3 13 -2q58 -46 135 -95q47 -29 140 -88q109 -71 154 -125z" />
    <glyph glyph-name="dieresis" unicode="&#xa8;" horiz-adv-x="682" 
d="M434 1260q-10 0 -10 10v205q0 10 10 10h188q10 0 10 -10v-205q0 -10 -10 -10h-188zM612 1465h-168v-185h168v185zM61 1260q-10 0 -10 10v205q0 10 10 10h188q10 0 10 -10v-205q0 -10 -10 -10h-188zM71 1465v-185l168 1v184h-168z" />
    <glyph glyph-name="copyright" unicode="&#xa9;" horiz-adv-x="1509" 
d="M1418 1122q104 -181 104 -386t-103 -384.5t-281 -278.5q-182 -101 -380 -101q-206 0 -384 102q-181 104 -280 282q-101 182 -101 380q0 207 104 386q105 183 285 280q184 99 376 99q203 0 381 -102t279 -277zM758 1481q-198 0 -372 -99t-272 -270q-101 -175 -101 -376
q0 -199 100.5 -374.5t273.5 -271.5q177 -98 371 -98q200 0 375 100t272 275.5t97 368.5q0 200 -101 376q-98 171 -271.5 270t-371.5 99zM224 1050q-86 -148 -86 -314t84 -311.5t228 -225.5q148 -82 308 -82q166 0 311.5 83.5t225.5 227.5q82 148 82 308q0 167 -85 314
t-230 226q-148 80 -304 80q-166 0 -309 -82t-225 -224zM445 1294q104 56 173 72q45 10 140 10q171 0 320.5 -86t232.5 -234q86 -154 86 -320q0 -172 -86 -321.5t-235 -232.5q-153 -85 -318 -85q-172 0 -322 86.5t-234 236.5t-84 316q0 173 88 324.5t239 233.5zM759 294
q-193 0 -302 126q-104 119 -104 314q0 199 107 315q110 121 307 121q279 0 351 -243q5 -16 -48 -27q-26 -5 -79 -15q-8 -2 -11 6q-60 147 -217 147q-126 0 -194 -94q-60 -82 -60 -213q0 -225 153 -284q41 -16 90 -16q88 0 152.5 50t85.5 135q2 8 12 8q10 -3 62 -18
q71 -21 69 -30q-32 -133 -133.5 -207.5t-240.5 -74.5zM1111 571l-52 15l-52 16q-25 -88 -94 -139.5t-161 -51.5q-132 0 -202 97q-61 85 -61 223q0 139 66 228q73 99 208 99q166 0 232 -151l100 24q-71 219 -328 219q-189 0 -293 -115q-101 -110 -101 -301q0 -186 98 -300
q104 -120 288 -120q129 0 224.5 67.5t127.5 189.5z" />
    <glyph glyph-name="ordfeminine" unicode="&#xaa;" horiz-adv-x="758" 
d="M570 754q-21 0 -30 79q-119 -97 -248 -97q-110 0 -180 58q-75 63 -75 171q0 152 152 202q31 10 257 45q40 7 78 17q-1 51 -9 71q-25 64 -138 64q-139 0 -156 -116q-2 -12 -12 -9l-137 34q-9 2 -8 11q15 112 112 169q81 48 203 48q309 0 309 -252v-240q0 -193 38 -239
q13 -16 -8 -16h-148zM699 774q-31 53 -31 235v240q0 133 -82 187q-67 45 -207 45q-260 0 -294 -190l118 -30q25 123 174 123q118 0 152 -64q16 -30 16 -83q0 -24 -9 -26q-51 -13 -244 -42q-235 -35 -235 -204q0 -100 69 -157q64 -52 166 -52q129 0 249 105q16 14 17 -8
q2 -43 18 -79h123zM343 1058q-137 -21 -137 -93q0 -89 120 -89q64 0 117 34.5t72 93.5q6 19 8 87q-60 -14 -180 -33zM339 1078q141 22 191 36q7 -2 13 -10q-1 -81 -12 -115q-20 -61 -81 -98q-57 -35 -124 -35q-56 0 -95 26q-45 30 -45 83q0 89 153 113z" />
    <glyph glyph-name="guillemotleft" unicode="&#xab;" 
d="M739 528l245 -423q16 -27 17 -35q0 -8 -10 -8h-152q-6 1 -8 4l-300 436q-18 25 -13 32l313 456q4 3 8 4h152q18 0 9 -15zM925 890l49 84h-130l-306 -446l306 -446h130l-256 441q-3 5 0 10l180 311q1 2 27 46zM352 528l240 -424q16 -29 17 -34q0 -8 -10 -8h-146
q-8 0 -21 23l-306 437q-1 3 -1 6q0 4 1 6l319 456q4 3 8 4h148q18 0 9 -15zM584 974h-126l-312 -446l312 -446h124l-251 441q-3 5 0 10z" />
    <glyph glyph-name="logicalnot" unicode="&#xac;" horiz-adv-x="1196" 
d="M1092 424q0 -10 -10 -10h-170q-10 0 -10 10v428h-788q-10 0 -10 10v168q0 10 10 10h968q10 0 10 -10v-606zM1072 1020h-948v-148h788q10 0 10 -10v-428h150v586z" />
    <glyph glyph-name="registered" unicode="&#xae;" horiz-adv-x="1509" 
d="M1418 1122q104 -181 104 -386t-103 -384.5t-281 -278.5q-182 -101 -380 -101q-206 0 -384 102q-181 104 -280 282q-101 182 -101 380q0 207 104 386q105 183 285 280q184 99 376 99q203 0 381 -102t279 -277zM758 1481q-198 0 -372 -99t-272 -270q-101 -175 -101 -376
q0 -199 100.5 -374.5t273.5 -271.5q177 -98 371 -98q200 0 375 100t272 275.5t97 368.5q0 200 -101 376q-98 171 -271.5 270t-371.5 99zM224 1050q-86 -148 -86 -314t84 -311.5t228 -225.5q148 -82 308 -82q166 0 311.5 83.5t225.5 227.5q82 148 82 308q0 167 -85 314
t-230 226q-148 80 -304 80q-166 0 -309 -82t-225 -224zM445 1294q104 56 173 72q45 10 140 10q171 0 320.5 -86t232.5 -234q86 -154 86 -320q0 -172 -86 -321.5t-235 -232.5q-153 -85 -318 -85q-221 0 -392.5 133t-227.5 347q-20 77 -20 159q0 173 88 324.5t239 233.5z
M856 676q52 -29 121 -128q8 -12 99 -157l20 -32q23 -37 23 -43q0 -7 -10 -7h-160q-7 2 -9 5q-56 104 -109.5 193t-96.5 121q-35 26 -99 26h-67v-335q0 -10 -10 -10h-131q-10 0 -10 10v812q0 10 10 10h279q120 0 178 -14q95 -24 143 -96q36 -56 36 -120q0 -90 -58.5 -154.5
t-148.5 -80.5zM706 1121h-269v-792h111v335q0 10 10 10h77q78 0 128 -44q32 -28 84 -112q17 -28 108 -189h136q-60 98 -99 159q-64 101 -109 144q-25 24 -66 41q-9 4 -8 11q2 7 11 8q95 7 157 65q66 61 66 154q0 63 -37 115q-45 64 -136 84q-51 11 -164 11zM568 1011v-225
h149q187 0 187 114q0 71 -69 98q-33 13 -128 13h-139zM902 970q22 -32 22 -70q0 -134 -207 -134h-159q-10 0 -10 10v245q0 10 10 10h149q153 0 195 -61z" />
    <glyph glyph-name="overscore" unicode="&#xaf;" horiz-adv-x="1131" 
d="M-41 1695q0 10 10 10h1193q10 0 10 -10v-129q0 -10 -10 -10h-1193q-10 0 -10 10v129zM-21 1685v-109h1173v109h-1173z" />
    <glyph glyph-name="degree" unicode="&#xb0;" horiz-adv-x="819" 
d="M693 1214v-2q0 -119 -84.5 -202.5t-203.5 -83.5t-203 83t-84 202v3q0 120 83.5 203.5t203.5 83.5q121 0 204.5 -83t83.5 -204zM405 1481q-112 0 -189.5 -77.5t-77.5 -189.5v-3q0 -111 78 -188t189 -77t189.5 77.5t78.5 188.5v2q0 113 -77.5 190t-190.5 77zM564 1223l-1 8
q-8 64 -51 102q-47 40 -108 40q-65 0 -111 -46.5t-46 -112.5v-8l1 -9q7 -62 51 -100q47 -42 107 -42q66 0 112 46.5t46 112.5v9zM584 1223v-9q0 -76 -51 -126q-54 -53 -127 -53q-68 0 -121 47q-49 43 -57 114l-1 9v9q0 78 54 129t129 50q66 -1 118 -48q47 -44 55 -113z" />
    <glyph glyph-name="plusminus" unicode="&#xb1;" horiz-adv-x="1124" 
d="M467 653h-389q-10 0 -10 10v167q0 10 10 10h389v389q0 10 10 10h170q10 0 10 -10v-389h389q10 0 10 -10v-167q0 -10 -10 -10h-389v-393q0 -10 -10 -10h-170q-10 0 -10 10v393zM487 663v-393h150v393q0 10 10 10h389v147h-389q-10 0 -10 10v389h-150v-389q0 -10 -10 -10
h-389v-147h389q10 0 10 -10zM1056 0q0 -10 -10 -10h-968q-10 0 -10 10v168q0 10 10 10h968q10 0 10 -10v-168zM1036 10v148h-948v-148h948z" />
    <glyph glyph-name="twosuperior" unicode="&#xb2;" horiz-adv-x="682" 
d="M25 723q-11 0 -10 11q14 135 258 312q144 104 170 133q34 38 34 77q0 100 -128 100q-64 0 -93.5 -22.5t-48.5 -84.5q-3 -9 -72 -1l-45 5q-7 1 -45 5q-12 1 -9 13q59 223 316 223q123 0 202 -44q100 -55 100 -169q0 -88 -61 -165q-43 -54 -207 -173q-62 -45 -99 -79h361
q10 0 10 -10v-121q0 -10 -10 -10h-623zM638 743v101h-376q-23 0 -7 17q39 40 119 98q161 116 203 169q57 72 57 153q0 193 -282 193q-236 0 -293 -197l131 -14q22 64 56.5 88.5t102.5 24.5q148 0 148 -120q0 -46 -40 -91q-29 -33 -172 -136q-228 -165 -249 -286h602z" />
    <glyph glyph-name="threesuperior" unicode="&#xb3;" horiz-adv-x="682" 
d="M342 705q-275 0 -319 222q-2 12 83 20l72 7q7 1 10 -7q35 -105 145 -105q60 0 101 31q46 34 46 92q0 100 -149 100q-9 0 -27.5 -1.5t-27.5 -1.5q-12 0 -12 28q0 21 9 57q11 45 25 45q146 -2 146 92q0 79 -109 79q-95 0 -133 -96q-3 -7 -11 -6l-143 23q-12 2 -7 14
q42 110 110 154q65 42 185 42q285 0 285 -197q0 -112 -115 -159q150 -50 150 -192q0 -118 -102 -184q-87 -57 -212 -57zM636 946q0 140 -165 181q-10 3 -10 10t9 10q131 37 131 150q0 177 -265 177q-109 0 -168 -36q-64 -38 -104 -136l123 -20q42 101 148 101q129 0 129 -99
q0 -111 -158 -112l-18 -90l9 1q18 2 34 2q169 0 169 -120q0 -66 -52 -106q-47 -37 -115 -37q-121 0 -161 111l-63 -6l-64 -7q47 -195 297 -195q115 0 197 51q97 61 97 170z" />
    <glyph glyph-name="acute" unicode="&#xb4;" horiz-adv-x="682" 
d="M574 1436l-195 -248q-4 -3 -8 -4h-149q-10 0 -10 9q2 6 14 32l114 240q9 19 15 19h236q11 0 11 -7q0 -5 -28 -41zM238 1204h128l204 260h-209l-74 -157q-8 -16 -49 -103z" />
    <glyph glyph-name="mu1" unicode="&#xb5;" horiz-adv-x="1180" 
d="M1028 0q0 -10 -10 -10h-161q-10 0 -10 10v94q-94 -129 -256 -129q-146 0 -243 114v-486q0 -10 -10 -10h-178q-10 0 -10 10v1469q0 10 10 10h178q10 0 10 -10v-450q0 -244 25 -314q54 -150 210 -150q75 0 136 40.5t86.5 109.5t25.5 311v453q0 10 10 10h177q10 0 10 -10
v-1062zM1008 10v1042h-157v-443q0 -245 -27 -317q-28 -75 -94 -119.5t-147 -44.5q-170 0 -228 163q-27 75 -27 321v440h-158v-1449h158v504q0 9 6 11t12 -5q101 -128 245 -128q162 0 258 146q5 8 11 6q7 -2 7 -11v-116h141z" />
    <glyph glyph-name="paragraph" unicode="&#xb6;" horiz-adv-x="1100" 
d="M973 1283v-1690q0 -10 -10 -10h-170q-10 0 -10 10v1690h-203v-1690q0 -10 -10 -10h-165q-10 0 -10 10v1036q-182 12 -291 122q-113 112 -113 293q0 215 137 328q127 104 346 104h633q10 0 10 -10v-173q0 -10 -10 -10h-134zM963 1303h134v153h-623q-211 0 -332 -98
q-131 -108 -131 -314q0 -177 110 -284q106 -102 285 -112q9 0 9 -10v-1035h145v1690q0 10 10 10h223q10 0 10 -10v-1690h150v1690q0 10 10 10z" />
    <glyph glyph-name="middot" unicode="&#xb7;" horiz-adv-x="682" 
d="M497 627q-10 0 -10 10v205q0 10 10 10h205q10 0 10 -10v-205q0 -10 -10 -10h-205zM507 647h185v185h-185v-185z" />
    <glyph glyph-name="cedilla" unicode="&#xb8;" horiz-adv-x="682" 
d="M251 -431q-82 0 -146 12q-9 2 -8 11l11 117q1 10 11 9q58 -4 93 -4q151 0 151 65q0 55 -147 57q-10 0 -10 11q5 16 28 96l24 83q3 7 10 7h134q10 0 10 -10q-4 -16 -30 -99q168 -24 168 -155q0 -104 -104 -158q-81 -42 -195 -42zM530 -231q0 118 -162 137q-9 1 -9 13
q4 13 29 94h-113l-46 -157q154 -4 154 -77q0 -85 -171 -85q17 0 -51 2l-34 1l-9 -98q58 -10 133 -10q105 0 181 37q98 48 98 143z" />
    <glyph glyph-name="onesuperior" unicode="&#xb9;" horiz-adv-x="682" 
d="M331 723q-10 0 -10 10v534q-98 -74 -211 -103q-13 -3 -13 10v123q0 7 7 10q153 49 256 183q4 3 8 4h108q10 0 10 -10v-751q0 -10 -10 -10h-145zM341 743h125v731h-93q-104 -131 -256 -184v-103q113 32 208 108q16 13 16 -8v-544z" />
    <glyph glyph-name="ordmasculine" unicode="&#xba;" horiz-adv-x="748" 
d="M373 1501q163 0 254 -114q84 -105 84 -272q0 -164 -85 -270q-91 -115 -252 -115q-163 0 -254 112q-85 103 -85 269q0 169 83 274q91 116 255 116zM55 1111q0 -158 79 -255q85 -106 240 -106q153 0 238 109q79 100 79 256q0 157 -79 257q-85 109 -239 109
q-156 0 -241 -110q-77 -99 -77 -260zM373 1348q-170 0 -170 -233t170 -233t170 238q0 228 -170 228zM563 1120q0 -258 -190 -258t-190 253t190 253t190 -248z" />
    <glyph glyph-name="guillemotright" unicode="&#xbb;" 
d="M686 66q-4 -3 -8 -4h-147q-18 0 -9 15l257 451l-258 451q-9 15 9 15h148q6 -1 8 -4l306 -438q17 -24 13 -30zM985 528l-312 446h-126l253 -441q3 -5 0 -10l-252 -441h125zM299 66q-4 -3 -8 -4h-151q-18 0 -9 15l261 451l-261 451q-9 15 9 15h151q6 -1 8 -4l302 -438
q16 -24 12 -30zM593 528l-307 446h-129l256 -441q1 -3 1 -5q0 -3 -1 -5l-256 -441h129z" />
    <glyph glyph-name="onequarter" unicode="&#xbc;" horiz-adv-x="1708" 
d="M1584 113v-144q0 -10 -10 -10h-144q-10 0 -10 10v144h-373q-10 0 -10 10v123q1 4 2 6l405 474q5 3 8 4h122q10 0 10 -10v-479h94q10 0 10 -10v-108q0 -10 -10 -10h-94zM1668 133v88h-94q-10 0 -10 10v479h-107l-400 -468v-109h373q10 0 10 -10v-144h124v144q0 10 10 10
h94zM1420 467l-198 -226h198v226zM1420 498q20 23 20 -4v-263q0 -10 -10 -10h-230q-23 0 -8 17zM417 -63q-4 -3 -8 -4h-157q-20 0 -6 19l1100 1545q4 3 8 4h156q19 0 8 -16zM271 -47h133l1087 1528h-132zM331 723q-10 0 -10 10v534q-98 -74 -211 -103q-13 -3 -13 10v123
q0 7 7 10q153 49 256 183q4 3 8 4h108q10 0 10 -10v-751q0 -10 -10 -10h-145zM466 743v731h-93q-104 -131 -256 -184v-103q113 32 208 108q16 13 16 -8v-544h125z" />
    <glyph glyph-name="onehalf" unicode="&#xbd;" horiz-adv-x="1708" 
d="M1049 -41q-11 0 -10 11q15 135 258 311q142 103 170 134q34 38 34 77q0 99 -128 99q-63 0 -93 -22.5t-49 -83.5q-3 -8 -11 -7l-151 15q-12 1 -9 13q58 224 316 224q123 0 202 -44q100 -55 100 -169q0 -88 -61 -165q-46 -58 -206 -174q-66 -48 -100 -78h361q10 0 10 -10
v-121q0 -10 -10 -10h-623zM1662 -21v101h-376q-14 0 -14 6q0 4 7 11q35 35 120 97q159 116 202 170q57 72 57 153q0 193 -282 193q-236 0 -293 -198l131 -13q22 63 57 87.5t102 24.5q148 0 148 -119q0 -46 -40 -91q-29 -33 -172 -136q-227 -164 -248 -286h601zM393 -63
q-4 -3 -8 -4h-157q-20 0 -6 19l1099 1545q4 3 8 4h157q19 0 8 -16zM247 -47h133l1087 1528h-133zM331 723q-10 0 -10 10v534q-98 -74 -211 -103q-13 -3 -13 10v123q0 7 7 10q153 49 256 183q4 3 8 4h108q10 0 10 -10v-751q0 -10 -10 -10h-145zM466 743v731h-93
q-104 -131 -256 -184v-103q113 32 208 108q16 13 16 -8v-544h125z" />
    <glyph glyph-name="threequarters" unicode="&#xbe;" horiz-adv-x="1708" 
d="M1584 113v-144q0 -10 -10 -10h-145q-10 0 -10 10v144h-372q-10 0 -10 10v123q1 4 2 6l404 474q5 3 8 4h123q10 0 10 -10v-479h94q10 0 10 -10v-108q0 -10 -10 -10h-94zM1439 -21h125v144q0 10 10 10h94v88h-94q-10 0 -10 10v479h-108l-399 -468v-109h372q10 0 10 -10
v-144zM1419 467l-197 -226h197v226zM1419 498q20 23 20 -4v-263q0 -10 -10 -10h-229q-23 0 -8 17zM417 -63q-4 -3 -8 -4h-157q-20 0 -7 18l1100 1546q4 3 8 4h157q19 0 8 -16zM271 -47h133l1087 1528h-133zM574 777q-56 -50 -109 -63q-35 -9 -123 -9q-274 0 -319 222
q-2 11 9 12l146 15q8 1 21 -31q15 -37 38 -53q40 -28 96 -28q60 0 101 31q46 34 46 92q0 103 -146 100q-26 0 -38 -1l-20 -2q-12 0 -12 28q0 21 9 57q11 45 25 45q146 -2 146 92q0 79 -109 79q-95 0 -133 -96q-3 -7 -11 -6l-143 23q-12 2 -7 14q42 110 110 154q65 42 185 42
q285 0 285 -197q0 -112 -115 -159q150 -50 150 -192q0 -98 -82 -169zM560 792q52 45 67 80q9 23 9 74q0 140 -165 181q-10 3 -10 10t9 10q131 37 131 150q0 177 -265 177q-109 0 -168 -36q-64 -38 -104 -136l123 -20q42 101 148 101q129 0 129 -99q0 -111 -158 -112l-18 -89
q25 2 45 2q167 0 167 -120q0 -66 -52 -106q-47 -37 -115 -37q-121 0 -161 111l-127 -13q47 -195 297 -195q142 0 218 67z" />
    <glyph glyph-name="questiondown" unicode="&#xbf;" horiz-adv-x="1251" 
d="M518 1062q0 10 10 10h205q10 0 10 -10v-205q0 -10 -10 -10h-205q-10 0 -10 10v205zM723 867v185h-185v-185h185zM629 -439q-198 0 -333 104q-148 114 -148 306q0 116 67 215q35 52 157 164q111 103 135 152q28 57 31 199q0 10 10 10h173q10 0 10 -10l1 -51
q0 -150 -59 -249q-44 -73 -175 -188q-73 -64 -99 -99q-46 -62 -46 -131q0 -78 47 -142.5t121 -93.5q47 -18 105 -18q237 0 283 288q1 9 25 9t77 -11l57 -3q47 -3 45 -19q-25 -206 -151 -319t-333 -113zM1092 -15l-82 10q-13 1 -83 9q-50 -295 -301 -295q-120 0 -205 78
q-88 79 -88 196q0 74 47 139q30 41 105 107q127 112 169 180q58 95 58 241q0 14 -1 41h-153q-4 -141 -35 -202q-27 -54 -136 -153q-120 -108 -154 -158q-65 -94 -65 -207q0 -182 143 -291q130 -99 318 -99q196 0 316 105t147 299z" />
    <glyph glyph-name="Agrave" unicode="&#xc0;" horiz-adv-x="1366" 
d="M1148 -10q-7 0 -9 6l-169 438h-599l-159 -437q-3 -7 -9 -7h-206q-9 0 -9 9q0 4 24 67l539 1404q2 6 9 6h208q5 -3 109 -248q78 -182 255 -610l246 -614q6 -14 -9 -14h-221zM768 1456h-201l-555 -1446h184l159 437q3 7 9 7h613q7 0 9 -6l169 -438h199l-147 359
q-442 1080 -439 1087zM748 1021q-49 129 -86 250q-31 -142 -105 -338q-25 -65 -123 -321h483l-9 -14zM925 608q6 -16 -8 -16h-497q-14 0 -9 14l132 346q75 201 107 362q2 9 10 10q7 0 10 -9q35 -121 97 -287l6 -16zM679 1546q-5 1 -8 4l-207 251q-27 33 -27 38q0 7 11 7h241
q7 -2 9 -6l135 -280q7 -14 -9 -14h-145zM808 1566l-125 260h-214l215 -260h124z" />
    <glyph glyph-name="Aacute" unicode="&#xc1;" horiz-adv-x="1366" 
d="M1148 -10q-7 0 -9 6l-169 438h-599l-159 -437q-3 -7 -9 -7h-206q-9 0 -9 9q0 4 24 67l539 1404q2 6 9 6h208q5 -3 109 -248q78 -182 255 -610l246 -614q6 -14 -9 -14h-221zM768 1456h-201l-555 -1446h184l159 437q3 7 9 7h613q7 0 9 -6l169 -438h199l-147 359
q-442 1080 -439 1087zM748 1021q-49 129 -86 250q-31 -142 -105 -338q-25 -65 -123 -321h483l-9 -14zM925 608q6 -16 -8 -16h-497q-14 0 -9 14l132 346q75 201 107 362q2 9 10 10q7 0 10 -9q35 -121 97 -287l6 -16zM893 1798l-195 -248q-4 -3 -8 -4h-149q-10 0 -10 9
q2 6 14 32l114 240q9 19 15 19h236q11 0 11 -7q0 -5 -28 -41zM557 1566h128l204 260h-209l-74 -157q-8 -16 -49 -103z" />
    <glyph glyph-name="Acircumflex" unicode="&#xc2;" horiz-adv-x="1366" 
d="M1148 -10q-7 0 -9 6l-169 438h-599l-159 -437q-3 -7 -9 -7h-206q-9 0 -9 9q0 4 24 67l539 1404q2 6 9 6h208q5 -3 109 -248q78 -182 255 -610l246 -614q6 -14 -9 -14h-221zM768 1456h-201l-555 -1446h184l159 437q3 7 9 7h613q7 0 9 -6l169 -438h199l-147 359
q-442 1080 -439 1087zM748 1021q-49 129 -86 250q-31 -142 -105 -338q-25 -65 -123 -321h483l-9 -14zM925 608q6 -16 -8 -16h-497q-14 0 -9 14l132 346q75 201 107 362q2 9 10 10q7 0 10 -9q35 -121 97 -287l6 -16zM774 1546q-6 1 -8 5l-102 157l-105 -158q-4 -3 -8 -4h-206
q-20 0 -8 16l199 258q20 26 25 26h192q5 -1 8 -4l191 -238q37 -46 37 -51q0 -7 -11 -7h-204zM957 1566l-209 260h-182l-201 -260h181l110 166q4 5 7 6q6 0 57 -80l59 -92h178z" />
    <glyph glyph-name="Atilde" unicode="&#xc3;" horiz-adv-x="1366" 
d="M1148 -10q-7 0 -9 6l-169 438h-599l-159 -437q-3 -7 -9 -7h-206q-9 0 -9 9q0 4 24 67l539 1404q2 6 9 6h208q5 -3 109 -248q78 -182 255 -610l246 -614q6 -14 -9 -14h-221zM768 1456h-201l-555 -1446h184l159 437q3 7 9 7h613q7 0 9 -6l169 -438h199l-147 359
q-442 1080 -439 1087zM748 1021q-49 129 -86 250q-31 -142 -105 -338q-25 -65 -123 -321h483l-9 -14zM925 608q6 -16 -8 -16h-497q-14 0 -9 14l132 346q75 201 107 362q2 9 10 10q7 0 10 -9q35 -121 97 -287l6 -16zM1015 1694q-43 -145 -193 -145q-53 0 -147 46t-117 46
q-66 0 -66 -77v-8q0 -10 -10 -10h-133q-15 0 -7 58q12 84 69 137t141 53q53 0 190 -63q45 -21 73 -21q51 0 62 69l1 6q2 12 10 12h130q11 0 11 -23q0 -33 -14 -80zM896 1776q-13 -86 -81 -86q-36 0 -117 40q-90 44 -146 44q-85 0 -137 -56q-56 -60 -56 -140v-12h113
q2 95 86 95q28 0 121.5 -46t142.5 -46q176 0 186 208z" />
    <glyph glyph-name="Adieresis" unicode="&#xc4;" horiz-adv-x="1366" 
d="M1148 -10q-7 0 -9 6l-169 438h-599l-159 -437q-3 -7 -9 -7h-206q-9 0 -9 9q0 4 24 67l539 1404q2 6 9 6h208q5 -3 109 -248q78 -182 255 -610l246 -614q6 -14 -9 -14h-221zM768 1456h-201l-555 -1446h184l159 437q3 7 9 7h613q7 0 9 -6l169 -438h199l-147 359
q-442 1080 -439 1087zM748 1021q-49 129 -86 250q-31 -142 -105 -338q-25 -65 -123 -321h483l-9 -14zM925 608q6 -16 -8 -16h-497q-14 0 -9 14l132 346q75 201 107 362q2 9 10 10q7 0 10 -9q35 -121 97 -287l6 -16zM752 1546q-10 0 -10 10v205q0 10 10 10h188q10 0 10 -10
v-205q0 -10 -10 -10h-188zM930 1751h-168v-185h168v185zM379 1546q-10 0 -10 10v205q0 10 10 10h188q10 0 10 -10v-205q0 -10 -10 -10h-188zM389 1751v-185l168 1v184h-168z" />
    <glyph glyph-name="Aring" unicode="&#xc5;" horiz-adv-x="1366" 
d="M1148 -10q-7 0 -9 6l-169 438h-599l-159 -437q-3 -7 -9 -7h-206q-9 0 -9 9q0 4 24 67l539 1404q2 6 9 6h208q5 -3 109 -248q78 -182 255 -610l246 -614q6 -14 -9 -14h-221zM768 1456h-201l-555 -1446h184l159 437q3 7 9 7h613q7 0 9 -6l169 -438h199l-147 359
q-442 1080 -439 1087zM748 1021q-49 129 -86 250q-31 -142 -105 -338q-25 -65 -123 -321h483l-9 -14zM925 608q6 -16 -8 -16h-497q-14 0 -9 14l132 346q75 201 107 362q2 9 10 10q7 0 10 -9q35 -121 97 -287l6 -16zM662 1404q-83 0 -137 57t-54 140v2q0 77 56 132t134 55
q80 0 135 -56.5t55 -136.5t-54.5 -136.5t-134.5 -56.5zM831 1597q0 72 -49 122.5t-121 50.5q-69 0 -119.5 -49t-50.5 -118v-2q0 -75 48.5 -126t122.5 -51q71 0 120 50.5t49 122.5zM567 1600q0 -41 27.5 -71t68.5 -30q40 0 68 29.5t28 69.5q0 41 -27.5 70t-68.5 29
q-40 0 -68 -28.5t-28 -68.5zM663 1717q49 0 82.5 -35t33.5 -84t-33.5 -84t-82.5 -35q-50 0 -83 35.5t-33 85.5q0 48 34 82.5t82 34.5z" />
    <glyph glyph-name="AE" unicode="&#xc6;" horiz-adv-x="2048" 
d="M1919 1293q0 -10 -10 -10h-727v-431h675q10 0 10 -10v-172q0 -10 -10 -10h-675v-477h754q10 0 10 -10v-173q0 -10 -10 -10h-959q-10 0 -10 10v413h-550l-197 -417q-2 -5 -9 -6h-210q-16 0 -9 14l705 1466q2 5 9 6h1203q10 0 10 -10v-173zM1899 1456h-1187l-695 -1446h188
l197 417q2 5 9 6h566q10 0 10 -10v-413h939v153h-754q-10 0 -10 10v497q0 10 10 10h675v152h-675q-10 0 -10 10v451q0 10 10 10h727v153zM838 1283l-329 -678h458v678h-129zM832 1303h145q10 0 10 -10v-698q0 -10 -10 -10h-484q-16 0 -9 14l339 698q2 5 9 6z" />
    <glyph glyph-name="Ccedilla" unicode="&#xc7;" horiz-adv-x="1479" 
d="M1383 1067q3 -10 -8 -13l-191 -45q-9 -2 -12 7q-95 299 -382 299q-335 0 -433 -292q-45 -133 -45 -278q0 -395 219 -526q113 -68 244 -68q340 0 419 365q2 8 15 8q8 -3 78 -21q42 -3 117 -30q4 -2 4 -8l-2 -8l-2 -9q-49 -221 -220 -357q-159 -126 -393 -126
q-459 0 -621 382q-78 184 -78 397v1q0 278 128 470q138 207 399 267q83 19 175 19q220 0 373.5 -112t215.5 -322zM1386 458l-174 44q-41 -173 -149 -269q-114 -102 -288 -102q-147 0 -261 74.5t-167 209.5q-55 141 -55 330q0 373 220 515q116 75 278 75q298 0 399 -304
l171 40q-60 199 -209 306q-147 104 -357 104q-193 0 -348 -86q-163 -90 -248.5 -257t-85.5 -393v-1q0 -202 69 -371q79 -195 230 -293q146 -95 380 -95q227 0 382.5 123t211.5 346zM655 -431q-82 0 -146 12q-9 2 -8 11l11 117q1 10 11 9q58 -4 93 -4q151 0 151 65
q0 55 -147 57q-10 0 -10 11q5 16 28 96l24 83q3 7 10 7h134q10 0 10 -10q-4 -16 -30 -99q168 -24 168 -155q0 -104 -104 -158q-81 -42 -195 -42zM934 -231q0 118 -162 137q-9 1 -9 13q4 13 29 94h-113l-46 -157q154 -4 154 -77q0 -85 -171 -85q17 0 -51 2l-34 1l-9 -98
q58 -10 133 -10q105 0 181 37q98 48 98 143z" />
    <glyph glyph-name="Egrave" unicode="&#xc8;" horiz-adv-x="1366" 
d="M366 662v-479h890q10 0 10 -10v-173q0 -10 -10 -10h-1094q-10 0 -10 10v1466q0 10 10 10h1060q10 0 10 -10v-173q0 -10 -10 -10h-856v-429h801q10 0 10 -10v-172q0 -10 -10 -10h-801zM1212 1456h-1040v-1446h1074v153h-890q-10 0 -10 10v499q0 10 10 10h801v152h-801
q-10 0 -10 10v449q0 10 10 10h856v153zM705 1546q-5 1 -8 4l-207 251q-27 33 -27 38q0 7 11 7h241q7 -2 9 -6l135 -280q7 -14 -9 -14h-145zM834 1566l-125 260h-214l215 -260h124z" />
    <glyph glyph-name="Eacute" unicode="&#xc9;" horiz-adv-x="1366" 
d="M366 662v-479h890q10 0 10 -10v-173q0 -10 -10 -10h-1094q-10 0 -10 10v1466q0 10 10 10h1060q10 0 10 -10v-173q0 -10 -10 -10h-856v-429h801q10 0 10 -10v-172q0 -10 -10 -10h-801zM1212 1456h-1040v-1446h1074v153h-890q-10 0 -10 10v499q0 10 10 10h801v152h-801
q-10 0 -10 10v449q0 10 10 10h856v153zM914 1798l-195 -248q-4 -3 -8 -4h-149q-10 0 -10 9q2 6 14 32l114 240q9 19 15 19h236q11 0 11 -7q0 -5 -28 -41zM578 1566h128l204 260h-209l-74 -157q-8 -16 -49 -103z" />
    <glyph glyph-name="Ecircumflex" unicode="&#xca;" horiz-adv-x="1366" 
d="M366 662v-479h890q10 0 10 -10v-173q0 -10 -10 -10h-1094q-10 0 -10 10v1466q0 10 10 10h1060q10 0 10 -10v-173q0 -10 -10 -10h-856v-429h801q10 0 10 -10v-172q0 -10 -10 -10h-801zM1212 1456h-1040v-1446h1074v153h-890q-10 0 -10 10v499q0 10 10 10h801v152h-801
q-10 0 -10 10v449q0 10 10 10h856v153zM817 1546q-6 1 -8 5l-102 157l-105 -158q-4 -3 -8 -4h-206q-20 0 -8 16l199 258q20 26 25 26h192q5 -1 8 -4l191 -238q37 -46 37 -51q0 -7 -11 -7h-204zM1000 1566l-209 260h-182l-201 -260h181l110 166q4 5 7 6q6 0 57 -80l59 -92
h178z" />
    <glyph glyph-name="Edieresis" unicode="&#xcb;" horiz-adv-x="1366" 
d="M366 662v-479h890q10 0 10 -10v-173q0 -10 -10 -10h-1094q-10 0 -10 10v1466q0 10 10 10h1060q10 0 10 -10v-173q0 -10 -10 -10h-856v-429h801q10 0 10 -10v-172q0 -10 -10 -10h-801zM1212 1456h-1040v-1446h1074v153h-890q-10 0 -10 10v499q0 10 10 10h801v152h-801
q-10 0 -10 10v449q0 10 10 10h856v153zM798 1546q-10 0 -10 10v205q0 10 10 10h188q10 0 10 -10v-205q0 -10 -10 -10h-188zM976 1751h-168v-185h168v185zM425 1546q-10 0 -10 10v205q0 10 10 10h188q10 0 10 -10v-205q0 -10 -10 -10h-188zM435 1751v-185l168 1v184h-168z
" />
    <glyph glyph-name="Igrave" unicode="&#xcc;" horiz-adv-x="569" 
d="M385 1476q10 0 10 -10v-1466q0 -10 -10 -10h-194q-10 0 -10 10v1466q0 10 10 10h194zM375 1456h-184l10 10v-1456h174v1446zM285 1546q-5 1 -8 4l-207 251q-27 33 -27 38q0 7 11 7h241q7 -2 9 -6l135 -280q7 -14 -9 -14h-145zM414 1566l-125 260h-214l215 -260h124z" />
    <glyph glyph-name="Iacute" unicode="&#xcd;" horiz-adv-x="569" 
d="M385 1476q10 0 10 -10v-1466q0 -10 -10 -10h-194q-10 0 -10 10v1466q0 10 10 10h194zM375 1456h-184l10 10v-1456h174v1446zM493 1798l-195 -248q-4 -3 -8 -4h-149q-10 0 -10 9q2 6 14 32l114 240q9 19 15 19h236q11 0 11 -7q0 -5 -28 -41zM157 1566h128l204 260h-209
l-74 -157q-8 -16 -49 -103z" />
    <glyph glyph-name="Icircumflex" unicode="&#xce;" horiz-adv-x="569" 
d="M385 1476q10 0 10 -10v-1466q0 -10 -10 -10h-194q-10 0 -10 10v1466q0 10 10 10h194zM375 1456h-184l10 10v-1456h174v1446zM397 1546q-6 1 -8 5l-102 157l-105 -158q-4 -3 -8 -4h-206q-20 0 -8 16l199 258q20 26 25 26h192q5 -1 8 -4l191 -238q37 -46 37 -51
q0 -7 -11 -7h-204zM580 1566l-209 260h-182l-201 -260h181l110 166q4 5 7 6q6 0 57 -80l59 -92h178z" />
    <glyph glyph-name="Idieresis" unicode="&#xcf;" horiz-adv-x="569" 
d="M385 1476q10 0 10 -10v-1466q0 -10 -10 -10h-194q-10 0 -10 10v1466q0 10 10 10h194zM375 1456h-184l10 10v-1456h174v1446zM377 1546q-10 0 -10 10v205q0 10 10 10h188q10 0 10 -10v-205q0 -10 -10 -10h-188zM555 1751h-168v-185h168v185zM4 1546q-10 0 -10 10v205
q0 10 10 10h188q10 0 10 -10v-205q0 -10 -10 -10h-188zM14 1751v-185l168 1v184h-168z" />
    <glyph glyph-name="Eth" unicode="&#xd0;" horiz-adv-x="1479" 
d="M926 1455q234 -54 353 -269q101 -183 101 -445q0 -226 -72 -390q-121 -276 -405 -344q-71 -17 -216 -17h-529q-10 0 -10 10v657h-151q-10 0 -10 10v132q0 10 10 10h151v657q0 10 10 10h506q171 0 262 -21zM922 1435q-91 21 -258 21h-496v-657q0 -10 -10 -10h-151v-112
h151q10 0 10 -10v-657h519q275 0 436 119q122 90 185 278q52 156 52 334q0 254 -97 432q-115 210 -341 262zM362 1283v-474h394q10 0 10 -10v-132q0 -10 -10 -10h-394v-474h303q188 0 285 52q210 113 210 508q0 297 -136 433q-69 69 -169 92q-66 15 -195 15h-298zM352 1303
h308q135 0 203 -16q102 -24 175 -97q142 -142 142 -447q0 -325 -150 -475q-105 -105 -365 -105h-313q-10 0 -10 10v494q0 10 10 10h394v112h-394q-10 0 -10 10v494q0 10 10 10z" />
    <glyph glyph-name="Ntilde" unicode="&#xd1;" horiz-adv-x="1479" 
d="M352 1119v-1119q0 -10 -10 -10h-186q-10 0 -10 10v1466q0 10 10 10h199q6 -1 8 -4l752 -1124v1118q0 10 10 10h186q10 0 10 -10v-1466q0 -10 -10 -10h-199q-6 1 -8 4zM166 1456v-1446h166v1142q0 9 7 11q6 2 11 -5l767 -1148h184v1446h-166v-1141q0 -9 -7 -11
q-6 -2 -11 5l-767 1147h-184zM1096 1694q-43 -145 -193 -145q-53 0 -147 46t-117 46q-66 0 -66 -77v-8q0 -10 -10 -10h-133q-15 0 -7 58q12 84 69 137t141 53q53 0 190 -63q45 -21 73 -21q51 0 62 69l1 6q2 12 10 12h130q11 0 11 -23q0 -33 -14 -80zM977 1776
q-13 -86 -81 -86q-36 0 -117 40q-90 44 -146 44q-85 0 -137 -56q-56 -60 -56 -140v-12h113q2 95 86 95q28 0 121.5 -46t142.5 -46q176 0 186 208z" />
    <glyph glyph-name="Ograve" unicode="&#xd2;" horiz-adv-x="1593" 
d="M1172 1404q339 -202 339 -673q0 -215 -83 -387q-92 -191 -267 -287q-168 -92 -361 -92q-318 0 -518 217q-193 211 -193 532v3q0 343 182 557q193 228 530 228q206 0 371 -98zM1162 1386q-162 96 -361 96q-246 0 -423 -134t-238 -371q-31 -120 -31 -260v-3
q0 -313 187 -518q194 -211 504 -211q195 0 353 90q164 94 251 264.5t87 391.5q0 460 -329 655zM455 1177q-101 -96 -128 -203q-18 -72 -18 -263q0 -238 124 -393q134 -167 366 -167q241 0 373 175q119 157 119 406q0 364 -233 511q-114 72 -255 72h-1q-202 0 -347 -138z
M441 1191q104 99 185 126q53 18 176 18h1q149 0 267.5 -75.5t179.5 -211t61 -316.5q0 -258 -125 -421q-137 -180 -387 -180q-173 0 -301.5 97t-178.5 263q-30 99 -30 220q0 335 152 480zM771 1546q-5 1 -8 4l-207 251q-27 33 -27 38q0 7 11 7h241q7 -2 9 -6l135 -280
q7 -14 -9 -14h-145zM900 1566l-125 260h-214l215 -260h124z" />
    <glyph glyph-name="Oacute" unicode="&#xd3;" horiz-adv-x="1593" 
d="M1172 1404q339 -202 339 -673q0 -215 -83 -387q-92 -191 -267 -287q-168 -92 -361 -92q-318 0 -518 217q-193 211 -193 532v3q0 343 182 557q193 228 530 228q206 0 371 -98zM1162 1386q-162 96 -361 96q-246 0 -423 -134t-238 -371q-31 -120 -31 -260v-3
q0 -313 187 -518q194 -211 504 -211q195 0 353 90q164 94 251 264.5t87 391.5q0 460 -329 655zM455 1177q-101 -96 -128 -203q-18 -72 -18 -263q0 -238 124 -393q134 -167 366 -167q241 0 373 175q119 157 119 406q0 364 -233 511q-114 72 -255 72h-1q-202 0 -347 -138z
M441 1191q104 99 185 126q53 18 176 18h1q149 0 267.5 -75.5t179.5 -211t61 -316.5q0 -258 -125 -421q-137 -180 -387 -180q-173 0 -301.5 97t-178.5 263q-30 99 -30 220q0 335 152 480zM1029 1798l-195 -248q-4 -3 -8 -4h-149q-10 0 -10 9q2 6 14 32l114 240q9 19 15 19
h236q11 0 11 -7q0 -5 -28 -41zM693 1566h128l204 260h-209l-74 -157q-8 -16 -49 -103z" />
    <glyph glyph-name="Ocircumflex" unicode="&#xd4;" horiz-adv-x="1593" 
d="M1172 1404q339 -202 339 -673q0 -215 -83 -387q-92 -191 -267 -287q-168 -92 -361 -92q-318 0 -518 217q-193 211 -193 532v3q0 343 182 557q193 228 530 228q206 0 371 -98zM1162 1386q-162 96 -361 96q-246 0 -423 -134t-238 -371q-31 -120 -31 -260v-3
q0 -313 187 -518q194 -211 504 -211q195 0 353 90q164 94 251 264.5t87 391.5q0 460 -329 655zM455 1177q-101 -96 -128 -203q-18 -72 -18 -263q0 -238 124 -393q134 -167 366 -167q241 0 373 175q119 157 119 406q0 364 -233 511q-114 72 -255 72h-1q-202 0 -347 -138z
M441 1191q104 99 185 126q53 18 176 18h1q149 0 267.5 -75.5t179.5 -211t61 -316.5q0 -258 -125 -421q-137 -180 -387 -180q-173 0 -301.5 97t-178.5 263q-30 99 -30 220q0 335 152 480zM908 1546q-6 1 -8 5l-102 157l-105 -158q-4 -3 -8 -4h-206q-20 0 -8 16l199 258
q20 26 25 26h192q5 -1 8 -4l191 -238q37 -46 37 -51q0 -7 -11 -7h-204zM1091 1566l-209 260h-182l-201 -260h181l110 166q4 5 7 6q6 0 57 -80l59 -92h178z" />
    <glyph glyph-name="Otilde" unicode="&#xd5;" horiz-adv-x="1593" 
d="M1172 1404q339 -202 339 -673q0 -215 -83 -387q-92 -191 -267 -287q-168 -92 -361 -92q-318 0 -518 217q-193 211 -193 532v3q0 343 182 557q193 228 530 228q206 0 371 -98zM1162 1386q-162 96 -361 96q-246 0 -423 -134t-238 -371q-31 -120 -31 -260v-3
q0 -313 187 -518q194 -211 504 -211q195 0 353 90q164 94 251 264.5t87 391.5q0 460 -329 655zM455 1177q-101 -96 -128 -203q-18 -72 -18 -263q0 -238 124 -393q134 -167 366 -167q241 0 373 175q119 157 119 406q0 364 -233 511q-114 72 -255 72h-1q-202 0 -347 -138z
M441 1191q104 99 185 126q53 18 176 18h1q149 0 267.5 -75.5t179.5 -211t61 -316.5q0 -258 -125 -421q-137 -180 -387 -180q-173 0 -301.5 97t-178.5 263q-30 99 -30 220q0 335 152 480zM1132 1694q-43 -145 -193 -145q-53 0 -147 46t-117 46q-66 0 -66 -77v-8
q0 -10 -10 -10h-133q-15 0 -7 58q12 84 69 137t141 53q53 0 190 -63q45 -21 73 -21q51 0 62 69l1 6q2 12 10 12h130q11 0 11 -23q0 -33 -14 -80zM1013 1776q-13 -86 -81 -86q-36 0 -117 40q-90 44 -146 44q-85 0 -137 -56q-56 -60 -56 -140v-12h113q2 95 86 95
q28 0 121.5 -46t142.5 -46q176 0 186 208z" />
    <glyph glyph-name="Odieresis" unicode="&#xd6;" horiz-adv-x="1593" 
d="M1172 1404q339 -202 339 -673q0 -215 -83 -387q-92 -191 -267 -287q-168 -92 -361 -92q-318 0 -518 217q-193 211 -193 532v3q0 343 182 557q193 228 530 228q206 0 371 -98zM1162 1386q-162 96 -361 96q-246 0 -423 -134t-238 -371q-31 -120 -31 -260v-3
q0 -313 187 -518q194 -211 504 -211q195 0 353 90q164 94 251 264.5t87 391.5q0 460 -329 655zM455 1177q-101 -96 -128 -203q-18 -72 -18 -263q0 -238 124 -393q134 -167 366 -167q241 0 373 175q119 157 119 406q0 364 -233 511q-114 72 -255 72h-1q-202 0 -347 -138z
M441 1191q104 99 185 126q53 18 176 18h1q149 0 267.5 -75.5t179.5 -211t61 -316.5q0 -258 -125 -421q-137 -180 -387 -180q-173 0 -301.5 97t-178.5 263q-30 99 -30 220q0 335 152 480zM889 1546q-10 0 -10 10v205q0 10 10 10h188q10 0 10 -10v-205q0 -10 -10 -10h-188z
M1067 1751h-168v-185h168v185zM516 1546q-10 0 -10 10v205q0 10 10 10h188q10 0 10 -10v-205q0 -10 -10 -10h-188zM526 1751v-185l168 1v184h-168z" />
    <glyph glyph-name="multiply" unicode="&#xd7;" horiz-adv-x="1196" 
d="M213 343q-61 61 -61 67q10 14 68 72l242 242l-282 282q-28 28 -28 33q0 4 3 6l63 63q61 61 67 61q14 -10 72 -68l241 -241l270 270q39 39 45 39q9 -7 63 -62q64 -65 64 -69q0 -5 -64 -69l-243 -244l241 -241q65 -65 68 -72q0 -6 -61 -67q-65 -65 -70 -65t-69 64l-245 245
l-245 -245q-65 -65 -70 -65t-69 64zM282 302l308 308q3 3 7 3q5 -1 7 -3l307 -307l108 108l-307 307q-7 7 0 14l305 306l-106 107l-306 -306q-3 -3 -7 -3q-5 1 -7 3l-307 307l-108 -108l307 -307q3 -3 3 -7q-1 -5 -3 -7l-308 -308z" />
    <glyph glyph-name="Oslash" unicode="&#xd8;" horiz-adv-x="1593" 
d="M1481 1381l-127 -144q153 -231 153 -505q0 -283 -138 -482q-146 -212 -415 -269q-75 -16 -153 -16q-243 0 -450 151l-162 -182q-2 -2 -6 -3q-6 0 -58 44.5t-52 49.5q7 12 48 58l125 140q-90 137 -124 240q-37 113 -37 267q0 337 186 549q195 222 528 222q242 0 450 -155
l162 181q2 2 6 3q6 0 58 -44.5t52 -49.5q-5 -9 -46 -55zM1503 1435l-84 71l-162 -181q-6 -6 -13 -1q-206 157 -445 157q-324 0 -514 -217q-180 -206 -180 -534q0 -152 38 -265q34 -100 124 -238q5 -6 -1 -12l-169 -189l84 -71l162 181q6 6 13 1q113 -83 209 -116
q102 -36 236 -36q197 0 357 96q164 98 248 273q81 169 81 378q0 150 -35 263q-34 110 -119 237q-5 7 1 13zM800 1315q-248 0 -379 -172q-116 -154 -116 -410q0 -193 81 -353l729 816q-154 119 -315 119zM969 1307q38 -14 94 -47q77 -45 77 -64q-1 -3 -3 -6l-746 -835
q-9 -11 -16 2q-90 173 -90 376q0 264 122 424q137 178 393 178q95 0 169 -28zM1210 1077l-727 -814q141 -112 312 -112q240 0 372 173q120 156 120 403q0 197 -77 350zM1307 727q0 -255 -126 -417q-138 -179 -386 -179q-183 0 -332 123q-8 7 -1 15l743 832q9 10 16 -2
q86 -161 86 -372z" />
    <glyph glyph-name="Ugrave" unicode="&#xd9;" horiz-adv-x="1479" 
d="M1324 606q0 -253 -72 -388q-135 -253 -511 -253q-415 0 -533 283q-57 137 -57 371v847q0 10 10 10h194q10 0 10 -10v-846q0 -188 34 -277q65 -105 118 -135q85 -48 207 -48q209 0 297 93q89 123 89 367v846q0 10 10 10h194q10 0 10 -10v-860zM1130 1456v-836
q0 -250 -93 -379q-95 -101 -313 -101q-246 0 -342 193l-1 2q-36 72 -36 285v836h-174v-837q0 -260 73 -399q124 -235 497 -235q364 0 493 242q70 131 70 380v849h-174zM709 1546q-5 1 -8 4l-207 251q-27 33 -27 38q0 7 11 7h241q7 -2 9 -6l135 -280q7 -14 -9 -14h-145z
M838 1566l-125 260h-214l215 -260h124z" />
    <glyph glyph-name="Uacute" unicode="&#xda;" horiz-adv-x="1479" 
d="M1324 606q0 -253 -72 -388q-135 -253 -511 -253q-415 0 -533 283q-57 137 -57 371v847q0 10 10 10h194q10 0 10 -10v-846q0 -188 34 -277q65 -105 118 -135q85 -48 207 -48q209 0 297 93q89 123 89 367v846q0 10 10 10h194q10 0 10 -10v-860zM1130 1456v-836
q0 -250 -93 -379q-95 -101 -313 -101q-246 0 -342 193l-1 2q-36 72 -36 285v836h-174v-837q0 -260 73 -399q124 -235 497 -235q364 0 493 242q70 131 70 380v849h-174zM966 1798l-195 -248q-4 -3 -8 -4h-149q-10 0 -10 9q2 6 14 32l114 240q9 19 15 19h236q11 0 11 -7
q0 -5 -28 -41zM630 1566h128l204 260h-209l-74 -157q-8 -16 -49 -103z" />
    <glyph glyph-name="Ucircumflex" unicode="&#xdb;" horiz-adv-x="1479" 
d="M1324 606q0 -253 -72 -388q-135 -253 -511 -253q-415 0 -533 283q-57 137 -57 371v847q0 10 10 10h194q10 0 10 -10v-846q0 -188 34 -277q65 -105 118 -135q85 -48 207 -48q209 0 297 93q89 123 89 367v846q0 10 10 10h194q10 0 10 -10v-860zM1130 1456v-836
q0 -250 -93 -379q-95 -101 -313 -101q-246 0 -342 193l-1 2q-36 72 -36 285v836h-174v-837q0 -260 73 -399q124 -235 497 -235q364 0 493 242q70 131 70 380v849h-174zM846 1546q-6 1 -8 5l-102 157l-105 -158q-4 -3 -8 -4h-206q-20 0 -8 16l199 258q20 26 25 26h192
q5 -1 8 -4l191 -238q37 -46 37 -51q0 -7 -11 -7h-204zM1029 1566l-209 260h-182l-201 -260h181l110 166q4 5 7 6q6 0 57 -80l59 -92h178z" />
    <glyph glyph-name="Udieresis" unicode="&#xdc;" horiz-adv-x="1479" 
d="M1324 606q0 -253 -72 -388q-135 -253 -511 -253q-415 0 -533 283q-57 137 -57 371v847q0 10 10 10h194q10 0 10 -10v-846q0 -188 34 -277q65 -105 118 -135q85 -48 207 -48q209 0 297 93q89 123 89 367v846q0 10 10 10h194q10 0 10 -10v-860zM1130 1456v-836
q0 -250 -93 -379q-95 -101 -313 -101q-246 0 -342 193l-1 2q-36 72 -36 285v836h-174v-837q0 -260 73 -399q124 -235 497 -235q364 0 493 242q70 131 70 380v849h-174zM827 1546q-10 0 -10 10v205q0 10 10 10h188q10 0 10 -10v-205q0 -10 -10 -10h-188zM1005 1751h-168v-185
h168v185zM454 1546q-10 0 -10 10v205q0 10 10 10h188q10 0 10 -10v-205q0 -10 -10 -10h-188zM464 1751v-185l168 1v184h-168z" />
    <glyph glyph-name="Yacute" unicode="&#xdd;" horiz-adv-x="1366" 
d="M680 796q88 151 385 599l51 77q4 3 8 4h226q10 0 10 -7q0 -5 -17 -30l-568 -821v-618q0 -10 -10 -10h-194q-10 0 -10 10v618l-563 842q-11 16 8 16h236q5 0 38 -50l206 -312q110 -168 194 -318zM1331 1456h-202l-47 -72q-111 -169 -393 -613q-9 -15 -18 0
q-72 128 -367 582l-67 103h-212l554 -829q2 -4 2 -6v-611h174v611q1 4 2 6zM907 1798l-195 -248q-4 -3 -8 -4h-149q-10 0 -10 9q2 6 14 32l114 240q9 19 15 19h236q11 0 11 -7q0 -5 -28 -41zM571 1566h128l204 260h-209l-74 -157q-8 -16 -49 -103z" />
    <glyph glyph-name="Thorn" unicode="&#xde;" horiz-adv-x="1366" 
d="M1165 421q-84 -92 -186 -116q-67 -17 -251 -17h-366v-288q0 -10 -10 -10h-194q-10 0 -10 10v1466q0 10 10 10h194q10 0 10 -10v-288h349q203 0 306 -34q154 -51 225 -197q45 -93 45 -204q0 -190 -122 -322zM1151 435q80 86 102 156q14 46 14 152q0 225 -157 333
q-119 82 -399 82h-359q-10 0 -10 10v288h-174v-1446h174v288q0 10 10 10h376q307 0 423 127zM906 971q-50 14 -179 14h-365v-504h369q336 0 336 256q0 189 -161 234zM1087 737q0 -276 -356 -276h-379q-10 0 -10 10v524q0 10 10 10h375q121 0 172 -12q90 -21 139 -91.5
t49 -164.5z" />
    <glyph glyph-name="germandbls" unicode="&#xdf;" horiz-adv-x="1251" 
d="M822 -35q-124 0 -223 66.5t-149 180.5q-4 9 5 13l155 72q9 4 13 -4q87 -160 196 -160q70 0 122 47t52 117q0 53 -30 90q-19 24 -110 86q-120 82 -161 122q-88 86 -88 174q0 72 81 214.5t81 202.5q0 70 -62 111q-55 36 -128 36q-102 0 -167 -62q-66 -141 -66 -280v-991
q0 -10 -10 -10h-180q-10 0 -10 10v999q0 162 34 255q45 123 160 188q104 59 243 59q149 0 257 -72q124 -82 124 -225q0 -99 -83 -244q-69 -121 -69 -163q0 -62 138 -152q127 -83 173 -134q77 -86 77 -199q0 -154 -112 -253q-107 -94 -263 -94zM1177 312q0 101 -62 176
q-36 43 -116 98q-43 29 -126.5 88.5t-83.5 122.5q0 48 71 172q81 142 81 235q0 132 -119 210q-103 67 -242 67q-121 0 -218 -49q-109 -54 -155 -156q-44 -98 -44 -277v-989h160v981q0 149 69 290l2 3q71 69 182 69q82 0 142 -42q68 -47 68 -125q0 -66 -81 -208t-81 -209
q0 -90 105 -179q105 -70 250 -191q34 -42 34 -102q0 -78 -58 -131t-136 -53q-120 0 -209 162l-138 -64q49 -105 142 -165.5t208 -60.5q148 0 249 88q106 93 106 239z" />
    <glyph glyph-name="agrave" unicode="&#xe0;" 
d="M570 1184q-5 1 -8 4l-207 251q-27 33 -27 38q0 7 11 7h241q7 -2 9 -6l135 -280q7 -14 -9 -14h-145zM699 1204l-125 260h-214l215 -260h124zM864 -10q-26 0 -44 122q-177 -146 -383 -146q-250 0 -339 168q-34 64 -34 146q0 164 133 254q12 7 48 26q84 43 246 62
q211 25 312 59q1 31 1 40q0 105 -48 148q-65 58 -198 58q-118 0 -176 -40q-63 -43 -91 -154q-2 -9 -11 -8l-118 16q-69 9 -67 20q48 226 245 297q105 38 244 38q98 -11 225 -33q128 -48 169 -149q27 -67 27 -229l1 -465q8 -132 55 -215q8 -15 -9 -15h-188zM1035 10
q-27 55 -38 116q-12 69 -12 319v240q0 156 -24 218q-37 96 -160 142q-74 28 -217 31q-276 6 -392 -141q-51 -65 -75 -168l157 -21q31 115 99 160q62 41 185 41q266 0 266 -226q0 -54 -8 -56q-104 -37 -323 -63q-115 -13 -150 -23q-63 -17 -135 -61q-124 -76 -124 -238
q0 -218 216 -277q62 -17 137 -17q205 0 385 153q14 12 16 -7q7 -69 32 -122h165zM803 518q-100 -37 -283 -63q-88 -13 -121 -23q-123 -39 -123 -147q0 -81 64 -122q55 -36 140 -36q216 0 295 164q28 58 28 176v51zM809 542q14 6 14 -9v-66q0 -227 -153 -313
q-83 -47 -190 -47q-94 0 -154 41q-70 48 -70 137q0 109 102 153q49 21 160 37q196 28 291 67z" />
    <glyph glyph-name="aacute" unicode="&#xe1;" 
d="M864 -10q-26 0 -44 122q-177 -146 -383 -146q-250 0 -339 168q-34 64 -34 146q0 164 133 254q12 7 48 26q84 43 246 62q211 25 312 59q1 31 1 40q0 105 -48 148q-65 58 -198 58q-118 0 -176 -40q-63 -43 -91 -154q-2 -9 -11 -8l-118 16q-69 9 -67 20q48 226 245 297
q105 38 244 38q98 -11 225 -33q128 -48 169 -149q27 -67 27 -229l1 -465q8 -132 55 -215q8 -15 -9 -15h-188zM1035 10q-27 55 -38 116q-12 69 -12 319v240q0 156 -24 218q-37 96 -160 142q-74 28 -217 31q-276 6 -392 -141q-51 -65 -75 -168l157 -21q31 115 99 160
q62 41 185 41q266 0 266 -226q0 -54 -8 -56q-104 -37 -323 -63q-115 -13 -150 -23q-63 -17 -135 -61q-124 -76 -124 -238q0 -218 216 -277q62 -17 137 -17q205 0 385 153q14 12 16 -7q7 -69 32 -122h165zM803 518q-100 -37 -283 -63q-88 -13 -121 -23q-123 -39 -123 -147
q0 -81 64 -122q55 -36 140 -36q216 0 295 164q28 58 28 176v51zM809 542q14 6 14 -9v-66q0 -227 -153 -313q-83 -47 -190 -47q-94 0 -154 41q-70 48 -70 137q0 109 102 153q49 21 160 37q196 28 291 67zM815 1436l-195 -248q-4 -3 -8 -4h-149q-10 0 -10 9q2 6 14 32l114 240
q9 19 15 19h236q11 0 11 -7q0 -5 -28 -41zM479 1204h128l204 260h-209l-74 -157q-8 -16 -49 -103z" />
    <glyph glyph-name="acircumflex" unicode="&#xe2;" 
d="M864 -10q-26 0 -44 122q-177 -146 -383 -146q-250 0 -339 168q-34 64 -34 146q0 164 133 254q12 7 48 26q84 43 246 62q211 25 312 59q1 31 1 40q0 105 -48 148q-65 58 -198 58q-118 0 -176 -40q-63 -43 -91 -154q-2 -9 -11 -8l-118 16q-69 9 -67 20q48 226 245 297
q105 38 244 38q98 -11 225 -33q128 -48 169 -149q27 -67 27 -229l1 -465q8 -132 55 -215q8 -15 -9 -15h-188zM1035 10q-27 55 -38 116q-12 69 -12 319v240q0 156 -24 218q-37 96 -160 142q-74 28 -217 31q-276 6 -392 -141q-51 -65 -75 -168l157 -21q31 115 99 160
q62 41 185 41q266 0 266 -226q0 -54 -8 -56q-104 -37 -323 -63q-115 -13 -150 -23q-63 -17 -135 -61q-124 -76 -124 -238q0 -218 216 -277q62 -17 137 -17q205 0 385 153q14 12 16 -7q7 -69 32 -122h165zM803 518q-100 -37 -283 -63q-88 -13 -121 -23q-123 -39 -123 -147
q0 -81 64 -122q55 -36 140 -36q216 0 295 164q28 58 28 176v51zM809 542q14 6 14 -9v-66q0 -227 -153 -313q-83 -47 -190 -47q-94 0 -154 41q-70 48 -70 137q0 109 102 153q49 21 160 37q196 28 291 67zM676 1184q-6 1 -8 5l-102 157l-105 -158q-4 -3 -8 -4h-206
q-20 0 -8 16l199 258q20 26 25 26h192q5 -1 8 -4l191 -238q37 -46 37 -51q0 -7 -11 -7h-204zM859 1204l-209 260h-182l-201 -260h181l110 166q4 5 7 6q6 0 57 -80l59 -92h178z" />
    <glyph glyph-name="atilde" unicode="&#xe3;" 
d="M864 -10q-26 0 -44 122q-177 -146 -383 -146q-250 0 -339 168q-34 64 -34 146q0 164 133 254q12 7 48 26q84 43 246 62q211 25 312 59q1 31 1 40q0 105 -48 148q-65 58 -198 58q-118 0 -176 -40q-63 -43 -91 -154q-2 -9 -11 -8l-118 16q-69 9 -67 20q48 226 245 297
q105 38 244 38q98 -11 225 -33q128 -48 169 -149q27 -67 27 -229l1 -465q8 -132 55 -215q8 -15 -9 -15h-188zM1035 10q-27 55 -38 116q-12 69 -12 319v240q0 156 -24 218q-37 96 -160 142q-74 28 -217 31q-276 6 -392 -141q-51 -65 -75 -168l157 -21q31 115 99 160
q62 41 185 41q266 0 266 -226q0 -54 -8 -56q-104 -37 -323 -63q-115 -13 -150 -23q-63 -17 -135 -61q-124 -76 -124 -238q0 -218 216 -277q62 -17 137 -17q205 0 385 153q14 12 16 -7q7 -69 32 -122h165zM803 518q-100 -37 -283 -63q-88 -13 -121 -23q-123 -39 -123 -147
q0 -81 64 -122q55 -36 140 -36q216 0 295 164q28 58 28 176v51zM809 542q14 6 14 -9v-66q0 -227 -153 -313q-83 -47 -190 -47q-94 0 -154 41q-70 48 -70 137q0 109 102 153q49 21 160 37q196 28 291 67zM895 1357q-43 -145 -193 -145q-53 0 -147 46t-117 46q-66 0 -66 -77
v-8q0 -10 -10 -10h-133q-15 0 -7 58q12 84 69 137t141 53q53 0 190 -63q45 -21 73 -21q51 0 62 69l1 6q2 12 10 12h130q11 0 11 -23q0 -33 -14 -80zM776 1439q-13 -86 -81 -86q-36 0 -117 40q-90 44 -146 44q-85 0 -137 -56q-56 -60 -56 -140v-12h113q2 95 86 95
q28 0 121.5 -46t142.5 -46q176 0 186 208z" />
    <glyph glyph-name="adieresis" unicode="&#xe4;" 
d="M864 -10q-26 0 -44 122q-177 -146 -383 -146q-250 0 -339 168q-34 64 -34 146q0 164 133 254q12 7 48 26q84 43 246 62q211 25 312 59q1 31 1 40q0 105 -48 148q-65 58 -198 58q-118 0 -176 -40q-63 -43 -91 -154q-2 -9 -11 -8l-118 16q-69 9 -67 20q48 226 245 297
q105 38 244 38q98 -11 225 -33q128 -48 169 -149q27 -67 27 -229l1 -465q8 -132 55 -215q8 -15 -9 -15h-188zM1035 10q-27 55 -38 116q-12 69 -12 319v240q0 156 -24 218q-37 96 -160 142q-74 28 -217 31q-276 6 -392 -141q-51 -65 -75 -168l157 -21q31 115 99 160
q62 41 185 41q266 0 266 -226q0 -54 -8 -56q-104 -37 -323 -63q-115 -13 -150 -23q-63 -17 -135 -61q-124 -76 -124 -238q0 -218 216 -277q62 -17 137 -17q205 0 385 153q14 12 16 -7q7 -69 32 -122h165zM803 518q-100 -37 -283 -63q-88 -13 -121 -23q-123 -39 -123 -147
q0 -81 64 -122q55 -36 140 -36q216 0 295 164q28 58 28 176v51zM809 542q14 6 14 -9v-66q0 -227 -153 -313q-83 -47 -190 -47q-94 0 -154 41q-70 48 -70 137q0 109 102 153q49 21 160 37q196 28 291 67zM656 1260q-10 0 -10 10v205q0 10 10 10h188q10 0 10 -10v-205
q0 -10 -10 -10h-188zM834 1465h-168v-185h168v185zM283 1260q-10 0 -10 10v205q0 10 10 10h188q10 0 10 -10v-205q0 -10 -10 -10h-188zM293 1465v-185l168 1v184h-168z" />
    <glyph glyph-name="aring" unicode="&#xe5;" 
d="M864 -10q-26 0 -44 122q-177 -146 -383 -146q-250 0 -339 168q-34 64 -34 146q0 164 133 254q12 7 48 26q84 43 246 62q211 25 312 59q1 31 1 40q0 105 -48 148q-65 58 -198 58q-118 0 -176 -40q-63 -43 -91 -154q-2 -9 -11 -8l-118 16q-69 9 -67 20q48 226 245 297
q105 38 244 38q98 -11 225 -33q128 -48 169 -149q27 -67 27 -229l1 -465q8 -132 55 -215q8 -15 -9 -15h-188zM1035 10q-27 55 -38 116q-12 69 -12 319v240q0 156 -24 218q-37 96 -160 142q-74 28 -217 31q-276 6 -392 -141q-51 -65 -75 -168l157 -21q31 115 99 160
q62 41 185 41q266 0 266 -226q0 -54 -8 -56q-104 -37 -323 -63q-115 -13 -150 -23q-63 -17 -135 -61q-124 -76 -124 -238q0 -218 216 -277q62 -17 137 -17q205 0 385 153q14 12 16 -7q7 -69 32 -122h165zM803 518q-100 -37 -283 -63q-88 -13 -121 -23q-123 -39 -123 -147
q0 -81 64 -122q55 -36 140 -36q216 0 295 164q28 58 28 176v51zM809 542q14 6 14 -9v-66q0 -227 -153 -313q-83 -47 -190 -47q-94 0 -154 41q-70 48 -70 137q0 109 102 153q49 21 160 37q196 28 291 67zM564 1141q-83 0 -137 57t-54 140v2q0 77 56 132t134 55
q80 0 135 -56.5t55 -136.5t-54.5 -136.5t-134.5 -56.5zM733 1334q0 72 -49 122.5t-121 50.5q-69 0 -119.5 -49t-50.5 -118v-2q0 -75 48.5 -126t122.5 -51q71 0 120 50.5t49 122.5zM469 1337q0 -41 27.5 -71t68.5 -30q40 0 68 29.5t28 69.5q0 41 -27.5 70t-68.5 29
q-40 0 -68 -28.5t-28 -68.5zM565 1454q49 0 82.5 -35t33.5 -84t-33.5 -84t-82.5 -35q-50 0 -83 35.5t-33 85.5q0 48 34 82.5t82 34.5z" />
    <glyph glyph-name="ae" unicode="&#xe6;" horiz-adv-x="1821" 
d="M1698 806q50 -121 50 -260q0 -9 -2 -61q0 -10 -10 -10h-757q3 -114 25 -172q30 -77 108 -125q75 -44 161 -44q208 0 263 217q2 9 11 8l188 -24q8 -1 8 -13q0 -45 -65 -146q-135 -210 -412 -210q-245 0 -396 193q-201 -193 -434 -193h-5q-155 0 -259 78q-114 86 -114 236
q0 94 54 172q52 75 140.5 114t284.5 64q145 19 243 47q1 20 1 33q0 120 -48 168q-96 49 -178 49q-171 0 -227 -76q-28 -38 -46 -120q-2 -9 -11 -8l-175 21q-12 1 -9 12q81 340 470 340q276 0 369 -137q132 137 340 137q312 0 432 -290zM1266 1076q-205 0 -334 -140
q-8 -9 -15 2q-38 61 -95 89q-99 49 -265 49q-262 0 -372 -143q-48 -62 -76 -170l155 -19q34 144 141 181q63 22 150 22q84 0 188 -52l2 -1q56 -54 56 -184q0 -49 -8 -51q-100 -29 -254.5 -49t-225.5 -43q-124 -41 -185 -127q-50 -72 -50 -160q0 -110 72 -188q69 -75 179 -97
q46 -9 102 -9h5q229 0 428 195q8 8 15 -1q146 -194 387 -194q350 0 455 331l-168 21q-61 -224 -280 -224q-85 0 -160 41q-80 43 -117 116q-9 18 -24 81q-17 72 -17 109q0 34 14 34h757q2 34 2 51q0 134 -48 251q-115 279 -414 279zM980 643h562q-30 284 -277 284
q-127 0 -203 -80q-72 -75 -82 -204zM1265 947q270 0 298 -313q1 -11 -10 -11h-584q-11 0 -10 11q9 141 86 224q82 89 220 89zM473 450q-204 -32 -204 -164q0 -79 61 -121q53 -37 136 -37q101 0 184 48q90 53 118 144q15 50 15 191v7q-89 -33 -310 -68zM469 470
q242 38 320 72q14 6 14 -9v-22q0 -141 -14 -192q-27 -99 -125 -158q-90 -53 -198 -53q-90 0 -150 43q-67 48 -67 135q0 149 220 184z" />
    <glyph glyph-name="ccedilla" unicode="&#xe7;" horiz-adv-x="1024" 
d="M563 -34q-175 0 -298.5 92t-169.5 259q-25 92 -25 210v3q0 369 236 500q119 66 258 66q174 0 287.5 -88t146.5 -256q3 -15 -39 -17l-144 -22q-10 -1 -12 8q-48 207 -220 207h-27q-148 -37 -198 -94q-83 -96 -83 -302q0 -273 145 -361q61 -37 141 -37q221 0 257 256
q1 10 22 10q-31 0 73 -12q19 -1 58 -4q46 -4 44 -20q-29 -183 -147 -290q-121 -108 -305 -108zM993 357l-157 21q-41 -264 -275 -264q-306 0 -306 418q0 215 87 315q56 64 210 100l2 1h17q195 0 250 -214l155 24q-67 318 -412 318q-139 0 -248 -63q-116 -67 -170 -189
q-56 -127 -56 -294v-3q0 -373 257 -496q94 -45 216 -45q173 0 288 101q113 98 142 270zM446 -411q-82 0 -146 12q-9 2 -8 11l11 117q1 10 11 9q58 -4 93 -4q151 0 151 65q0 55 -147 57q-10 0 -10 11q5 16 28 96l24 83q3 7 10 7h134q10 0 10 -10q-4 -16 -30 -99
q168 -24 168 -155q0 -104 -104 -158q-81 -42 -195 -42zM725 -211q0 118 -162 137q-9 1 -9 13q4 13 29 94h-113l-46 -157q154 -4 154 -77q0 -85 -171 -85q17 0 -51 2l-34 1l-9 -98q58 -10 133 -10q105 0 181 37q98 48 98 143z" />
    <glyph glyph-name="egrave" unicode="&#xe8;" 
d="M541 1184q-5 1 -8 4l-207 251q-27 33 -27 38q0 7 11 7h241q7 -2 9 -6l135 -280q7 -14 -9 -14h-145zM670 1204l-125 260h-214l215 -260h124zM65 526q0 248 127 403q136 167 379 167q179 0 304 -99.5t168 -273.5q21 -86 21 -190q0 -6 -1 -48q0 -10 -10 -10h-781
q16 -227 171 -309q61 -32 139 -32q195 0 271 211q2 8 10 7l93 -12q15 -2 93 -11q12 -1 9 -13q-95 -350 -477 -350q-250 0 -387 155q-129 148 -129 401v4zM85 526v-4q0 -244 124 -386q131 -150 372 -150q360 0 454 325l-166 20q-82 -217 -287 -217q-153 0 -242 111
q-80 99 -89 259q-1 11 10 11h782q1 25 1 38q0 236 -116 383q-127 160 -357 160q-235 0 -365 -161q-121 -149 -121 -389zM282 643h571q-14 126 -81 202q-75 83 -196 83h-3q-123 0 -203 -82q-77 -78 -88 -203zM573 948h3q138 0 228 -108q58 -69 70 -206q1 -11 -10 -11h-593
q-11 0 -10 11q9 137 91 224q86 90 221 90z" />
    <glyph glyph-name="eacute" unicode="&#xe9;" 
d="M65 526q0 248 127 403q136 167 379 167q179 0 304 -99.5t168 -273.5q21 -86 21 -190q0 -6 -1 -48q0 -10 -10 -10h-781q16 -227 171 -309q61 -32 139 -32q195 0 271 211q2 8 10 7l93 -12q15 -2 93 -11q12 -1 9 -13q-95 -350 -477 -350q-250 0 -387 155q-129 148 -129 401
v4zM85 526v-4q0 -244 124 -386q131 -150 372 -150q360 0 454 325l-166 20q-82 -217 -287 -217q-153 0 -242 111q-80 99 -89 259q-1 11 10 11h782q1 25 1 38q0 236 -116 383q-127 160 -357 160q-235 0 -365 -161q-121 -149 -121 -389zM282 643h571q-14 126 -81 202
q-75 83 -196 83h-3q-123 0 -203 -82q-77 -78 -88 -203zM573 948h3q138 0 228 -108q58 -69 70 -206q1 -11 -10 -11h-593q-11 0 -10 11q9 137 91 224q86 90 221 90zM817 1436l-195 -248q-4 -3 -8 -4h-149q-10 0 -10 9q2 6 14 32l114 240q9 19 15 19h236q11 0 11 -7
q0 -5 -28 -41zM481 1204h128l204 260h-209l-74 -157q-8 -16 -49 -103z" />
    <glyph glyph-name="ecircumflex" unicode="&#xea;" 
d="M65 526q0 248 127 403q136 167 379 167q179 0 304 -99.5t168 -273.5q21 -86 21 -190q0 -6 -1 -48q0 -10 -10 -10h-781q16 -227 171 -309q61 -32 139 -32q195 0 271 211q2 8 10 7l93 -12q15 -2 93 -11q12 -1 9 -13q-95 -350 -477 -350q-250 0 -387 155q-129 148 -129 401
v4zM85 526v-4q0 -244 124 -386q131 -150 372 -150q360 0 454 325l-166 20q-82 -217 -287 -217q-153 0 -242 111q-80 99 -89 259q-1 11 10 11h782q1 25 1 38q0 236 -116 383q-127 160 -357 160q-235 0 -365 -161q-121 -149 -121 -389zM282 643h571q-14 126 -81 202
q-75 83 -196 83h-3q-123 0 -203 -82q-77 -78 -88 -203zM573 948h3q138 0 228 -108q58 -69 70 -206q1 -11 -10 -11h-593q-11 0 -10 11q9 137 91 224q86 90 221 90zM677 1184q-6 1 -8 5l-102 157l-105 -158q-4 -3 -8 -4h-206q-20 0 -8 16l199 258q20 26 25 26h192q5 -1 8 -4
l191 -238q37 -46 37 -51q0 -7 -11 -7h-204zM860 1204l-209 260h-182l-201 -260h181l110 166q4 5 7 6q6 0 57 -80l59 -92h178z" />
    <glyph glyph-name="edieresis" unicode="&#xeb;" 
d="M65 526q0 248 127 403q136 167 379 167q179 0 304 -99.5t168 -273.5q21 -86 21 -190q0 -6 -1 -48q0 -10 -10 -10h-781q16 -227 171 -309q61 -32 139 -32q195 0 271 211q2 8 10 7l93 -12q15 -2 93 -11q12 -1 9 -13q-95 -350 -477 -350q-250 0 -387 155q-129 148 -129 401
v4zM85 526v-4q0 -244 124 -386q131 -150 372 -150q360 0 454 325l-166 20q-82 -217 -287 -217q-153 0 -242 111q-80 99 -89 259q-1 11 10 11h782q1 25 1 38q0 236 -116 383q-127 160 -357 160q-235 0 -365 -161q-121 -149 -121 -389zM282 643h571q-14 126 -81 202
q-75 83 -196 83h-3q-123 0 -203 -82q-77 -78 -88 -203zM573 948h3q138 0 228 -108q58 -69 70 -206q1 -11 -10 -11h-593q-11 0 -10 11q9 137 91 224q86 90 221 90zM657 1260q-10 0 -10 10v205q0 10 10 10h188q10 0 10 -10v-205q0 -10 -10 -10h-188zM835 1465h-168v-185h168
v185zM284 1260q-10 0 -10 10v205q0 10 10 10h188q10 0 10 -10v-205q0 -10 -10 -10h-188zM294 1465v-185l168 1v184h-168z" />
    <glyph glyph-name="igrave" unicode="&#xec;" horiz-adv-x="569" 
d="M266 1184q-5 1 -8 4l-207 251q-27 33 -27 38q0 7 11 7h241q7 -2 9 -6l135 -280q7 -14 -9 -14h-145zM395 1204l-125 260h-214l215 -260h124zM388 0q0 -10 -10 -10h-180q-10 0 -10 10v1062q0 10 10 10h180q10 0 10 -10v-1062zM368 1052h-160v-1042h160v1042z" />
    <glyph glyph-name="iacute" unicode="&#xed;" horiz-adv-x="569" 
d="M541 1436l-195 -248q-4 -3 -8 -4h-149q-10 0 -10 9q2 6 14 32l114 240q9 19 15 19h236q11 0 11 -7q0 -5 -28 -41zM205 1204h128l204 260h-209l-74 -157q-8 -16 -49 -103zM388 0q0 -10 -10 -10h-180q-10 0 -10 10v1062q0 10 10 10h180q10 0 10 -10v-1062zM368 1052h-160
v-1042h160v1042z" />
    <glyph glyph-name="icircumflex" unicode="&#xee;" horiz-adv-x="569" 
d="M388 0q0 -10 -10 -10h-180q-10 0 -10 10v1062q0 10 10 10h180q10 0 10 -10v-1062zM368 1052h-160v-1042h160v1042zM412 1184q-6 1 -8 5l-102 157l-105 -158q-4 -3 -8 -4h-206q-20 0 -8 16l199 258q20 26 25 26h192q5 -1 8 -4l191 -238q37 -46 37 -51q0 -7 -11 -7h-204z
M595 1204l-209 260h-182l-201 -260h181l110 166q4 5 7 6q6 0 57 -80l59 -92h178z" />
    <glyph glyph-name="idieresis" unicode="&#xef;" horiz-adv-x="569" 
d="M382 1260q-10 0 -10 10v205q0 10 10 10h188q10 0 10 -10v-205q0 -10 -10 -10h-188zM560 1465h-168v-185h168v185zM9 1260q-10 0 -10 10v205q0 10 10 10h188q10 0 10 -10v-205q0 -10 -10 -10h-188zM19 1465v-185l168 1v184h-168zM388 0q0 -10 -10 -10h-180q-10 0 -10 10
v1062q0 10 10 10h180q10 0 10 -10v-1062zM368 1052h-160v-1042h160v1042z" />
    <glyph glyph-name="eth" unicode="&#xf0;" 
d="M564 -35q-260 0 -406 198q-95 129 -95 354q0 233 112 385q125 170 350 170q95 0 189 -46q-48 93 -122 178l-268 -124q-9 -4 -35 56q-22 51 -23 55q0 8 6 10l225 103q-90 82 -195 154q-7 5 -5 11q2 7 11 7h217q15 0 127 -100l144 69q55 26 67 31q8 0 33 -57q20 -45 22 -55
q0 -10 -21 -20q-24 -10 -72 -32l-72 -34q314 -367 314 -757q0 -241 -129 -394q-137 -162 -374 -162zM1047 521q0 388 -318 753q-2 4 -2 7q0 7 59 35l110 53l-37 84l-205 -98q-6 -3 -11 2q-48 44 -121 99h-182q93 -66 182 -148q5 -5 5 -7q0 -5 -120 -60l-118 -54l36 -85
l266 123q7 3 12 -2q83 -95 143 -216q4 -8 -1 -13q-5 -4 -13 0q-109 58 -207 58q-218 0 -337 -164q-105 -145 -105 -371q0 -218 91 -342q140 -190 390 -190q228 0 360 157q123 147 123 379zM557 914q-154 0 -229 -131q-61 -105 -61 -271q0 -159 66 -261q79 -119 230 -119
t230 129q67 109 67 268q0 160 -70 264q-81 121 -233 121zM880 529q0 -169 -72 -283q-85 -134 -245 -134q-161 0 -244 125q-72 107 -72 275q0 175 66 286q80 136 244 136q161 0 247 -127q76 -110 76 -278z" />
    <glyph glyph-name="ntilde" unicode="&#xf1;" 
d="M307 942q118 154 328 154q213 0 305 -129q68 -95 68 -304v-663q0 -10 -10 -10h-180q-10 0 -10 10v646q0 94 -12 137q-38 137 -201 137q-51 0 -97 -16q-103 -36 -143 -127q-30 -69 -30 -197v-580q0 -10 -10 -10h-180q-10 0 -10 10v1062q0 10 10 10h162q10 0 10 -10v-120z
M988 10v653q0 149 -27 223q-39 107 -153 156q-79 34 -173 34q-216 0 -330 -171q-5 -7 -11 -5q-7 2 -7 11v141h-142v-1042h160v570q0 132 34 208q44 97 152 135q49 17 103 17q164 0 212 -126q22 -57 22 -168v-636h160zM928 1357q-43 -145 -193 -145q-53 0 -147 46t-117 46
q-66 0 -66 -77v-8q0 -10 -10 -10h-133q-15 0 -7 58q12 84 69 137t141 53q53 0 190 -63q45 -21 73 -21q51 0 62 69l1 6q2 12 10 12h130q11 0 11 -23q0 -33 -14 -80zM809 1439q-13 -86 -81 -86q-36 0 -117 40q-90 44 -146 44q-85 0 -137 -56q-56 -60 -56 -140v-12h113
q2 95 86 95q28 0 121.5 -46t142.5 -46q176 0 186 208z" />
    <glyph glyph-name="ograve" unicode="&#xf2;" 
d="M542 1184q-5 1 -8 4l-207 251q-27 33 -27 38q0 7 11 7h241q7 -2 9 -6l135 -280q7 -14 -9 -14h-145zM671 1204l-125 260h-214l215 -260h124zM1010 218q-43 -83 -86 -122q-27 -26 -99 -65q-116 -64 -259 -65q-229 -2 -376 155q-132 141 -132 397v16q0 298 167 442
q139 120 341 120q239 0 377 -158q130 -149 130 -392q0 -207 -63 -328zM994 229q40 78 52 151q7 48 7 166q0 234 -124 378q-132 152 -363 152q-193 0 -327 -116q-161 -139 -161 -426v-15q0 -249 134 -392t365 -141q132 1 242 64q115 65 175 179zM557 927q-121 0 -208 -99
t-87 -297q0 -73 14 -140q24 -115 98 -184q78 -73 192 -73q159 0 237 128q65 106 65 275q0 160 -68 265q-80 125 -231 125h-12zM556 947h13q120 0 203 -79q77 -73 103 -195q13 -62 13 -136q0 -177 -71 -289q-84 -134 -251 -134q-122 0 -206 77q-79 73 -104 196
q-12 60 -13 144q-1 169 70 282q83 134 243 134z" />
    <glyph glyph-name="oacute" unicode="&#xf3;" 
d="M1010 218q-43 -83 -86 -122q-27 -26 -99 -65q-116 -64 -259 -65q-229 -2 -376 155q-132 141 -132 397v16q0 298 167 442q139 120 341 120q239 0 377 -158q130 -149 130 -392q0 -207 -63 -328zM994 229q40 78 52 151q7 48 7 166q0 234 -124 378q-132 152 -363 152
q-193 0 -327 -116q-161 -139 -161 -426v-15q0 -249 134 -392t365 -141q132 1 242 64q115 65 175 179zM557 927q-121 0 -208 -99t-87 -297q0 -73 14 -140q24 -115 98 -184q78 -73 192 -73q159 0 237 128q65 106 65 275q0 160 -68 265q-80 125 -231 125h-12zM556 947h13
q120 0 203 -79q77 -73 103 -195q13 -62 13 -136q0 -177 -71 -289q-84 -134 -251 -134q-122 0 -206 77q-79 73 -104 196q-12 60 -13 144q-1 169 70 282q83 134 243 134zM818 1436l-195 -248q-4 -3 -8 -4h-149q-10 0 -10 9q2 6 14 32l114 240q9 19 15 19h236q11 0 11 -7
q0 -5 -28 -41zM482 1204h128l204 260h-209l-74 -157q-8 -16 -49 -103z" />
    <glyph glyph-name="ocircumflex" unicode="&#xf4;" 
d="M1010 218q-43 -83 -86 -122q-27 -26 -99 -65q-116 -64 -259 -65q-229 -2 -376 155q-132 141 -132 397v16q0 298 167 442q139 120 341 120q239 0 377 -158q130 -149 130 -392q0 -207 -63 -328zM994 229q40 78 52 151q7 48 7 166q0 234 -124 378q-132 152 -363 152
q-193 0 -327 -116q-161 -139 -161 -426v-15q0 -249 134 -392t365 -141q132 1 242 64q115 65 175 179zM557 927q-121 0 -208 -99t-87 -297q0 -73 14 -140q24 -115 98 -184q78 -73 192 -73q159 0 237 128q65 106 65 275q0 160 -68 265q-80 125 -231 125h-12zM556 947h13
q120 0 203 -79q77 -73 103 -195q13 -62 13 -136q0 -177 -71 -289q-84 -134 -251 -134q-122 0 -206 77q-79 73 -104 196q-12 60 -13 144q-1 169 70 282q83 134 243 134zM678 1184q-6 1 -8 5l-102 157l-105 -158q-4 -3 -8 -4h-206q-20 0 -8 16l199 258q20 26 25 26h192
q5 -1 8 -4l191 -238q37 -46 37 -51q0 -7 -11 -7h-204zM861 1204l-209 260h-182l-201 -260h181l110 166q4 5 7 6q6 0 57 -80l59 -92h178z" />
    <glyph glyph-name="otilde" unicode="&#xf5;" 
d="M1010 218q-43 -83 -86 -122q-27 -26 -99 -65q-116 -64 -259 -65q-229 -2 -376 155q-132 141 -132 397v16q0 298 167 442q139 120 341 120q239 0 377 -158q130 -149 130 -392q0 -207 -63 -328zM994 229q40 78 52 151q7 48 7 166q0 234 -124 378q-132 152 -363 152
q-193 0 -327 -116q-161 -139 -161 -426v-15q0 -249 134 -392t365 -141q132 1 242 64q115 65 175 179zM557 927q-121 0 -208 -99t-87 -297q0 -73 14 -140q24 -115 98 -184q78 -73 192 -73q159 0 237 128q65 106 65 275q0 160 -68 265q-80 125 -231 125h-12zM556 947h13
q120 0 203 -79q77 -73 103 -195q13 -62 13 -136q0 -177 -71 -289q-84 -134 -251 -134q-122 0 -206 77q-79 73 -104 196q-12 60 -13 144q-1 169 70 282q83 134 243 134zM897 1357q-43 -145 -193 -145q-53 0 -147 46t-117 46q-66 0 -66 -77v-8q0 -10 -10 -10h-133q-15 0 -7 58
q12 84 69 137t141 53q53 0 190 -63q45 -21 73 -21q51 0 62 69l1 6q2 12 10 12h130q11 0 11 -23q0 -33 -14 -80zM778 1439q-13 -86 -81 -86q-36 0 -117 40q-90 44 -146 44q-85 0 -137 -56q-56 -60 -56 -140v-12h113q2 95 86 95q28 0 121.5 -46t142.5 -46q176 0 186 208z" />
    <glyph glyph-name="odieresis" unicode="&#xf6;" 
d="M1010 218q-43 -83 -86 -122q-27 -26 -99 -65q-116 -64 -259 -65q-229 -2 -376 155q-132 141 -132 397v16q0 298 167 442q139 120 341 120q239 0 377 -158q130 -149 130 -392q0 -207 -63 -328zM994 229q40 78 52 151q7 48 7 166q0 234 -124 378q-132 152 -363 152
q-193 0 -327 -116q-161 -139 -161 -426v-15q0 -249 134 -392t365 -141q132 1 242 64q115 65 175 179zM557 927q-121 0 -208 -99t-87 -297q0 -73 14 -140q24 -115 98 -184q78 -73 192 -73q159 0 237 128q65 106 65 275q0 160 -68 265q-80 125 -231 125h-12zM556 947h13
q120 0 203 -79q77 -73 103 -195q13 -62 13 -136q0 -177 -71 -289q-84 -134 -251 -134q-122 0 -206 77q-79 73 -104 196q-12 60 -13 144q-1 169 70 282q83 134 243 134zM658 1260q-10 0 -10 10v205q0 10 10 10h188q10 0 10 -10v-205q0 -10 -10 -10h-188zM836 1465h-168v-185
h168v185zM285 1260q-10 0 -10 10v205q0 10 10 10h188q10 0 10 -10v-205q0 -10 -10 -10h-188zM295 1465v-185l168 1v184h-168z" />
    <glyph glyph-name="divide" unicode="&#xf7;" horiz-adv-x="1124" 
d="M459 912q-10 0 -10 10v205q0 10 10 10h205q10 0 10 -10v-205q0 -10 -10 -10h-205zM469 932h185v185h-185v-185zM1056 639q0 -10 -10 -10h-968q-10 0 -10 10v168q0 10 10 10h968q10 0 10 -10v-168zM1036 649v148h-948v-148h948zM459 309q-10 0 -10 10v205q0 10 10 10h205
q10 0 10 -10v-205q0 -10 -10 -10h-205zM654 329v185h-185v-185h185z" />
    <glyph glyph-name="oslash" unicode="&#xf8;" horiz-adv-x="1251" 
d="M1020 919q114 -158 114 -389q0 -305 -173 -449q-139 -115 -336 -115q-157 0 -279 77l-99 -128q-3 -4 -7 -4q-3 0 -66 47l-35 26q-2 14 19 42l82 107q-121 143 -121 383q0 255 121 410q133 170 381 170q147 0 295 -84l94 121q6 8 14 2l96 -70q8 -6 2 -14zM156 -4l81 -61
l99 127q5 7 13 2q119 -78 276 -78q180 0 305 94.5t165 267.5q19 83 19 182q0 123 -21 199q-25 88 -91 179q-8 11 -3 17l101 130l-80 58l-93 -120q-6 -7 -13 -3q-149 86 -293 86q-240 0 -367 -164q-115 -149 -115 -396q0 -236 122 -376q5 -7 0 -13l-87 -114q-4 -5 -18 -17z
M627 927q-155 0 -235 -126q-68 -106 -68 -270q0 -134 44 -232l436 566q-85 62 -177 62zM733 927q95 -36 95 -61q-1 -3 -2 -5l-452 -587q-10 -13 -17 1q-53 107 -53 256q0 174 73 285q85 131 250 131q54 0 106 -20zM895 739l-5 11l-432 -561q72 -55 162 -55q160 0 241 124
q69 105 69 274q0 130 -35 207zM950 532q0 -177 -75 -288q-87 -130 -255 -130q-101 0 -182 65q-8 6 -2 14l449 583q4 5 8 5q6 0 20 -35q37 -95 37 -214z" />
    <glyph glyph-name="ugrave" unicode="&#xf9;" 
d="M583 1184q-5 1 -8 4l-207 251q-27 33 -27 38q0 7 11 7h241q7 -2 9 -6l135 -280q7 -14 -9 -14h-145zM712 1204l-125 260h-214l215 -260h124zM821 125q-24 -30 -49 -53q-115 -106 -278 -106q-100 0 -184 38q-96 43 -140 122q-49 89 -49 278v658q0 10 10 10h180q10 0 10 -10
v-589q0 -143 11 -189q16 -66 67 -104q69 -39 131 -39q79 0 145 38q70 41 98.5 110.5t28.5 203.5v569q0 10 10 10h180q10 0 10 -10v-1062q0 -10 -10 -10h-161q-10 0 -10 10v125zM131 1052l10 10v-658q0 -152 28 -227q39 -105 154 -156q79 -35 171 -35q157 0 265 100
q30 28 64 76q5 7 11 5q7 -2 7 -11v-146h141v1042h-160v-559q0 -121 -21 -186q-28 -86 -103 -136t-168 -50q-68 0 -141 42q-59 43 -77 118q-11 46 -11 192v579h-170z" />
    <glyph glyph-name="uacute" unicode="&#xfa;" 
d="M821 125q-24 -30 -49 -53q-115 -106 -278 -106q-100 0 -184 38q-96 43 -140 122q-49 89 -49 278v658q0 10 10 10h180q10 0 10 -10v-589q0 -143 11 -189q16 -66 67 -104q69 -39 131 -39q79 0 145 38q70 41 98.5 110.5t28.5 203.5v569q0 10 10 10h180q10 0 10 -10v-1062
q0 -10 -10 -10h-161q-10 0 -10 10v125zM131 1052l10 10v-658q0 -152 28 -227q39 -105 154 -156q79 -35 171 -35q157 0 265 100q30 28 64 76q5 7 11 5q7 -2 7 -11v-146h141v1042h-160v-559q0 -121 -21 -186q-28 -86 -103 -136t-168 -50q-68 0 -141 42q-59 43 -77 118
q-11 46 -11 192v579h-170zM805 1436l-195 -248q-4 -3 -8 -4h-149q-10 0 -10 9q2 6 14 32l114 240q9 19 15 19h236q11 0 11 -7q0 -5 -28 -41zM469 1204h128l204 260h-209l-74 -157q-8 -16 -49 -103z" />
    <glyph glyph-name="ucircumflex" unicode="&#xfb;" 
d="M821 125q-24 -30 -49 -53q-115 -106 -278 -106q-100 0 -184 38q-96 43 -140 122q-49 89 -49 278v658q0 10 10 10h180q10 0 10 -10v-589q0 -143 11 -189q16 -66 67 -104q69 -39 131 -39q79 0 145 38q70 41 98.5 110.5t28.5 203.5v569q0 10 10 10h180q10 0 10 -10v-1062
q0 -10 -10 -10h-161q-10 0 -10 10v125zM131 1052l10 10v-658q0 -152 28 -227q39 -105 154 -156q79 -35 171 -35q157 0 265 100q30 28 64 76q5 7 11 5q7 -2 7 -11v-146h141v1042h-160v-559q0 -121 -21 -186q-28 -86 -103 -136t-168 -50q-68 0 -141 42q-59 43 -77 118
q-11 46 -11 192v579h-170zM674 1184q-6 1 -8 5l-102 157l-105 -158q-4 -3 -8 -4h-206q-20 0 -8 16l199 258q20 26 25 26h192q5 -1 8 -4l191 -238q37 -46 37 -51q0 -7 -11 -7h-204zM857 1204l-209 260h-182l-201 -260h181l110 166q4 5 7 6q6 0 57 -80l59 -92h178z" />
    <glyph glyph-name="udieresis" unicode="&#xfc;" 
d="M821 125q-24 -30 -49 -53q-115 -106 -278 -106q-100 0 -184 38q-96 43 -140 122q-49 89 -49 278v658q0 10 10 10h180q10 0 10 -10v-589q0 -143 11 -189q16 -66 67 -104q69 -39 131 -39q79 0 145 38q70 41 98.5 110.5t28.5 203.5v569q0 10 10 10h180q10 0 10 -10v-1062
q0 -10 -10 -10h-161q-10 0 -10 10v125zM131 1052l10 10v-658q0 -152 28 -227q39 -105 154 -156q79 -35 171 -35q157 0 265 100q30 28 64 76q5 7 11 5q7 -2 7 -11v-146h141v1042h-160v-559q0 -121 -21 -186q-28 -86 -103 -136t-168 -50q-68 0 -141 42q-59 43 -77 118
q-11 46 -11 192v579h-170zM654 1260q-10 0 -10 10v205q0 10 10 10h188q10 0 10 -10v-205q0 -10 -10 -10h-188zM832 1465h-168v-185h168v185zM281 1260q-10 0 -10 10v205q0 10 10 10h188q10 0 10 -10v-205q0 -10 -10 -10h-188zM291 1465v-185l168 1v184h-168z" />
    <glyph glyph-name="yacute" unicode="&#xfd;" horiz-adv-x="1024" 
d="M525 240q28 108 139 409l153 416q3 7 9 7h180q10 0 10 -9q-3 -11 -19 -54l-386 -1031q-57 -152 -83 -205q-63 -129 -132 -171q-5 -4 -19 -12q-56 -31 -134 -31q-25 0 -69 8q-55 10 -57 23l-5 40q-2 15 -11 91q-5 35 -3 42q1 9 12 7q63 -18 100 -16q10 0 36 2q73 8 111 69
q16 26 54 132l12 36l2 5l-401 1060q-5 14 9 14h194q8 0 23 -43l122 -341q77 -214 153 -448zM992 1052h-159l-225 -612q-35 -95 -73 -241q-3 -10 -10 -10q-8 0 -10 9q-32 120 -162 483l-133 371h-173l398 -1050q-1 -8 -16 -51q-36 -105 -56 -136q-49 -77 -162 -81
q-36 -1 -92 13l17 -149q59 -19 107 -19q77 0 143 40q90 55 207 367zM772 1436l-195 -248q-4 -3 -8 -4h-149q-10 0 -10 9q2 6 14 32l114 240q9 19 15 19h236q11 0 11 -7q0 -5 -28 -41zM436 1204h128l204 260h-209l-74 -157q-8 -16 -49 -103z" />
    <glyph glyph-name="thorn" unicode="&#xfe;" 
d="M841 41q-111 -75 -246 -75q-149 0 -270 120v-493q0 -10 -10 -10h-180q-10 0 -10 10v1873q0 10 10 10h180q10 0 10 -10v-491q122 121 282 121q224 0 349 -172q111 -153 111 -385q0 -345 -226 -498zM1047 539q0 225 -105 371q-119 166 -335 166q-159 0 -285 -133
q-17 -18 -17 7v506h-160v-1853h160v507q0 25 17 7q126 -131 273 -131q129 0 235 72q217 147 217 481zM308 525q0 -158 57 -261q72 -130 217 -130q149 0 223 136q58 107 58 270q0 154 -58 261q-73 134 -215 134q-143 0 -220 -141q-62 -114 -62 -269zM590 955q152 0 230 -139
q63 -112 63 -276q0 -170 -64 -284q-80 -142 -237 -142q-153 0 -231 136q-63 110 -63 275q0 164 67 283q83 147 235 147z" />
    <glyph glyph-name="ydieresis" unicode="&#xff;" horiz-adv-x="1024" 
d="M525 240q28 108 139 409l153 416q3 7 9 7h180q10 0 10 -9q-3 -11 -19 -54l-386 -1031q-57 -152 -83 -205q-63 -129 -132 -171q-5 -4 -19 -12q-56 -31 -134 -31q-25 0 -69 8q-55 10 -57 23l-5 40q-2 15 -11 91q-5 35 -3 42q1 9 12 7q63 -18 100 -16q10 0 36 2q73 8 111 69
q16 26 54 132l12 36l2 5l-401 1060q-5 14 9 14h194q8 0 23 -43l122 -341q77 -214 153 -448zM992 1052h-159l-225 -612q-35 -95 -73 -241q-3 -10 -10 -10q-8 0 -10 9q-32 120 -162 483l-133 371h-173l398 -1050q-1 -8 -16 -51q-36 -105 -56 -136q-49 -77 -162 -81
q-36 -1 -92 13l17 -149q59 -19 107 -19q77 0 143 40q90 55 207 367zM616 1260q-10 0 -10 10v205q0 10 10 10h188q10 0 10 -10v-205q0 -10 -10 -10h-188zM794 1465h-168v-185h168v185zM243 1260q-10 0 -10 10v205q0 10 10 10h188q10 0 10 -10v-205q0 -10 -10 -10h-188z
M253 1465v-185l168 1v184h-168z" />
    <glyph glyph-name="Amacron" unicode="&#x100;" horiz-adv-x="1366" 
d="M1148 -10q-7 0 -9 6l-169 438h-599l-159 -437q-3 -7 -9 -7h-206q-9 0 -9 9q0 4 24 67l539 1404q2 6 9 6h208q5 -3 109 -248q78 -182 255 -610l246 -614q6 -14 -9 -14h-221zM768 1456h-201l-555 -1446h184l159 437q3 7 9 7h613q7 0 9 -6l169 -438h199l-147 359
q-442 1080 -439 1087zM748 1021q-49 129 -86 250q-31 -142 -105 -338q-25 -65 -123 -321h483l-9 -14zM925 608q6 -16 -8 -16h-497q-14 0 -9 14l132 346q75 201 107 362q2 9 10 10q7 0 10 -9q35 -121 97 -287l6 -16zM359 1568q-10 0 -10 10v148q0 10 10 10h624q10 0 10 -10
v-148q0 -10 -10 -10h-624zM973 1588v128h-604v-128h604z" />
    <glyph glyph-name="amacron" unicode="&#x101;" 
d="M864 -10q-26 0 -44 122q-177 -146 -383 -146q-250 0 -339 168q-34 64 -34 146q0 164 133 254q12 7 48 26q84 43 246 62q211 25 312 59q1 31 1 40q0 105 -48 148q-65 58 -198 58q-118 0 -176 -40q-63 -43 -91 -154q-2 -9 -11 -8l-118 16q-69 9 -67 20q48 226 245 297
q105 38 244 38q98 -11 225 -33q128 -48 169 -149q27 -67 27 -229l1 -465q8 -132 55 -215q8 -15 -9 -15h-188zM1035 10q-27 55 -38 116q-12 69 -12 319v240q0 156 -24 218q-37 96 -160 142q-74 28 -217 31q-276 6 -392 -141q-51 -65 -75 -168l157 -21q31 115 99 160
q62 41 185 41q266 0 266 -226q0 -54 -8 -56q-104 -37 -323 -63q-115 -13 -150 -23q-63 -17 -135 -61q-124 -76 -124 -238q0 -218 216 -277q62 -17 137 -17q205 0 385 153q14 12 16 -7q7 -69 32 -122h165zM803 518q-100 -37 -283 -63q-88 -13 -121 -23q-123 -39 -123 -147
q0 -81 64 -122q55 -36 140 -36q216 0 295 164q28 58 28 176v51zM809 542q14 6 14 -9v-66q0 -227 -153 -313q-83 -47 -190 -47q-94 0 -154 41q-70 48 -70 137q0 109 102 153q49 21 160 37q196 28 291 67zM274 1217q-10 0 -10 10v148q0 10 10 10h624q10 0 10 -10v-148
q0 -10 -10 -10h-624zM888 1237v128h-604v-128h604z" />
    <glyph glyph-name="Abreve" unicode="&#x102;" horiz-adv-x="1366" 
d="M1148 -10q-7 0 -9 6l-169 438h-599l-159 -437q-3 -7 -9 -7h-206q-9 0 -9 9q0 4 24 67l539 1404q2 6 9 6h208q5 -3 109 -248q78 -182 255 -610l246 -614q6 -14 -9 -14h-221zM768 1456h-201l-555 -1446h184l159 437q3 7 9 7h613q7 0 9 -6l169 -438h199l-147 359
q-442 1080 -439 1087zM748 1021q-49 129 -86 250q-31 -142 -105 -338q-25 -65 -123 -321h483l-9 -14zM925 608q6 -16 -8 -16h-497q-14 0 -9 14l132 346q75 201 107 362q2 9 10 10q7 0 10 -9q35 -121 97 -287l6 -16zM984 1804q-16 -124 -97 -191t-207 -67q-274 0 -306 268
q-1 11 10 11h123q8 0 10 -8q26 -127 157 -127q143 0 168 127q2 8 10 8h123q12 0 9 -21zM964 1807l1 9l10 -11h-115q-31 -135 -186 -135q-143 0 -175 135h-104q35 -239 285 -239q257 0 284 241z" />
    <glyph glyph-name="abreve" unicode="&#x103;" 
d="M864 -10q-26 0 -44 122q-177 -146 -383 -146q-250 0 -339 168q-34 64 -34 146q0 164 133 254q12 7 48 26q84 43 246 62q211 25 312 59q1 31 1 40q0 105 -48 148q-65 58 -198 58q-118 0 -176 -40q-63 -43 -91 -154q-2 -9 -11 -8l-118 16q-69 9 -67 20q48 226 245 297
q105 38 244 38q98 -11 225 -33q128 -48 169 -149q27 -67 27 -229l1 -465q8 -132 55 -215q8 -15 -9 -15h-188zM1035 10q-27 55 -38 116q-12 69 -12 319v240q0 156 -24 218q-37 96 -160 142q-74 28 -217 31q-276 6 -392 -141q-51 -65 -75 -168l157 -21q31 115 99 160
q62 41 185 41q266 0 266 -226q0 -54 -8 -56q-104 -37 -323 -63q-115 -13 -150 -23q-63 -17 -135 -61q-124 -76 -124 -238q0 -218 216 -277q62 -17 137 -17q205 0 385 153q14 12 16 -7q7 -69 32 -122h165zM803 518q-100 -37 -283 -63q-88 -13 -121 -23q-123 -39 -123 -147
q0 -81 64 -122q55 -36 140 -36q216 0 295 164q28 58 28 176v51zM809 542q14 6 14 -9v-66q0 -227 -153 -313q-83 -47 -190 -47q-94 0 -154 41q-70 48 -70 137q0 109 102 153q49 21 160 37q196 28 291 67zM891 1453q-16 -124 -97 -191t-207 -67q-274 0 -306 268q-1 11 10 11
h123q8 0 10 -8q26 -127 157 -127q143 0 168 127q2 8 10 8h123q12 0 9 -21zM871 1456l1 9l10 -11h-115q-31 -135 -186 -135q-143 0 -175 135h-104q35 -239 285 -239q257 0 284 241z" />
    <glyph glyph-name="Aogonek" unicode="&#x104;" horiz-adv-x="1366" 
d="M1148 -10q-7 0 -9 6l-169 438h-599l-159 -437q-3 -7 -9 -7h-206q-9 0 -9 9q0 4 24 67l539 1404q2 6 9 6h208q5 -3 109 -248q78 -182 255 -610l246 -614q6 -14 -9 -14h-221zM768 1456h-201l-555 -1446h184l159 437q3 7 9 7h613q7 0 9 -6l169 -438h199l-147 359
q-442 1080 -439 1087zM748 1021q-49 129 -86 250q-31 -142 -105 -338q-25 -65 -123 -321h483l-9 -14zM925 608q6 -16 -8 -16h-497q-14 0 -9 14l132 346q75 201 107 362q2 9 10 10q7 0 10 -9q35 -121 97 -287l6 -16zM1496 -389q-103 -40 -179 -37q-101 4 -159 66.5t-58 164.5
q0 87 41 232q2 7 10 7h124q15 0 5 -23q-34 -82 -34 -151q0 -62 36.5 -102t97.5 -40q72 0 164 45q14 7 14 -9v-119q0 -10 -62 -34zM1538 -252q-82 -40 -158 -40q-70 0 -112 46t-42 116q0 71 34 154h-101q-39 -137 -39 -219q0 -146 116 -193q31 -12 73 -17l9 -1q12 -1 24 -1
q80 0 196 58v97z" />
    <glyph glyph-name="aogonek" unicode="&#x105;" 
d="M864 -10q-26 0 -44 122q-177 -146 -383 -146q-250 0 -339 168q-34 64 -34 146q0 164 133 254q12 7 48 26q84 43 246 62q211 25 312 59q1 31 1 40q0 105 -48 148q-65 58 -198 58q-118 0 -176 -40q-63 -43 -91 -154q-2 -9 -11 -8l-118 16q-69 9 -67 20q48 226 245 297
q105 38 244 38q98 -11 225 -33q128 -48 169 -149q27 -67 27 -229l1 -465q8 -132 55 -215q8 -15 -9 -15h-188zM1035 10q-27 55 -38 116q-12 69 -12 319v240q0 156 -24 218q-37 96 -160 142q-74 28 -217 31q-276 6 -392 -141q-51 -65 -75 -168l157 -21q31 115 99 160
q62 41 185 41q266 0 266 -226q0 -54 -8 -56q-104 -37 -323 -63q-115 -13 -150 -23q-63 -17 -135 -61q-124 -76 -124 -238q0 -218 216 -277q62 -17 137 -17q205 0 385 153q14 12 16 -7q7 -69 32 -122h165zM803 518q-100 -37 -283 -63q-88 -13 -121 -23q-123 -39 -123 -147
q0 -81 64 -122q55 -36 140 -36q216 0 295 164q28 58 28 176v51zM809 542q14 6 14 -9v-66q0 -227 -153 -313q-83 -47 -190 -47q-94 0 -154 41q-70 48 -70 137q0 109 102 153q49 21 160 37q196 28 291 67zM1216 -374q-103 -40 -179 -37q-101 4 -159 66.5t-58 164.5
q0 87 41 232q2 7 10 7h124q15 0 5 -23q-34 -82 -34 -151q0 -62 36.5 -102t97.5 -40q72 0 164 45q14 7 14 -9v-119q0 -10 -62 -34zM1258 -237q-82 -40 -158 -40q-70 0 -112 46t-42 116q0 71 34 154h-101q-39 -137 -39 -219q0 -146 116 -193q31 -12 73 -17l9 -1q12 -1 24 -1
q80 0 196 58v97z" />
    <glyph glyph-name="Cacute" unicode="&#x106;" horiz-adv-x="1479" 
d="M1383 1067q3 -10 -8 -13l-191 -45q-9 -2 -12 7q-95 299 -382 299q-335 0 -433 -292q-45 -133 -45 -278q0 -395 219 -526q113 -68 244 -68q340 0 419 365q2 8 15 8q8 -3 78 -21q42 -3 117 -30q4 -2 4 -8l-2 -8l-2 -9q-49 -221 -220 -357q-159 -126 -393 -126
q-459 0 -621 382q-78 184 -78 397v1q0 278 128 470q138 207 399 267q83 19 175 19q220 0 373.5 -112t215.5 -322zM1386 458l-174 44q-41 -173 -149 -269q-114 -102 -288 -102q-147 0 -261 74.5t-167 209.5q-55 141 -55 330q0 373 220 515q116 75 278 75q298 0 399 -304
l171 40q-60 199 -209 306q-147 104 -357 104q-193 0 -348 -86q-163 -90 -248.5 -257t-85.5 -393v-1q0 -202 69 -371q79 -195 230 -293q146 -95 380 -95q227 0 382.5 123t211.5 346zM1015 1798l-195 -248q-4 -3 -8 -4h-149q-10 0 -10 9q2 6 14 32l114 240q9 19 15 19h236
q11 0 11 -7q0 -5 -28 -41zM679 1566h128l204 260h-209l-74 -157q-8 -16 -49 -103z" />
    <glyph glyph-name="cacute" unicode="&#x107;" horiz-adv-x="1024" 
d="M563 -34q-175 0 -298.5 92t-169.5 259q-25 92 -25 210v3q0 369 236 500q119 66 258 66q174 0 287.5 -88t146.5 -256q3 -15 -39 -17l-144 -22q-10 -1 -12 8q-48 207 -220 207h-27q-148 -37 -198 -94q-83 -96 -83 -302q0 -273 145 -361q61 -37 141 -37q221 0 257 256
q1 10 22 10q-31 0 73 -12q19 -1 58 -4q46 -4 44 -20q-29 -183 -147 -290q-121 -108 -305 -108zM993 357l-157 21q-41 -264 -275 -264q-306 0 -306 418q0 215 87 315q56 64 210 100l2 1h17q195 0 250 -214l155 24q-67 318 -412 318q-139 0 -248 -63q-116 -67 -170 -189
q-56 -127 -56 -294v-3q0 -373 257 -496q94 -45 216 -45q173 0 288 101q113 98 142 270zM776 1436l-195 -248q-4 -3 -8 -4h-149q-10 0 -10 9q2 6 14 32l114 240q9 19 15 19h236q11 0 11 -7q0 -5 -28 -41zM440 1204h128l204 260h-209l-74 -157q-8 -16 -49 -103z" />
    <glyph glyph-name="Ccircumflex" unicode="&#x108;" horiz-adv-x="1479" 
d="M1383 1067q3 -10 -8 -13l-191 -45q-9 -2 -12 7q-95 299 -382 299q-335 0 -433 -292q-45 -133 -45 -278q0 -395 219 -526q113 -68 244 -68q340 0 419 365q2 8 15 8q8 -3 78 -21q42 -3 117 -30q4 -2 4 -8l-2 -8l-2 -9q-49 -221 -220 -357q-159 -126 -393 -126
q-459 0 -621 382q-78 184 -78 397v1q0 278 128 470q138 207 399 267q83 19 175 19q220 0 373.5 -112t215.5 -322zM1386 458l-174 44q-41 -173 -149 -269q-114 -102 -288 -102q-147 0 -261 74.5t-167 209.5q-55 141 -55 330q0 373 220 515q116 75 278 75q298 0 399 -304
l171 40q-60 199 -209 306q-147 104 -357 104q-193 0 -348 -86q-163 -90 -248.5 -257t-85.5 -393v-1q0 -202 69 -371q79 -195 230 -293q146 -95 380 -95q227 0 382.5 123t211.5 346zM886 1540q-6 1 -8 5l-102 157l-105 -158q-4 -3 -8 -4h-206q-20 0 -8 16l199 258
q20 26 25 26h192q5 -1 8 -4l191 -238q37 -46 37 -51q0 -7 -11 -7h-204zM1069 1560l-209 260h-182l-201 -260h181l110 166q4 5 7 6q6 0 57 -80l59 -92h178z" />
    <glyph glyph-name="ccircumflex" unicode="&#x109;" horiz-adv-x="1024" 
d="M563 -34q-175 0 -298.5 92t-169.5 259q-25 92 -25 210v3q0 369 236 500q119 66 258 66q174 0 287.5 -88t146.5 -256q3 -15 -39 -17l-144 -22q-10 -1 -12 8q-48 207 -220 207h-27q-148 -37 -198 -94q-83 -96 -83 -302q0 -273 145 -361q61 -37 141 -37q221 0 257 256
q1 10 22 10q-31 0 73 -12q19 -1 58 -4q46 -4 44 -20q-29 -183 -147 -290q-121 -108 -305 -108zM993 357l-157 21q-41 -264 -275 -264q-306 0 -306 418q0 215 87 315q56 64 210 100l2 1h17q195 0 250 -214l155 24q-67 318 -412 318q-139 0 -248 -63q-116 -67 -170 -189
q-56 -127 -56 -294v-3q0 -373 257 -496q94 -45 216 -45q173 0 288 101q113 98 142 270zM704 1184q-6 1 -8 5l-102 157l-105 -158q-4 -3 -8 -4h-206q-20 0 -8 16l199 258q20 26 25 26h192q5 -1 8 -4l191 -238q37 -46 37 -51q0 -7 -11 -7h-204zM887 1204l-209 260h-182
l-201 -260h181l110 166q4 5 7 6q6 0 57 -80l59 -92h178z" />
    <glyph glyph-name="Cdot" unicode="&#x10a;" horiz-adv-x="1479" 
d="M1383 1067q3 -10 -8 -13l-191 -45q-9 -2 -12 7q-95 299 -382 299q-335 0 -433 -292q-45 -133 -45 -278q0 -395 219 -526q113 -68 244 -68q340 0 419 365q2 8 15 8q8 -3 78 -21q42 -3 117 -30q4 -2 4 -8l-2 -8l-2 -9q-49 -221 -220 -357q-159 -126 -393 -126
q-459 0 -621 382q-78 184 -78 397v1q0 278 128 470q138 207 399 267q83 19 175 19q220 0 373.5 -112t215.5 -322zM1386 458l-174 44q-41 -173 -149 -269q-114 -102 -288 -102q-147 0 -261 74.5t-167 209.5q-55 141 -55 330q0 373 220 515q116 75 278 75q298 0 399 -304
l171 40q-60 199 -209 306q-147 104 -357 104q-193 0 -348 -86q-163 -90 -248.5 -257t-85.5 -393v-1q0 -202 69 -371q79 -195 230 -293q146 -95 380 -95q227 0 382.5 123t211.5 346zM661 1584q-10 0 -10 10v224q0 10 10 10h223q10 0 10 -10v-224q0 -10 -10 -10h-223z
M874 1808h-203v-204h203v204z" />
    <glyph glyph-name="cdot" unicode="&#x10b;" horiz-adv-x="1024" 
d="M563 -34q-175 0 -298.5 92t-169.5 259q-25 92 -25 210v3q0 369 236 500q119 66 258 66q174 0 287.5 -88t146.5 -256q3 -15 -39 -17l-144 -22q-10 -1 -12 8q-48 207 -220 207h-27q-148 -37 -198 -94q-83 -96 -83 -302q0 -273 145 -361q61 -37 141 -37q221 0 257 256
q1 10 22 10q-31 0 73 -12q19 -1 58 -4q46 -4 44 -20q-29 -183 -147 -290q-121 -108 -305 -108zM993 357l-157 21q-41 -264 -275 -264q-306 0 -306 418q0 215 87 315q56 64 210 100l2 1h17q195 0 250 -214l155 24q-67 318 -412 318q-139 0 -248 -63q-116 -67 -170 -189
q-56 -127 -56 -294v-3q0 -373 257 -496q94 -45 216 -45q173 0 288 101q113 98 142 270zM469 1184q-10 0 -10 10v224q0 10 10 10h223q10 0 10 -10v-224q0 -10 -10 -10h-223zM682 1408h-203v-204h203v204z" />
    <glyph glyph-name="Ccaron" unicode="&#x10c;" horiz-adv-x="1479" 
d="M1383 1067q3 -10 -8 -13l-191 -45q-9 -2 -12 7q-95 299 -382 299q-335 0 -433 -292q-45 -133 -45 -278q0 -395 219 -526q113 -68 244 -68q340 0 419 365q2 8 15 8q8 -3 78 -21q42 -3 117 -30q4 -2 4 -8l-2 -8l-2 -9q-49 -221 -220 -357q-159 -126 -393 -126
q-459 0 -621 382q-78 184 -78 397v1q0 278 128 470q138 207 399 267q83 19 175 19q220 0 373.5 -112t215.5 -322zM1386 458l-174 44q-41 -173 -149 -269q-114 -102 -288 -102q-147 0 -261 74.5t-167 209.5q-55 141 -55 330q0 373 220 515q116 75 278 75q298 0 399 -304
l171 40q-60 199 -209 306q-147 104 -357 104q-193 0 -348 -86q-163 -90 -248.5 -257t-85.5 -393v-1q0 -202 69 -371q79 -195 230 -293q146 -95 380 -95q227 0 382.5 123t211.5 346zM888 1544q-4 -3 -8 -4h-192q-5 1 -8 4l-216 280q-12 16 8 16h206q6 -1 8 -4l105 -158l36 56
q68 106 74 106h204q21 0 8 -16zM1084 1820h-178l-107 -165q-3 -6 -7 -7q-5 0 -58 80l-61 92h-181l201 -260h182z" />
    <glyph glyph-name="ccaron" unicode="&#x10d;" horiz-adv-x="1024" 
d="M563 -34q-175 0 -298.5 92t-169.5 259q-25 92 -25 210v3q0 369 236 500q119 66 258 66q174 0 287.5 -88t146.5 -256q3 -15 -39 -17l-144 -22q-10 -1 -12 8q-48 207 -220 207h-27q-148 -37 -198 -94q-83 -96 -83 -302q0 -273 145 -361q61 -37 141 -37q221 0 257 256
q1 10 22 10q-31 0 73 -12q19 -1 58 -4q46 -4 44 -20q-29 -183 -147 -290q-121 -108 -305 -108zM993 357l-157 21q-41 -264 -275 -264q-306 0 -306 418q0 215 87 315q56 64 210 100l2 1h17q195 0 250 -214l155 24q-67 318 -412 318q-139 0 -248 -63q-116 -67 -170 -189
q-56 -127 -56 -294v-3q0 -373 257 -496q94 -45 216 -45q173 0 288 101q113 98 142 270zM658 1188q-4 -3 -8 -4h-192q-5 1 -8 4l-216 280q-12 16 8 16h206q6 -1 8 -4l105 -158l36 56q68 106 74 106h204q21 0 8 -16zM854 1464h-178l-107 -165q-3 -6 -7 -7q-5 0 -58 80l-61 92
h-181l201 -260h182z" />
    <glyph glyph-name="Dcaron" unicode="&#x10e;" horiz-adv-x="1479" 
d="M926 1455q354 -82 435 -502q19 -99 19 -212q0 -466 -277 -651q-150 -100 -416 -100h-529q-10 0 -10 10v1466q0 10 10 10h505q172 0 263 -21zM168 1456v-1446h519q235 0 378 81q160 91 237 298q58 157 58 352q0 252 -97 431q-114 211 -341 263q-91 21 -259 21h-495z
M362 1283v-1100h303q187 0 282 50q213 112 213 511q0 416 -256 510q-79 29 -244 29h-298zM660 1303q169 0 252 -31q268 -100 268 -528q0 -326 -149 -475q-106 -106 -366 -106h-313q-10 0 -10 10v1120q0 10 10 10h308zM697 1544q-4 -3 -8 -4h-192q-5 1 -8 4l-216 280
q-12 16 8 16h206q6 -1 8 -4l105 -158l36 56q68 106 74 106h204q21 0 8 -16zM893 1820h-178l-107 -165q-3 -6 -7 -7q-5 0 -58 80l-61 92h-181l201 -260h182z" />
    <glyph glyph-name="dcaron" unicode="&#x10f;" horiz-adv-x="1259" 
d="M1116 1012q-8 -3 -12 3q-46 71 -47 75q0 6 6 8q90 41 96 173h-81q-10 0 -10 10v185q0 10 10 10h184q10 0 10 -10v-185q0 -201 -156 -269zM1252 1281v175h-164v-165h81q12 0 12 -23q0 -131 -99 -183l34 -51q136 63 136 247zM825 -10q-10 0 -10 10v102q-103 -136 -287 -136
q-134 0 -244 75q-106 72 -164.5 197.5t-58.5 291.5q0 353 217 495q109 71 242 71q174 0 283 -127v497q0 10 10 10h179q10 0 10 -10v-1466q0 -10 -10 -10h-167zM835 10h147v1446h-159v-516q0 -9 -6 -11q-7 -2 -12 5q-103 142 -285 142q-132 0 -234.5 -69t-152.5 -192
q-52 -127 -52 -285q0 -332 219 -476q104 -68 228 -68q191 0 289 153q5 8 11 6q7 -2 7 -11v-124zM537 927q-147 0 -217 -133q-54 -103 -54 -264q0 -156 60 -263q75 -133 219 -133q143 0 215 125q58 101 58 256q0 165 -57 274q-72 138 -224 138zM838 515q0 -162 -64 -270
q-78 -131 -229 -131q-153 0 -233 138q-66 113 -66 278q0 171 59 279q75 138 232 138q161 0 239 -144q62 -114 62 -288z" />
    <glyph glyph-name="Dslash" unicode="&#x110;" horiz-adv-x="1479" 
d="M1308 351q-121 -276 -405 -344q-71 -17 -216 -17h-529q-10 0 -10 10v657h-151q-10 0 -10 10v132q0 10 10 10h151v657q0 10 10 10h506q160 0 254 -20q133 -28 227 -108q235 -199 235 -607q0 -226 -72 -390zM1360 741q0 254 -97 432q-115 210 -341 262q-91 21 -258 21h-496
v-657q0 -10 -10 -10h-151v-112h151q10 0 10 -10v-657h519q275 0 436 119q122 90 185 278q52 156 52 334zM1122 1014q-73 195 -232 245q-76 24 -230 24h-298v-474h394q10 0 10 -10v-132q0 -10 -10 -10h-394v-474h303q188 0 285 52q210 113 210 508q0 170 -38 271zM1180 743
q0 -325 -150 -475q-105 -105 -365 -105h-313q-10 0 -10 10v494q0 10 10 10h394v112h-394q-10 0 -10 10v494q0 10 10 10h308q135 0 203 -16q102 -24 175 -97q142 -142 142 -447z" />
    <glyph glyph-name="dcroat" unicode="&#x111;" 
d="M466 1209q-10 0 -10 10v132q0 10 10 10h336v105q0 10 10 10h179q10 0 10 -10v-105h135q10 0 10 -10v-132q0 -10 -10 -10h-135v-1209q0 -10 -10 -10h-167q-10 0 -10 10v102q-103 -136 -287 -136q-134 0 -244 75q-106 72 -164.5 197.5t-58.5 291.5q0 353 217 495
q109 71 242 71q174 0 283 -127v240h-336zM476 1229h336q10 0 10 -10v-279q0 -9 -6 -11q-7 -2 -12 5q-103 142 -285 142q-132 0 -234.5 -69t-152.5 -192q-52 -127 -52 -285q0 -332 219 -476q104 -68 228 -68q191 0 289 153q5 8 11 6q7 -2 7 -11v-124h147v1209q0 10 10 10h135
v112h-135q-10 0 -10 10v105h-159v-105q0 -10 -10 -10h-336v-112zM544 134q143 0 215 125q58 101 58 256q0 165 -57 274q-72 138 -224 138q-147 0 -217 -133q-54 -103 -54 -264q0 -156 60 -263q75 -133 219 -133zM245 530q0 171 59 279q75 138 232 138q161 0 239 -144
q62 -114 62 -288q0 -162 -64 -270q-78 -131 -229 -131q-153 0 -233 138q-66 113 -66 278z" />
    <glyph glyph-name="Emacron" unicode="&#x112;" horiz-adv-x="1366" 
d="M366 662v-479h890q10 0 10 -10v-173q0 -10 -10 -10h-1094q-10 0 -10 10v1466q0 10 10 10h1060q10 0 10 -10v-173q0 -10 -10 -10h-856v-429h801q10 0 10 -10v-172q0 -10 -10 -10h-801zM1212 1456h-1040v-1446h1074v153h-890q-10 0 -10 10v499q0 10 10 10h801v152h-801
q-10 0 -10 10v449q0 10 10 10h856v153zM414 1579q-10 0 -10 10v148q0 10 10 10h624q10 0 10 -10v-148q0 -10 -10 -10h-624zM1028 1599v128h-604v-128h604z" />
    <glyph glyph-name="emacron" unicode="&#x113;" 
d="M65 526q0 248 127 403q136 167 379 167q179 0 304 -99.5t168 -273.5q21 -86 21 -190q0 -6 -1 -48q0 -10 -10 -10h-781q16 -227 171 -309q61 -32 139 -32q195 0 271 211q2 8 10 7l93 -12q15 -2 93 -11q12 -1 9 -13q-95 -350 -477 -350q-250 0 -387 155q-129 148 -129 401
v4zM85 526v-4q0 -244 124 -386q131 -150 372 -150q360 0 454 325l-166 20q-82 -217 -287 -217q-153 0 -242 111q-80 99 -89 259q-1 11 10 11h782q1 25 1 38q0 236 -116 383q-127 160 -357 160q-235 0 -365 -161q-121 -149 -121 -389zM282 643h571q-14 126 -81 202
q-75 83 -196 83h-3q-123 0 -203 -82q-77 -78 -88 -203zM573 948h3q138 0 228 -108q58 -69 70 -206q1 -11 -10 -11h-593q-11 0 -10 11q9 137 91 224q86 90 221 90zM253 1217q-10 0 -10 10v148q0 10 10 10h624q10 0 10 -10v-148q0 -10 -10 -10h-624zM867 1237v128h-604v-128
h604z" />
    <glyph glyph-name="Ebreve" unicode="&#x114;" horiz-adv-x="1366" 
d="M366 662v-479h890q10 0 10 -10v-173q0 -10 -10 -10h-1094q-10 0 -10 10v1466q0 10 10 10h1060q10 0 10 -10v-173q0 -10 -10 -10h-856v-429h801q10 0 10 -10v-172q0 -10 -10 -10h-801zM1212 1456h-1040v-1446h1074v153h-890q-10 0 -10 10v499q0 10 10 10h801v152h-801
q-10 0 -10 10v449q0 10 10 10h856v153zM1009 1815q-16 -124 -97 -191t-207 -67q-274 0 -306 268q-1 11 10 11h123q8 0 10 -8q26 -127 157 -127q143 0 168 127q2 8 10 8h123q12 0 9 -21zM989 1818l1 9l10 -11h-115q-31 -135 -186 -135q-143 0 -175 135h-104q35 -239 285 -239
q257 0 284 241z" />
    <glyph glyph-name="ebreve" unicode="&#x115;" 
d="M65 526q0 248 127 403q136 167 379 167q179 0 304 -99.5t168 -273.5q21 -86 21 -190q0 -6 -1 -48q0 -10 -10 -10h-781q16 -227 171 -309q61 -32 139 -32q195 0 271 211q2 8 10 7l93 -12q15 -2 93 -11q12 -1 9 -13q-95 -350 -477 -350q-250 0 -387 155q-129 148 -129 401
v4zM85 526v-4q0 -244 124 -386q131 -150 372 -150q360 0 454 325l-166 20q-82 -217 -287 -217q-153 0 -242 111q-80 99 -89 259q-1 11 10 11h782q1 25 1 38q0 236 -116 383q-127 160 -357 160q-235 0 -365 -161q-121 -149 -121 -389zM282 643h571q-14 126 -81 202
q-75 83 -196 83h-3q-123 0 -203 -82q-77 -78 -88 -203zM573 948h3q138 0 228 -108q58 -69 70 -206q1 -11 -10 -11h-593q-11 0 -10 11q9 137 91 224q86 90 221 90zM890 1453q-16 -124 -97 -191t-207 -67q-274 0 -306 268q-1 11 10 11h123q8 0 10 -8q26 -127 157 -127
q143 0 168 127q2 8 10 8h123q12 0 9 -21zM870 1456l1 9l10 -11h-115q-31 -135 -186 -135q-143 0 -175 135h-104q35 -239 285 -239q257 0 284 241z" />
    <glyph glyph-name="Edot" unicode="&#x116;" horiz-adv-x="1366" 
d="M366 662v-479h890q10 0 10 -10v-173q0 -10 -10 -10h-1094q-10 0 -10 10v1466q0 10 10 10h1060q10 0 10 -10v-173q0 -10 -10 -10h-856v-429h801q10 0 10 -10v-172q0 -10 -10 -10h-801zM1212 1456h-1040v-1446h1074v153h-890q-10 0 -10 10v499q0 10 10 10h801v152h-801
q-10 0 -10 10v449q0 10 10 10h856v153zM614 1546q-10 0 -10 10v224q0 10 10 10h223q10 0 10 -10v-224q0 -10 -10 -10h-223zM827 1770h-203v-204h203v204z" />
    <glyph glyph-name="edot" unicode="&#x117;" 
d="M65 526q0 248 127 403q136 167 379 167q179 0 304 -99.5t168 -273.5q21 -86 21 -190q0 -6 -1 -48q0 -10 -10 -10h-781q16 -227 171 -309q61 -32 139 -32q195 0 271 211q2 8 10 7l93 -12q15 -2 93 -11q12 -1 9 -13q-95 -350 -477 -350q-250 0 -387 155q-129 148 -129 401
v4zM85 526v-4q0 -244 124 -386q131 -150 372 -150q360 0 454 325l-166 20q-82 -217 -287 -217q-153 0 -242 111q-80 99 -89 259q-1 11 10 11h782q1 25 1 38q0 236 -116 383q-127 160 -357 160q-235 0 -365 -161q-121 -149 -121 -389zM282 643h571q-14 126 -81 202
q-75 83 -196 83h-3q-123 0 -203 -82q-77 -78 -88 -203zM573 948h3q138 0 228 -108q58 -69 70 -206q1 -11 -10 -11h-593q-11 0 -10 11q9 137 91 224q86 90 221 90zM479 1184q-10 0 -10 10v224q0 10 10 10h223q10 0 10 -10v-224q0 -10 -10 -10h-223zM692 1408h-203v-204h203
v204z" />
    <glyph glyph-name="Eogonek" unicode="&#x118;" horiz-adv-x="1366" 
d="M366 662v-479h890q10 0 10 -10v-173q0 -10 -10 -10h-1094q-10 0 -10 10v1466q0 10 10 10h1060q10 0 10 -10v-173q0 -10 -10 -10h-856v-429h801q10 0 10 -10v-172q0 -10 -10 -10h-801zM1212 1456h-1040v-1446h1074v153h-890q-10 0 -10 10v499q0 10 10 10h801v152h-801
q-10 0 -10 10v449q0 10 10 10h856v153zM1201 -399q-103 -40 -179 -37q-101 4 -159 66.5t-58 164.5q0 87 41 232q2 7 10 7h124q15 0 5 -23q-34 -82 -34 -151q0 -62 36.5 -102t97.5 -40q72 0 164 45q14 7 14 -9v-119q0 -10 -62 -34zM1243 -262q-82 -40 -158 -40q-70 0 -112 46
t-42 116q0 71 34 154h-101q-39 -137 -39 -219q0 -146 116 -193q31 -12 73 -17l9 -1q12 -1 24 -1q80 0 196 58v97z" />
    <glyph glyph-name="eogonek" unicode="&#x119;" 
d="M65 526q0 248 127 403q136 167 379 167q179 0 304 -99.5t168 -273.5q21 -86 21 -190q0 -6 -1 -48q0 -10 -10 -10h-781q16 -227 171 -309q61 -32 139 -32q195 0 271 211q2 8 10 7l93 -12q15 -2 93 -11q12 -1 9 -13q-95 -350 -477 -350q-250 0 -387 155q-129 148 -129 401
v4zM85 526v-4q0 -244 124 -386q131 -150 372 -150q360 0 454 325l-166 20q-82 -217 -287 -217q-153 0 -242 111q-80 99 -89 259q-1 11 10 11h782q1 25 1 38q0 236 -116 383q-127 160 -357 160q-235 0 -365 -161q-121 -149 -121 -389zM282 643h571q-14 126 -81 202
q-75 83 -196 83h-3q-123 0 -203 -82q-77 -78 -88 -203zM573 948h3q138 0 228 -108q58 -69 70 -206q1 -11 -10 -11h-593q-11 0 -10 11q9 137 91 224q86 90 221 90zM886 -399q-103 -40 -179 -37q-101 4 -159 66.5t-58 164.5q0 87 41 232q2 7 10 7h124q15 0 5 -23
q-34 -82 -34 -151q0 -62 36.5 -102t97.5 -40q72 0 164 45q14 7 14 -9v-119q0 -10 -62 -34zM928 -262q-82 -40 -158 -40q-70 0 -112 46t-42 116q0 71 34 154h-101q-39 -137 -39 -219q0 -146 116 -193q31 -12 73 -17l9 -1q12 -1 24 -1q80 0 196 58v97z" />
    <glyph glyph-name="Ecaron" unicode="&#x11a;" horiz-adv-x="1366" 
d="M366 662v-479h890q10 0 10 -10v-173q0 -10 -10 -10h-1094q-10 0 -10 10v1466q0 10 10 10h1060q10 0 10 -10v-173q0 -10 -10 -10h-856v-429h801q10 0 10 -10v-172q0 -10 -10 -10h-801zM1212 1456h-1040v-1446h1074v153h-890q-10 0 -10 10v499q0 10 10 10h801v152h-801
q-10 0 -10 10v449q0 10 10 10h856v153zM763 1544q-4 -3 -8 -4h-192q-5 1 -8 4l-216 280q-12 16 8 16h206q6 -1 8 -4l105 -158l36 56q68 106 74 106h204q21 0 8 -16zM959 1820h-178l-107 -165q-3 -6 -7 -7q-5 0 -58 80l-61 92h-181l201 -260h182z" />
    <glyph glyph-name="ecaron" unicode="&#x11b;" 
d="M65 526q0 248 127 403q136 167 379 167q179 0 304 -99.5t168 -273.5q21 -86 21 -190q0 -6 -1 -48q0 -10 -10 -10h-781q16 -227 171 -309q61 -32 139 -32q195 0 271 211q2 8 10 7l93 -12q15 -2 93 -11q12 -1 9 -13q-95 -350 -477 -350q-250 0 -387 155q-129 148 -129 401
v4zM85 526v-4q0 -244 124 -386q131 -150 372 -150q360 0 454 325l-166 20q-82 -217 -287 -217q-153 0 -242 111q-80 99 -89 259q-1 11 10 11h782q1 25 1 38q0 236 -116 383q-127 160 -357 160q-235 0 -365 -161q-121 -149 -121 -389zM282 643h571q-14 126 -81 202
q-75 83 -196 83h-3q-123 0 -203 -82q-77 -78 -88 -203zM573 948h3q138 0 228 -108q58 -69 70 -206q1 -11 -10 -11h-593q-11 0 -10 11q9 137 91 224q86 90 221 90zM680 1188q-4 -3 -8 -4h-192q-5 1 -8 4l-216 280q-12 16 8 16h206q6 -1 8 -4l105 -158l36 56q68 106 74 106
h204q21 0 8 -16zM876 1464h-178l-107 -165q-3 -6 -7 -7q-5 0 -58 80l-61 92h-181l201 -260h182z" />
    <glyph glyph-name="Gcircumflex" unicode="&#x11c;" horiz-adv-x="1593" 
d="M1265 565h-421q-10 0 -10 10v172q0 10 10 10l621 1q10 0 10 -10v-544q0 -5 -28 -26l-27 -20q-261 -193 -562 -193q-220 0 -392 84q-195 96 -276 281v2q-91 326 -91 394q0 220 81 398q94 206 271 286h2q321 91 390 91q339 0 497 -199q9 -14 36 -59q53 -90 77 -185
q3 -10 -30 -19l-152 -41q-10 -3 -13 7q-33 111 -79 172q-144 138 -335 138q-442 0 -515 -444q-10 -61 -10 -133q0 -387 258 -515q127 -63 270 -63q105 0 221 40q121 41 197 107v258zM1455 209v529l-601 -1v-152h421q10 0 10 -10v-273q0 -37 -188 -113q-122 -49 -250 -49
q-160 0 -287 70q-136 75 -201 213q-60 129 -60 315q0 272 135 430q143 167 410 167q205 0 349 -144l1 -1q42 -42 81 -170l78 22l78 21q-28 105 -107 227q-152 191 -481 191q-142 0 -383 -89q-169 -91 -260 -284q-81 -173 -81 -382q0 -140 89 -387q91 -176 273 -269
q166 -85 377 -85q302 0 551 189zM980 1535q-6 1 -8 5l-102 157l-105 -158q-4 -3 -8 -4h-206q-20 0 -8 16l199 258q20 26 25 26h192q5 -1 8 -4l191 -238q37 -46 37 -51q0 -7 -11 -7h-204zM1163 1555l-209 260h-182l-201 -260h181l110 166q4 5 7 6q6 0 57 -80l59 -92h178z" />
    <glyph glyph-name="gcircumflex" unicode="&#x11d;" 
d="M809 113q-116 -123 -284 -123q-223 0 -352 166q-117 151 -117 381q0 234 115 388q128 171 355 171q179 0 300 -135v101q0 10 10 10h166q10 0 10 -10v-918q0 -249 -52 -356q-111 -229 -438 -229q-190 0 -302 79q-132 92 -128 274q0 11 20 11q-14 0 86 -15l80 -12
q7 -1 18 -44q13 -50 48 -76q65 -48 177 -48q227 0 275 183q13 49 13 202zM522 -421q314 0 421 218q49 100 49 347v908h-146v-118q0 -9 -6 -11t-12 5q-119 148 -302 148q-219 0 -341 -165q-109 -148 -109 -374q0 -222 111 -367q123 -160 338 -160q169 0 286 136q5 6 12 4
q6 -2 6 -11q1 -181 -13 -234q-52 -197 -295 -197q-225 0 -253 169l-156 23q0 -166 127 -250q107 -71 283 -71zM539 927q-143 0 -217 -123q-61 -102 -61 -254q0 -163 58 -264q72 -127 223 -127q282 0 282 385q0 156 -63 259q-76 124 -222 124zM844 544q0 -169 -65 -276
q-78 -129 -237 -129q-161 0 -238 132q-63 107 -63 279q0 160 67 268q80 129 231 129q154 0 236 -130q69 -110 69 -273zM654 1184q-6 1 -8 5l-102 157l-105 -158q-4 -3 -8 -4h-206q-20 0 -8 16l199 258q20 26 25 26h192q5 -1 8 -4l191 -238q37 -46 37 -51q0 -7 -11 -7h-204z
M837 1204l-209 260h-182l-201 -260h181l110 166q4 5 7 6q6 0 57 -80l59 -92h178z" />
    <glyph glyph-name="Gbreve" unicode="&#x11e;" horiz-adv-x="1593" 
d="M1265 565h-421q-10 0 -10 10v172q0 10 10 10l621 1q10 0 10 -10v-544q0 -5 -28 -26l-27 -20q-261 -193 -562 -193q-220 0 -392 84q-195 96 -276 281v2q-91 326 -91 394q0 220 81 398q94 206 271 286h2q321 91 390 91q339 0 497 -199q9 -14 36 -59q53 -90 77 -185
q3 -10 -30 -19l-152 -41q-10 -3 -13 7q-33 111 -79 172q-144 138 -335 138q-442 0 -515 -444q-10 -61 -10 -133q0 -387 258 -515q127 -63 270 -63q105 0 221 40q121 41 197 107v258zM1455 209v529l-601 -1v-152h421q10 0 10 -10v-273q0 -37 -188 -113q-122 -49 -250 -49
q-160 0 -287 70q-136 75 -201 213q-60 129 -60 315q0 272 135 430q143 167 410 167q205 0 349 -144l1 -1q42 -42 81 -170l78 22l78 21q-28 105 -107 227q-152 191 -481 191q-142 0 -383 -89q-169 -91 -260 -284q-81 -173 -81 -382q0 -140 89 -387q91 -176 273 -269
q166 -85 377 -85q302 0 551 189zM1172 1804q-16 -124 -97 -191t-207 -67q-274 0 -306 268q-1 11 10 11h123q8 0 10 -8q26 -127 157 -127q143 0 168 127q2 8 10 8h123q12 0 9 -21zM1152 1807l1 9l10 -11h-115q-31 -135 -186 -135q-143 0 -175 135h-104q35 -239 285 -239
q257 0 284 241z" />
    <glyph glyph-name="gbreve" unicode="&#x11f;" 
d="M809 113q-116 -123 -284 -123q-223 0 -352 166q-117 151 -117 381q0 234 115 388q128 171 355 171q179 0 300 -135v101q0 10 10 10h166q10 0 10 -10v-918q0 -249 -52 -356q-111 -229 -438 -229q-190 0 -302 79q-132 92 -128 274q0 11 20 11q-14 0 86 -15l80 -12
q7 -1 18 -44q13 -50 48 -76q65 -48 177 -48q227 0 275 183q13 49 13 202zM522 -421q314 0 421 218q49 100 49 347v908h-146v-118q0 -9 -6 -11t-12 5q-119 148 -302 148q-219 0 -341 -165q-109 -148 -109 -374q0 -222 111 -367q123 -160 338 -160q169 0 286 136q5 6 12 4
q6 -2 6 -11q1 -181 -13 -234q-52 -197 -295 -197q-225 0 -253 169l-156 23q0 -166 127 -250q107 -71 283 -71zM539 927q-143 0 -217 -123q-61 -102 -61 -254q0 -163 58 -264q72 -127 223 -127q282 0 282 385q0 156 -63 259q-76 124 -222 124zM844 544q0 -169 -65 -276
q-78 -129 -237 -129q-161 0 -238 132q-63 107 -63 279q0 160 67 268q80 129 231 129q154 0 236 -130q69 -110 69 -273zM874 1453q-16 -124 -97 -191t-207 -67q-274 0 -306 268q-1 11 10 11h123q8 0 10 -8q26 -127 157 -127q143 0 168 127q2 8 10 8h123q12 0 9 -21zM854 1456
l1 9l10 -11h-115q-31 -135 -186 -135q-143 0 -175 135h-104q35 -239 285 -239q257 0 284 241z" />
    <glyph glyph-name="Gdot" unicode="&#x120;" horiz-adv-x="1593" 
d="M1265 565h-421q-10 0 -10 10v172q0 10 10 10l621 1q10 0 10 -10v-544q0 -5 -28 -26l-27 -20q-261 -193 -562 -193q-220 0 -392 84q-195 96 -276 281v2q-91 326 -91 394q0 220 81 398q94 206 271 286h2q321 91 390 91q339 0 497 -199q9 -14 36 -59q53 -90 77 -185
q3 -10 -30 -19l-152 -41q-10 -3 -13 7q-33 111 -79 172q-144 138 -335 138q-442 0 -515 -444q-10 -61 -10 -133q0 -387 258 -515q127 -63 270 -63q105 0 221 40q121 41 197 107v258zM1455 209v529l-601 -1v-152h421q10 0 10 -10v-273q0 -37 -188 -113q-122 -49 -250 -49
q-160 0 -287 70q-136 75 -201 213q-60 129 -60 315q0 272 135 430q143 167 410 167q205 0 349 -144l1 -1q42 -42 81 -170l78 22l78 21q-28 105 -107 227q-152 191 -481 191q-142 0 -383 -89q-169 -91 -260 -284q-81 -173 -81 -382q0 -140 89 -387q91 -176 273 -269
q166 -85 377 -85q302 0 551 189zM755 1535q-10 0 -10 10v224q0 10 10 10h223q10 0 10 -10v-224q0 -10 -10 -10h-223zM968 1759h-203v-204h203v204z" />
    <glyph glyph-name="gdot" unicode="&#x121;" 
d="M809 113q-116 -123 -284 -123q-223 0 -352 166q-117 151 -117 381q0 234 115 388q128 171 355 171q179 0 300 -135v101q0 10 10 10h166q10 0 10 -10v-918q0 -249 -52 -356q-111 -229 -438 -229q-190 0 -302 79q-132 92 -128 274q0 11 20 11q-14 0 86 -15l80 -12
q7 -1 18 -44q13 -50 48 -76q65 -48 177 -48q227 0 275 183q13 49 13 202zM522 -421q314 0 421 218q49 100 49 347v908h-146v-118q0 -9 -6 -11t-12 5q-119 148 -302 148q-219 0 -341 -165q-109 -148 -109 -374q0 -222 111 -367q123 -160 338 -160q169 0 286 136q5 6 12 4
q6 -2 6 -11q1 -181 -13 -234q-52 -197 -295 -197q-225 0 -253 169l-156 23q0 -166 127 -250q107 -71 283 -71zM539 927q-143 0 -217 -123q-61 -102 -61 -254q0 -163 58 -264q72 -127 223 -127q282 0 282 385q0 156 -63 259q-76 124 -222 124zM844 544q0 -169 -65 -276
q-78 -129 -237 -129q-161 0 -238 132q-63 107 -63 279q0 160 67 268q80 129 231 129q154 0 236 -130q69 -110 69 -273zM457 1184q-10 0 -10 10v224q0 10 10 10h223q10 0 10 -10v-224q0 -10 -10 -10h-223zM670 1408h-203v-204h203v204z" />
    <glyph glyph-name="Gcedilla" unicode="&#x122;" horiz-adv-x="1593" 
d="M1265 565h-421q-10 0 -10 10v172q0 10 10 10l621 1q10 0 10 -10v-544q0 -5 -28 -26l-27 -20q-261 -193 -562 -193q-220 0 -392 84q-195 96 -276 281v2q-91 326 -91 394q0 220 81 398q94 206 271 286h2q321 91 390 91q339 0 497 -199q9 -14 36 -59q53 -90 77 -185
q3 -10 -30 -19l-152 -41q-10 -3 -13 7q-33 111 -79 172q-144 138 -335 138q-442 0 -515 -444q-10 -61 -10 -133q0 -387 258 -515q127 -63 270 -63q105 0 221 40q121 41 197 107v258zM1455 209v529l-601 -1v-152h421q10 0 10 -10v-273q0 -37 -188 -113q-122 -49 -250 -49
q-160 0 -287 70q-136 75 -201 213q-60 129 -60 315q0 272 135 430q143 167 410 167q205 0 349 -144l1 -1q42 -42 81 -170l78 22l78 21q-28 105 -107 227q-152 191 -481 191q-142 0 -383 -89q-169 -91 -260 -284q-81 -173 -81 -382q0 -140 89 -387q91 -176 273 -269
q166 -85 377 -85q302 0 551 189zM783 -431q-82 0 -146 12q-9 2 -8 11l11 117q1 10 11 9q58 -4 93 -4q151 0 151 65q0 55 -147 57q-10 0 -10 11q5 16 28 96l24 83q3 7 10 7h134q10 0 10 -10q-4 -16 -30 -99q168 -24 168 -155q0 -104 -104 -158q-81 -42 -195 -42zM1062 -231
q0 118 -162 137q-9 1 -9 13q4 13 29 94h-113l-46 -157q154 -4 154 -77q0 -85 -171 -85q17 0 -51 2l-34 1l-9 -98q58 -10 133 -10q105 0 181 37q98 48 98 143z" />
    <glyph glyph-name="gcedilla" unicode="&#x123;" 
d="M642 1170q0 -10 -10 -10h-209q-10 0 -10 10v117q0 230 174 298q7 3 12 -4q55 -84 56 -88q0 -7 -6 -9q-83 -34 -101 -129h84q10 0 10 -10v-175zM622 1180v155h-86q-11 0 -11 18q0 30 27 72q32 49 78 72l-43 67q-154 -65 -154 -277v-107h189zM278 -104q8 -1 9 -9
q16 -159 234 -159q226 0 269 161q18 68 19 224q-115 -123 -281 -123q-224 0 -353 165q-119 150 -119 380q0 239 114 391q126 170 358 170q177 0 298 -135v101q0 10 10 10h166q10 0 10 -10v-918q0 -203 -33 -305q-50 -153 -195 -224q-114 -56 -258 -56q-190 0 -305 79
q-134 92 -129 274q0 12 11 10zM268 -123l-156 23q0 -169 129 -252q107 -69 285 -69q140 0 247 52q125 60 174 177q45 107 45 336v908h-146v-118q0 -9 -6 -11t-12 5q-119 148 -300 148q-224 0 -345 -164q-107 -146 -107 -377q0 -221 113 -366q124 -159 339 -159
q169 0 283 135q6 7 12 5t6 -11q0 -160 -9 -209q-40 -222 -299 -222q-231 0 -253 169zM542 159q151 0 224 126q58 101 58 263q0 153 -64 256q-77 123 -221 123q-143 0 -217 -123q-61 -101 -61 -254q0 -163 58 -264q72 -127 223 -127zM241 550q0 161 67 269q79 128 231 128
q154 0 236 -128q69 -108 69 -271q0 -171 -64 -278q-78 -131 -238 -131q-161 0 -238 132q-63 107 -63 279z" />
    <glyph glyph-name="Hcircumflex" unicode="&#x124;" horiz-adv-x="1479" 
d="M151 1466q0 10 10 10h194q10 0 10 -10v-592h742v592q0 10 10 10h194q10 0 10 -10v-1466q0 -10 -10 -10h-194q-10 0 -10 10v681h-742v-681q0 -10 -10 -10h-194q-10 0 -10 10v1466zM171 1456v-1446h174v681q0 10 10 10h762q10 0 10 -10v-681h174v1446h-174v-592
q0 -10 -10 -10h-762q-10 0 -10 10v592h-174zM884 1546q-6 1 -8 5l-102 157l-105 -158q-4 -3 -8 -4h-206q-20 0 -8 16l199 258q20 26 25 26h192q5 -1 8 -4l191 -238q37 -46 37 -51q0 -7 -11 -7h-204zM1067 1566l-209 260h-182l-201 -260h181l110 166q4 5 7 6q6 0 57 -80
l59 -92h178z" />
    <glyph glyph-name="hcircumflex" unicode="&#x125;" 
d="M820 -10q-10 0 -10 10v673q0 248 -214 248q-77 0 -143 -39q-70 -41 -99 -109.5t-29 -191.5v-581q0 -10 -10 -10h-180q-10 0 -10 10v1466q0 10 10 10h180q10 0 10 -10v-500q125 130 308 130q256 0 339 -181q38 -83 38 -242v-673q0 -10 -10 -10h-180zM145 1456v-1446h160
v571q0 237 135 317q73 43 156 43q234 0 234 -268v-663h160v663q0 132 -25 204q-69 199 -332 199q-186 0 -310 -143q-5 -6 -12 -4q-6 2 -6 11v516h-160zM754 1546q-6 1 -8 5l-102 157l-105 -158q-4 -3 -8 -4h-206q-20 0 -8 16l199 258q20 26 25 26h192q5 -1 8 -4l191 -238
q37 -46 37 -51q0 -7 -11 -7h-204zM937 1566l-209 260h-182l-201 -260h181l110 166q4 5 7 6q6 0 57 -80l59 -92h178z" />
    <glyph glyph-name="Hbar" unicode="&#x126;" horiz-adv-x="1479" 
d="M31 1089q-10 0 -10 10v148q0 10 10 10h123v209q0 10 10 10h194q10 0 10 -10v-209h742v209q0 10 10 10h194q10 0 10 -10v-209h123q10 0 10 -10v-148q0 -10 -10 -10h-123v-1089q0 -10 -10 -10h-194q-10 0 -10 10v681h-742v-681q0 -10 -10 -10h-194q-10 0 -10 10v1089h-123z
M41 1109h123q10 0 10 -10v-1089h174v681q0 10 10 10h762q10 0 10 -10v-681h174v1089q0 10 10 10h123v128h-123q-10 0 -10 10v209h-174v-209q0 -10 -10 -10h-762q-10 0 -10 10v209h-174v-209q0 -10 -10 -10h-123v-128zM368 874h742v215h-742v-215zM348 864v235q0 10 10 10
h762q10 0 10 -10v-235q0 -10 -10 -10h-762q-10 0 -10 10z" />
    <glyph glyph-name="hbar" unicode="&#x127;" 
d="M6 1189q-10 0 -10 10v134q0 10 10 10h119v123q0 10 10 10h180q10 0 10 -10v-123h357q10 0 10 -10v-134q0 -10 -10 -10h-357v-223q121 130 310 130q375 0 375 -423v-673q0 -10 -10 -10h-180q-10 0 -10 10v673q0 248 -215 248q-270 0 -270 -340v-581q0 -10 -10 -10h-180
q-10 0 -10 10v1189h-119zM16 1209h119q10 0 10 -10v-1189h160v571q0 360 290 360q235 0 235 -268v-663h160v663q0 199 -78 296q-85 107 -277 107q-193 0 -312 -142q-6 -7 -12 -5t-6 11v259q0 10 10 10h357v114h-357q-10 0 -10 10v123h-160v-123q0 -10 -10 -10h-119v-114z
" />
    <glyph glyph-name="Itilde" unicode="&#x128;" horiz-adv-x="569" 
d="M385 1476q10 0 10 -10v-1466q0 -10 -10 -10h-194q-10 0 -10 10v1466q0 10 10 10h194zM375 1456h-184l10 10v-1456h174v1446zM603 1719q-43 -145 -193 -145q-53 0 -147 46t-117 46q-66 0 -66 -77v-8q0 -10 -10 -10h-133q-15 0 -7 58q12 84 69 137t141 53q53 0 190 -63
q45 -21 73 -21q51 0 62 69l1 6q2 12 10 12h130q11 0 11 -23q0 -33 -14 -80zM484 1801q-13 -86 -81 -86q-36 0 -117 40q-90 44 -146 44q-85 0 -137 -56q-56 -60 -56 -140v-12h113q2 95 86 95q28 0 121.5 -46t142.5 -46q176 0 186 208z" />
    <glyph glyph-name="itilde" unicode="&#x129;" horiz-adv-x="569" 
d="M388 0q0 -10 -10 -10h-180q-10 0 -10 10v1062q0 10 10 10h180q10 0 10 -10v-1062zM368 1052h-160v-1042h160v1042zM621 1357q-43 -145 -193 -145q-53 0 -147 46t-117 46q-66 0 -66 -77v-8q0 -10 -10 -10h-133q-15 0 -7 58q12 84 69 137t141 53q53 0 190 -63
q45 -21 73 -21q51 0 62 69l1 6q2 12 10 12h130q11 0 11 -23q0 -33 -14 -80zM502 1439q-13 -86 -81 -86q-36 0 -117 40q-90 44 -146 44q-85 0 -137 -56q-56 -60 -56 -140v-12h113q2 95 86 95q28 0 121.5 -46t142.5 -46q176 0 186 208z" />
    <glyph glyph-name="Imacron" unicode="&#x12a;" horiz-adv-x="569" 
d="M385 1476q10 0 10 -10v-1466q0 -10 -10 -10h-194q-10 0 -10 10v1466q0 10 10 10h194zM375 1456h-184l10 10v-1456h174v1446zM-28 1553q-10 0 -10 10v148q0 10 10 10h624q10 0 10 -10v-148q0 -10 -10 -10h-624zM586 1573v128h-604v-128h604z" />
    <glyph glyph-name="imacron" unicode="&#x12b;" horiz-adv-x="569" 
d="M388 0q0 -10 -10 -10h-180q-10 0 -10 10v1062q0 10 10 10h180q10 0 10 -10v-1062zM368 1052h-160v-1042h160v1042zM-23 1217q-10 0 -10 10v148q0 10 10 10h624q10 0 10 -10v-148q0 -10 -10 -10h-624zM591 1237v128h-604v-128h604z" />
    <glyph glyph-name="Ibreve" unicode="&#x12c;" horiz-adv-x="569" 
d="M385 1476q10 0 10 -10v-1466q0 -10 -10 -10h-194q-10 0 -10 10v1466q0 10 10 10h194zM375 1456h-184l10 10v-1456h174v1446zM599 1789q-16 -124 -97 -191t-207 -67q-274 0 -306 268q-1 11 10 11h123q8 0 10 -8q26 -127 157 -127q143 0 168 127q2 8 10 8h123q12 0 9 -21z
M579 1792l1 9l10 -11h-115q-31 -135 -186 -135q-143 0 -175 135h-104q35 -239 285 -239q257 0 284 241z" />
    <glyph glyph-name="ibreve" unicode="&#x12d;" horiz-adv-x="569" 
d="M388 0q0 -10 -10 -10h-180q-10 0 -10 10v1062q0 10 10 10h180q10 0 10 -10v-1062zM368 1052h-160v-1042h160v1042zM594 1453q-16 -124 -97 -191t-207 -67q-274 0 -306 268q-1 11 10 11h123q8 0 10 -8q26 -127 157 -127q143 0 168 127q2 8 10 8h123q12 0 9 -21zM574 1456
l1 9l10 -11h-115q-31 -135 -186 -135q-143 0 -175 135h-104q35 -239 285 -239q257 0 284 241z" />
    <glyph glyph-name="Iogonek" unicode="&#x12e;" horiz-adv-x="569" 
d="M299 -140q0 -61 37 -101.5t97 -40.5q74 0 163 45q15 8 15 -9v-119q-2 -7 -5 -9q-122 -62 -228 -62q-102 0 -163.5 64.5t-61.5 166.5q0 81 35 207v1464q0 10 10 10h194q10 0 10 -10v-1466q0 -10 -10 -10h-67q-26 -72 -26 -130zM279 -140q0 29 10 82q13 68 29 68h64v1446
h-174v-1458q-35 -124 -35 -203q0 -94 56 -152.5t149 -58.5q99 0 213 57v97q-85 -40 -158 -40q-69 0 -111.5 46t-42.5 116z" />
    <glyph glyph-name="iogonek" unicode="&#x12f;" horiz-adv-x="455" 
d="M126 1466q0 10 10 10h180q10 0 10 -10v-207q0 -10 -10 -10h-180q-10 0 -10 10v207zM146 1456v-187h160v187h-160zM238 -140q0 -61 37 -101.5t97 -40.5q74 0 163 45q15 8 15 -9v-119q-2 -7 -5 -9q-120 -61 -226 -61q-104 0 -165.5 63t-61.5 167q0 66 34 206v1061
q0 10 10 10h180q10 0 10 -10v-1062q0 -10 -10 -10h-52q-26 -72 -26 -130zM218 -140q0 29 10 82q13 68 29 68h49v1042h-160v-1054q-34 -139 -34 -203q0 -96 55.5 -153t151.5 -57q99 0 211 56v97q-85 -40 -158 -40q-69 0 -111.5 46t-42.5 116z" />
    <glyph glyph-name="Idotaccent" unicode="&#x130;" horiz-adv-x="569" 
d="M385 1476q10 0 10 -10v-1466q0 -10 -10 -10h-194q-10 0 -10 10v1466q0 10 10 10h194zM375 1456h-184l10 10v-1456h174v1446zM177 1546q-10 0 -10 10v224q0 10 10 10h223q10 0 10 -10v-224q0 -10 -10 -10h-223zM390 1770h-203v-204h203v204z" />
    <glyph glyph-name="dotlessi" unicode="&#x131;" horiz-adv-x="569" 
d="M388 0q0 -10 -10 -10h-180q-10 0 -10 10v1062q0 10 10 10h180q10 0 10 -10v-1062zM368 1052h-160v-1042h160v1042z" />
    <glyph glyph-name="IJ" unicode="&#x132;" horiz-adv-x="1505" 
d="M385 1476q10 0 10 -10v-1466q0 -10 -10 -10h-194q-10 0 -10 10v1466q0 10 10 10h194zM375 1456h-184l10 10v-1456h174v1446zM1410 467q0 -205 -45 -289l-1 -1q-21 -32 -47 -65q-114 -147 -329 -147q-198 0 -303 114q-1 1 -20 27q-85 115 -81 310q0 13 39 17q19 2 43 3
l102 14q11 1 11 -10q6 -163 59.5 -222.5t148.5 -59.5q63 0 115 29q58 32 74 88q2 5 6 18q14 53 14 163v1010q0 10 10 10h194q10 0 10 -10v-999zM1390 1456h-174v-1000q0 -109 -13 -160q-22 -87 -90 -126q-55 -32 -126 -32q-169 0 -209 159l-3 12q-12 48 -15 120l-156 -22
q-2 -182 77 -289q16 -22 19 -25q99 -108 288 -108q127 0 222 52q60 33 137 150q43 99 43 280v989z" />
    <glyph glyph-name="ij" unicode="&#x133;" horiz-adv-x="909" 
d="M136 1249q-10 0 -10 10v207q0 10 10 10h180q10 0 10 -10v-207q0 -10 -10 -10h-180zM306 1456h-160v-187h160v187zM326 0q0 -10 -10 -10h-180q-10 0 -10 10v1062q0 10 10 10h180q10 0 10 -10v-1062zM146 1052v-1042h160v1042h-160zM612 1247q-10 0 -10 10v209q0 10 10 10
h180q10 0 10 -10v-209q0 -10 -10 -10h-180zM782 1456h-160v-189h170l-10 -10v199zM796 -177q-29 -264 -271 -264q-158 0 -151 31l34 153q2 11 13 8q55 -14 82 -14q55 5 74 32q25 35 25 177v1116q0 10 10 10h180q10 0 10 -10v-1120q0 -65 -6 -119zM782 1052h-160v-1106
q0 -113 -11 -149q-24 -76 -108 -80q-24 -1 -77 12l-30 -134q62 -16 129 -16q157 0 215 110q42 79 42 253v1110z" />
    <glyph glyph-name="Jcircumflex" unicode="&#x134;" horiz-adv-x="1024" 
d="M875 467q0 -205 -45 -289l-1 -1q-21 -32 -47 -65q-114 -147 -329 -147q-198 0 -303 114q-1 1 -20 27q-85 115 -81 310q0 13 39 17q19 2 43 3l102 14q11 1 11 -10q6 -163 59.5 -222.5t148.5 -59.5q63 0 115 29q58 32 74 88q2 5 6 18q14 53 14 163v1010q0 10 10 10h194
q10 0 10 -10v-999zM855 1456h-174v-1000q0 -109 -13 -160q-22 -87 -90 -126q-55 -32 -126 -32q-169 0 -209 159l-3 12q-12 48 -15 120l-156 -22q-2 -182 77 -289q16 -22 19 -25q99 -108 288 -108q127 0 222 52q60 33 137 150q43 99 43 280v989zM904 1546q-6 1 -8 5l-102 157
l-105 -158q-4 -3 -8 -4h-206q-20 0 -8 16l199 258q20 26 25 26h192q5 -1 8 -4l191 -238q37 -46 37 -51q0 -7 -11 -7h-204zM1087 1566l-209 260h-182l-201 -260h181l110 166q4 5 7 6q6 0 57 -80l59 -92h178z" />
    <glyph glyph-name="jcircumflex" unicode="&#x135;" horiz-adv-x="455" 
d="M125 1188q-4 -3 -8 -4h-205q-20 0 -8 16l216 280q4 3 8 4h192q5 -1 8 -4l224 -280q13 -16 -8 -16h-203q-6 1 -8 5l-103 157zM112 1204l110 166q8 12 16 -1l108 -165h177l-208 260h-182l-201 -260h180zM-70 -257q2 11 13 8q52 -14 82 -14q72 0 91 74q8 30 8 135v1116
q0 10 10 10h180q10 0 10 -10v-1120q0 -183 -47 -269q-64 -114 -230 -114q-158 0 -151 31zM-52 -271l-30 -134q62 -16 129 -16q157 0 215 109q42 78 42 254v1110h-160v-1106q0 -112 -11 -150q-24 -79 -108 -79q-31 0 -77 12z" />
    <glyph glyph-name="Kcedilla" unicode="&#x136;" horiz-adv-x="1366" 
d="M1106 -10q-6 1 -8 4l-515 733l-229 -223v-504q0 -10 -10 -10h-194q-10 0 -10 10v1466q0 10 10 10h194q10 0 10 -10v-703l711 710q4 3 7 3h263q25 0 7 -17l-609 -588l637 -865q12 -16 -8 -16h-256zM1342 10l-630 856q-5 7 1 13l597 577h-234l-725 -724q-17 -17 -17 7v717
h-174v-1446h174v498q1 5 3 7l240 234q8 8 15 -1l519 -738h231zM739 -36q109 0 181 -41q90 -50 90 -151q0 -108 -104 -161q-82 -42 -199 -42q-67 0 -142 12q-9 1 -8 11l11 117q1 10 11 9q42 -4 86 -4q157 0 157 66q0 57 -117 57q-42 0 -42 8v105q0 9 9 10q35 4 67 4zM739 -56
q-26 0 -56 -3v-85q12 1 22 1q137 0 137 -77q0 -86 -177 -86q-39 0 -78 3l-9 -98q71 -10 129 -10q108 0 184 37q99 48 99 146q0 91 -85 136q-67 36 -166 36z" />
    <glyph glyph-name="kcedilla" unicode="&#x137;" horiz-adv-x="1024" 
d="M326 654l409 415q4 3 7 3h233q25 0 7 -17l-400 -388l442 -661q11 -16 -8 -16h-222q-6 1 -8 5l-345 532l-115 -110v-417q0 -10 -10 -10h-180q-10 0 -10 10v1466q0 10 10 10h180q10 0 10 -10v-812zM146 1456v-1446h160v411q1 5 3 7l52 50q78 75 83 75t7 -5l348 -538h198
l-436 652q-5 7 1 13l388 377h-204l-401 -406q-27 -27 -33 -27t-6 11v826h-160zM568 -36q109 0 181 -41q90 -50 90 -151q0 -108 -104 -161q-82 -42 -199 -42q-67 0 -142 12q-9 1 -8 11l11 117q1 10 11 9q42 -4 86 -4q157 0 157 66q0 57 -117 57q-42 0 -42 8v105q0 9 9 10
q35 4 67 4zM568 -56q-26 0 -56 -3v-85q12 1 22 1q137 0 137 -77q0 -86 -177 -86q-39 0 -78 3l-9 -98q71 -10 129 -10q108 0 184 37q99 48 99 146q0 91 -85 136q-67 36 -166 36z" />
    <glyph glyph-name="kgreenlandic" unicode="&#x138;" horiz-adv-x="1024" 
d="M124 1062q0 10 10 10h180q10 0 10 -10v-408l409 415q4 3 7 3h233q25 0 7 -17l-400 -388l442 -661q11 -16 -8 -16h-222q-6 1 -8 5l-345 532l-115 -110v-417q0 -10 -10 -10h-180q-10 0 -10 10v1062zM144 1052v-1042h160v411q1 5 3 7l127 122q8 8 15 -2l348 -538h198
l-436 652q-5 7 1 13l388 377h-204l-423 -429q-17 -17 -17 7v422h-160z" />
    <glyph glyph-name="Lacute" unicode="&#x139;" 
d="M150 -10q-10 0 -10 10v1466q0 10 10 10h194q10 0 10 -10v-1283h712q10 0 10 -10v-173q0 -10 -10 -10h-916zM1056 10v153h-712q-10 0 -10 10v1283h-174v-1446h896zM656 1798l-195 -248q-4 -3 -8 -4h-149q-10 0 -10 9q2 6 14 32l114 240q9 19 15 19h236q11 0 11 -7
q0 -5 -28 -41zM320 1566h128l204 260h-209l-74 -157q-8 -16 -49 -103z" />
    <glyph glyph-name="lacute" unicode="&#x13a;" horiz-adv-x="455" 
d="M321 0q0 -10 -10 -10h-180q-10 0 -10 10v1466q0 10 10 10h180q10 0 10 -10v-1466zM301 1456h-160v-1446h160v1446zM418 1783l-195 -248q-4 -3 -8 -4h-149q-10 0 -10 9q2 6 14 32l114 240q9 19 15 19h236q11 0 11 -7q0 -5 -28 -41zM82 1551h128l204 260h-209l-74 -157
q-8 -16 -49 -103z" />
    <glyph glyph-name="Lcedilla" unicode="&#x13b;" 
d="M150 -10q-10 0 -10 10v1466q0 10 10 10h194q10 0 10 -10v-1283h712q10 0 10 -10v-173q0 -10 -10 -10h-916zM1056 10v153h-712q-10 0 -10 10v1283h-174v-1446h896zM619 -36q109 0 181 -41q90 -50 90 -151q0 -108 -104 -161q-82 -42 -199 -42q-67 0 -142 12q-9 1 -8 11
l11 117q1 10 11 9q42 -4 86 -4q157 0 157 66q0 57 -117 57q-42 0 -42 8v105q0 9 9 10q35 4 67 4zM619 -56q-26 0 -56 -3v-85q12 1 22 1q137 0 137 -77q0 -86 -177 -86q-39 0 -78 3l-9 -98q71 -10 129 -10q108 0 184 37q99 48 99 146q0 91 -85 136q-67 36 -166 36z" />
    <glyph glyph-name="lcedilla" unicode="&#x13c;" horiz-adv-x="455" 
d="M321 0q0 -10 -10 -10h-180q-10 0 -10 10v1466q0 10 10 10h180q10 0 10 -10v-1466zM301 1456h-160v-1446h160v1446zM169 -36q109 0 181 -41q90 -50 90 -151q0 -108 -104 -161q-82 -42 -199 -42q-67 0 -142 12q-9 1 -8 11l11 117q1 10 11 9q42 -4 86 -4q157 0 157 66
q0 57 -117 57q-42 0 -42 8v105q0 9 9 10q35 4 67 4zM169 -56q-26 0 -56 -3v-85q12 1 22 1q137 0 137 -77q0 -86 -177 -86q-39 0 -78 3l-9 -98q71 -10 129 -10q108 0 184 37q99 48 99 146q0 91 -85 136q-67 36 -166 36z" />
    <glyph glyph-name="Lcaron" unicode="&#x13d;" 
d="M754 962q-8 -4 -12 4q-50 74 -52 82q0 7 6 9q102 45 108 194h-92q-10 0 -10 10v205q0 10 10 10h205q10 0 10 -10v-205q0 -223 -173 -299zM907 1261v195h-185v-185h92q12 0 12 -24q0 -148 -111 -203l39 -60q153 71 153 277zM150 -10q-10 0 -10 10v1466q0 10 10 10h194
q10 0 10 -10v-1283h712q10 0 10 -10v-173q0 -10 -10 -10h-916zM160 10h896v153h-712q-10 0 -10 10v1283h-174v-1446z" />
    <glyph glyph-name="lcaron" unicode="&#x13e;" horiz-adv-x="597" 
d="M450 1012q-8 -3 -12 3q-46 71 -47 75q0 6 6 8q90 41 96 173h-81q-10 0 -10 10v185q0 10 10 10h184q10 0 10 -10v-185q0 -201 -156 -269zM586 1281v175h-164v-165h81q12 0 12 -23q0 -131 -99 -183l34 -51q136 63 136 247zM136 -10q-10 0 -10 10v1466q0 10 10 10h180
q10 0 10 -10v-1466q0 -10 -10 -10h-180zM146 10h160v1446h-160v-1446z" />
    <glyph glyph-name="Ldot" unicode="&#x13f;" 
d="M150 -10q-10 0 -10 10v1466q0 10 10 10h194q10 0 10 -10v-1283h712q10 0 10 -10v-173q0 -10 -10 -10h-916zM1056 10v153h-712q-10 0 -10 10v1283h-174v-1446h896zM725 627q-10 0 -10 10v205q0 10 10 10h205q10 0 10 -10v-205q0 -10 -10 -10h-205zM735 647h185v185h-185
v-185z" />
    <glyph glyph-name="ldot" unicode="&#x140;" horiz-adv-x="684" 
d="M321 0q0 -10 -10 -10h-180q-10 0 -10 10v1466q0 10 10 10h180q10 0 10 -10v-1466zM301 1456h-160v-1446h160v1446zM471 627q-10 0 -10 10v205q0 10 10 10h205q10 0 10 -10v-205q0 -10 -10 -10h-205zM481 647h185v185h-185v-185z" />
    <glyph glyph-name="Lslash" unicode="&#x141;" 
d="M145 -10q-10 0 -10 10v543l-129 -109q-16 -14 -16 8v167q1 6 4 8l141 121v728q0 10 10 10h194q10 0 10 -10v-546l316 267q16 14 16 -8v-167q-1 -6 -4 -8l-328 -278v-543h718q10 0 10 -10v-173q0 -10 -10 -10h-922zM1057 10v153h-718q-10 0 -10 10v558q1 6 4 8l328 278
v140l-316 -267q-16 -14 -16 8v558h-174v-723q-1 -6 -4 -8l-141 -121v-140l129 109q16 14 16 -8v-555h902z" />
    <glyph glyph-name="lslash" unicode="&#x142;" horiz-adv-x="455" 
d="M322 906l119 101q16 14 16 -8v-157q-1 -6 -4 -8l-131 -112v-722q0 -10 -10 -10h-179q-10 0 -10 10v552l-114 -96q-16 -13 -16 8v158q1 6 4 8l126 107v729q0 10 10 10h179q10 0 10 -10v-560zM437 847v130l-104 -88q-19 -16 -24 -16q-7 0 -7 11v572h-159v-724q-1 -6 -4 -8
l-126 -107v-131l114 96q16 13 16 -8v-564h159v717q1 6 4 8z" />
    <glyph glyph-name="Nacute" unicode="&#x143;" horiz-adv-x="1479" 
d="M352 1119v-1119q0 -10 -10 -10h-186q-10 0 -10 10v1466q0 10 10 10h199q6 -1 8 -4l752 -1124v1118q0 10 10 10h186q10 0 10 -10v-1466q0 -10 -10 -10h-199q-6 1 -8 4zM166 1456v-1446h166v1142q0 9 7 11q6 2 11 -5l767 -1148h184v1446h-166v-1141q0 -9 -7 -11
q-6 -2 -11 5l-767 1147h-184zM922 1798l-195 -248q-4 -3 -8 -4h-149q-10 0 -10 9q2 6 14 32l114 240q9 19 15 19h236q11 0 11 -7q0 -5 -28 -41zM586 1566h128l204 260h-209l-74 -157q-8 -16 -49 -103z" />
    <glyph glyph-name="nacute" unicode="&#x144;" 
d="M307 942q118 154 328 154q213 0 305 -129q68 -95 68 -304v-663q0 -10 -10 -10h-180q-10 0 -10 10v646q0 94 -12 137q-38 137 -201 137q-51 0 -97 -16q-103 -36 -143 -127q-30 -69 -30 -197v-580q0 -10 -10 -10h-180q-10 0 -10 10v1062q0 10 10 10h162q10 0 10 -10v-120z
M988 10v653q0 149 -27 223q-39 107 -153 156q-79 34 -173 34q-216 0 -330 -171q-5 -7 -11 -5q-7 2 -7 11v141h-142v-1042h160v570q0 132 34 208q44 97 152 135q49 17 103 17q164 0 212 -126q22 -57 22 -168v-636h160zM800 1436l-195 -248q-4 -3 -8 -4h-149q-10 0 -10 9
q2 6 14 32l114 240q9 19 15 19h236q11 0 11 -7q0 -5 -28 -41zM464 1204h128l204 260h-209l-74 -157q-8 -16 -49 -103z" />
    <glyph glyph-name="Ncedilla" unicode="&#x145;" horiz-adv-x="1479" 
d="M352 1119v-1119q0 -10 -10 -10h-186q-10 0 -10 10v1466q0 10 10 10h199q6 -1 8 -4l752 -1124v1118q0 10 10 10h186q10 0 10 -10v-1466q0 -10 -10 -10h-199q-6 1 -8 4zM166 1456v-1446h166v1142q0 9 7 11q6 2 11 -5l767 -1148h184v1446h-166v-1141q0 -9 -7 -11
q-6 -2 -11 5l-767 1147h-184zM765 -36q109 0 181 -41q90 -50 90 -151q0 -108 -104 -161q-82 -42 -199 -42q-67 0 -142 12q-9 1 -8 11l11 117q1 10 11 9q42 -4 86 -4q157 0 157 66q0 57 -117 57q-42 0 -42 8v105q0 9 9 10q35 4 67 4zM765 -56q-26 0 -56 -3v-85q12 1 22 1
q137 0 137 -77q0 -86 -177 -86q-39 0 -78 3l-9 -98q71 -10 129 -10q108 0 184 37q99 48 99 146q0 91 -85 136q-67 36 -166 36z" />
    <glyph glyph-name="ncedilla" unicode="&#x146;" 
d="M307 942q118 154 328 154q213 0 305 -129q68 -95 68 -304v-663q0 -10 -10 -10h-180q-10 0 -10 10v646q0 94 -12 137q-38 137 -201 137q-51 0 -97 -16q-103 -36 -143 -127q-30 -69 -30 -197v-580q0 -10 -10 -10h-180q-10 0 -10 10v1062q0 10 10 10h162q10 0 10 -10v-120z
M988 10v653q0 149 -27 223q-39 107 -153 156q-79 34 -173 34q-216 0 -330 -171q-5 -7 -11 -5q-7 2 -7 11v141h-142v-1042h160v570q0 132 34 208q44 97 152 135q49 17 103 17q164 0 212 -126q22 -57 22 -168v-636h160zM529 -36q109 0 181 -41q90 -50 90 -151
q0 -108 -104 -161q-82 -42 -199 -42q-67 0 -142 12q-9 1 -8 11l11 117q1 10 11 9q42 -4 86 -4q157 0 157 66q0 57 -117 57q-42 0 -42 8v105q0 9 9 10q35 4 67 4zM529 -56q-26 0 -56 -3v-85q12 1 22 1q137 0 137 -77q0 -86 -177 -86q-39 0 -78 3l-9 -98q71 -10 129 -10
q108 0 184 37q99 48 99 146q0 91 -85 136q-67 36 -166 36z" />
    <glyph glyph-name="Ncaron" unicode="&#x147;" horiz-adv-x="1479" 
d="M352 1119v-1119q0 -10 -10 -10h-186q-10 0 -10 10v1466q0 10 10 10h199q6 -1 8 -4l752 -1124v1118q0 10 10 10h186q10 0 10 -10v-1466q0 -10 -10 -10h-199q-6 1 -8 4zM166 1456v-1446h166v1142q0 9 7 11q6 2 11 -5l767 -1148h184v1446h-166v-1141q0 -9 -7 -11
q-6 -2 -11 5l-767 1147h-184zM831 1550q-4 -3 -8 -4h-192q-5 1 -8 4l-216 280q-12 16 8 16h206q6 -1 8 -4l105 -158l36 56q68 106 74 106h204q21 0 8 -16zM1027 1826h-178l-107 -165q-3 -6 -7 -7q-5 0 -58 80l-61 92h-181l201 -260h182z" />
    <glyph glyph-name="ncaron" unicode="&#x148;" 
d="M307 942q118 154 328 154q213 0 305 -129q68 -95 68 -304v-663q0 -10 -10 -10h-180q-10 0 -10 10v646q0 94 -12 137q-38 137 -201 137q-51 0 -97 -16q-103 -36 -143 -127q-30 -69 -30 -197v-580q0 -10 -10 -10h-180q-10 0 -10 10v1062q0 10 10 10h162q10 0 10 -10v-120z
M988 10v653q0 149 -27 223q-39 107 -153 156q-79 34 -173 34q-216 0 -330 -171q-5 -7 -11 -5q-7 2 -7 11v141h-142v-1042h160v570q0 132 34 208q44 97 152 135q49 17 103 17q164 0 212 -126q22 -57 22 -168v-636h160zM682 1188q-4 -3 -8 -4h-192q-5 1 -8 4l-216 280
q-12 16 8 16h206q6 -1 8 -4l105 -158l36 56q68 106 74 106h204q21 0 8 -16zM878 1464h-178l-107 -165q-3 -6 -7 -7q-5 0 -58 80l-61 92h-181l201 -260h182z" />
    <glyph glyph-name="napostrophe" unicode="&#x149;" horiz-adv-x="1237" 
d="M547 942q118 154 328 154q213 0 305 -129q68 -95 68 -304v-663q0 -10 -10 -10h-180q-10 0 -10 10v646q0 94 -12 137q-38 137 -201 137q-51 0 -97 -16q-103 -36 -143 -127q-30 -69 -30 -197v-580q0 -10 -10 -10h-180q-10 0 -10 10v1062q0 10 10 10h162q10 0 10 -10v-120z
M1228 10v653q0 149 -27 223q-39 107 -153 156q-79 34 -173 34q-216 0 -330 -171q-5 -7 -11 -5q-7 2 -7 11v141h-142v-1042h160v570q0 132 34 208q44 97 152 135q49 17 103 17q164 0 212 -126q22 -57 22 -168v-636h160zM295 1118q-44 -83 -139 -126q-8 -4 -12 4
q-44 70 -46 77q0 6 6 8q96 39 104 181h-84q-10 0 -10 10v209q0 10 10 10h193q10 0 10 -10v-165q0 -138 -32 -198zM277 1128q30 57 30 188v155h-173v-189h84q12 0 12 -22q0 -64 -33 -123q-26 -46 -74 -70l33 -53q81 39 121 114z" />
    <glyph glyph-name="Eng" unicode="&#x14a;" horiz-adv-x="1481" 
d="M361 1476q10 0 10 -10v-156q176 191 456 191q344 0 487 -320q69 -155 69 -427q0 -315 -90 -514q-124 -275 -400 -275q-129 0 -253 73q-9 5 -4 14l87 153q5 9 14 4q96 -51 156 -51q162 0 235 253q38 131 38 338q0 569 -395 569q-119 0 -216 -53q-106 -58 -147 -162
q-37 -94 -37 -302v-801q0 -10 -10 -10h-196q-10 0 -10 10v1466q0 10 10 10h196zM351 1456h-176v-1446h176v791q0 211 39 309q43 109 155 171q102 57 226 57q415 0 415 -589q0 -401 -144 -544q-68 -67 -149 -67q-65 0 -157 49l-77 -136q114 -66 234 -66q267 0 385 269
q85 194 85 500q0 474 -246 648q-112 79 -290 79q-151 0 -254 -45q-106 -47 -204 -159q-5 -6 -12 -4q-6 2 -6 11v172z" />
    <glyph glyph-name="eng" unicode="&#x14b;" 
d="M1012 -58q0 -183 -47 -269q-64 -114 -230 -114q-158 0 -151 31l34 153q2 10 13 8q51 -14 82 -14q72 0 91 74q8 30 8 135v700q0 131 -40 194q-50 80 -173 80q-270 0 -270 -340v-580q0 -10 -10 -10h-180q-10 0 -10 10v1062q0 10 10 10h162q10 0 10 -10v-120
q118 154 328 154q116 0 206 -47q103 -53 138 -154q29 -84 29 -242v-711zM992 -58v711q0 141 -19 207q-63 216 -334 216q-216 0 -330 -171q-5 -7 -11 -5q-7 2 -7 11v141h-142v-1042h160v570q0 360 290 360q233 0 233 -294v-700q0 -111 -12 -150q-24 -79 -107 -79
q-30 0 -77 12l-30 -134q62 -16 129 -16q157 0 215 109q42 78 42 254z" />
    <glyph glyph-name="Omacron" unicode="&#x14c;" horiz-adv-x="1593" 
d="M1172 1404q339 -202 339 -673q0 -215 -83 -387q-92 -191 -267 -287q-168 -92 -361 -92q-318 0 -518 217q-193 211 -193 532v3q0 343 182 557q193 228 530 228q206 0 371 -98zM1162 1386q-162 96 -361 96q-246 0 -423 -134t-238 -371q-31 -120 -31 -260v-3
q0 -313 187 -518q194 -211 504 -211q195 0 353 90q164 94 251 264.5t87 391.5q0 460 -329 655zM455 1177q-101 -96 -128 -203q-18 -72 -18 -263q0 -238 124 -393q134 -167 366 -167q241 0 373 175q119 157 119 406q0 364 -233 511q-114 72 -255 72h-1q-202 0 -347 -138z
M441 1191q104 99 185 126q53 18 176 18h1q149 0 267.5 -75.5t179.5 -211t61 -316.5q0 -258 -125 -421q-137 -180 -387 -180q-173 0 -301.5 97t-178.5 263q-30 99 -30 220q0 335 152 480zM504 1589q-10 0 -10 10v148q0 10 10 10h624q10 0 10 -10v-148q0 -10 -10 -10h-624z
M1118 1609v128h-604v-128h604z" />
    <glyph glyph-name="omacron" unicode="&#x14d;" 
d="M1010 218q-43 -83 -86 -122q-27 -26 -99 -65q-116 -64 -259 -65q-229 -2 -376 155q-132 141 -132 397v16q0 298 167 442q139 120 341 120q239 0 377 -158q130 -149 130 -392q0 -207 -63 -328zM994 229q40 78 52 151q7 48 7 166q0 234 -124 378q-132 152 -363 152
q-193 0 -327 -116q-161 -139 -161 -426v-15q0 -249 134 -392t365 -141q132 1 242 64q115 65 175 179zM557 927q-121 0 -208 -99t-87 -297q0 -73 14 -140q24 -115 98 -184q78 -73 192 -73q159 0 237 128q65 106 65 275q0 160 -68 265q-80 125 -231 125h-12zM556 947h13
q120 0 203 -79q77 -73 103 -195q13 -62 13 -136q0 -177 -71 -289q-84 -134 -251 -134q-122 0 -206 77q-79 73 -104 196q-12 60 -13 144q-1 169 70 282q83 134 243 134zM264 1217q-10 0 -10 10v148q0 10 10 10h624q10 0 10 -10v-148q0 -10 -10 -10h-624zM878 1237v128h-604
v-128h604z" />
    <glyph glyph-name="Obreve" unicode="&#x14e;" horiz-adv-x="1593" 
d="M1172 1404q339 -202 339 -673q0 -215 -83 -387q-92 -191 -267 -287q-168 -92 -361 -92q-318 0 -518 217q-193 211 -193 532v3q0 343 182 557q193 228 530 228q206 0 371 -98zM1162 1386q-162 96 -361 96q-246 0 -423 -134t-238 -371q-31 -120 -31 -260v-3
q0 -313 187 -518q194 -211 504 -211q195 0 353 90q164 94 251 264.5t87 391.5q0 460 -329 655zM455 1177q-101 -96 -128 -203q-18 -72 -18 -263q0 -238 124 -393q134 -167 366 -167q241 0 373 175q119 157 119 406q0 364 -233 511q-114 72 -255 72h-1q-202 0 -347 -138z
M441 1191q104 99 185 126q53 18 176 18h1q149 0 267.5 -75.5t179.5 -211t61 -316.5q0 -258 -125 -421q-137 -180 -387 -180q-173 0 -301.5 97t-178.5 263q-30 99 -30 220q0 335 152 480zM1121 1815q-16 -124 -97 -191t-207 -67q-274 0 -306 268q-1 11 10 11h123q8 0 10 -8
q26 -127 157 -127q143 0 168 127q2 8 10 8h123q12 0 9 -21zM1101 1818l1 9l10 -11h-115q-31 -135 -186 -135q-143 0 -175 135h-104q35 -239 285 -239q257 0 284 241z" />
    <glyph glyph-name="obreve" unicode="&#x14f;" 
d="M1010 218q-43 -83 -86 -122q-27 -26 -99 -65q-116 -64 -259 -65q-229 -2 -376 155q-132 141 -132 397v16q0 298 167 442q139 120 341 120q239 0 377 -158q130 -149 130 -392q0 -207 -63 -328zM994 229q40 78 52 151q7 48 7 166q0 234 -124 378q-132 152 -363 152
q-193 0 -327 -116q-161 -139 -161 -426v-15q0 -249 134 -392t365 -141q132 1 242 64q115 65 175 179zM557 927q-121 0 -208 -99t-87 -297q0 -73 14 -140q24 -115 98 -184q78 -73 192 -73q159 0 237 128q65 106 65 275q0 160 -68 265q-80 125 -231 125h-12zM556 947h13
q120 0 203 -79q77 -73 103 -195q13 -62 13 -136q0 -177 -71 -289q-84 -134 -251 -134q-122 0 -206 77q-79 73 -104 196q-12 60 -13 144q-1 169 70 282q83 134 243 134zM881 1453q-16 -124 -97 -191t-207 -67q-274 0 -306 268q-1 11 10 11h123q8 0 10 -8q26 -127 157 -127
q143 0 168 127q2 8 10 8h123q12 0 9 -21zM861 1456l1 9l10 -11h-115q-31 -135 -186 -135q-143 0 -175 135h-104q35 -239 285 -239q257 0 284 241z" />
    <glyph glyph-name="Odblacute" unicode="&#x150;" horiz-adv-x="1593" 
d="M1172 1404q339 -202 339 -673q0 -215 -83 -387q-92 -191 -267 -287q-168 -92 -361 -92q-318 0 -518 217q-193 211 -193 532v3q0 343 182 557q193 228 530 228q206 0 371 -98zM1162 1386q-162 96 -361 96q-246 0 -423 -134t-238 -371q-31 -120 -31 -260v-3
q0 -313 187 -518q194 -211 504 -211q195 0 353 90q164 94 251 264.5t87 391.5q0 460 -329 655zM455 1177q-101 -96 -128 -203q-18 -72 -18 -263q0 -238 124 -393q134 -167 366 -167q241 0 373 175q119 157 119 406q0 364 -233 511q-114 72 -255 72h-1q-202 0 -347 -138z
M441 1191q104 99 185 126q53 18 176 18h1q149 0 267.5 -75.5t179.5 -211t61 -316.5q0 -258 -125 -421q-137 -180 -387 -180q-173 0 -301.5 97t-178.5 263q-30 99 -30 220q0 335 152 480zM979 1550q-4 -3 -8 -4h-151q-10 0 -10 10q1 3 35 78l93 206q2 5 9 6h231q20 0 8 -16z
M1158 1826h-205l-117 -260h130zM625 1550q-4 -3 -8 -4h-144q-10 0 -10 10q3 8 33 78l84 195q7 17 14 17h234q20 0 8 -16zM808 1826h-207l-113 -260h124z" />
    <glyph glyph-name="odblacute" unicode="&#x151;" 
d="M1010 218q-43 -83 -86 -122q-27 -26 -99 -65q-116 -64 -259 -65q-229 -2 -376 155q-132 141 -132 397v16q0 298 167 442q139 120 341 120q239 0 377 -158q130 -149 130 -392q0 -207 -63 -328zM994 229q40 78 52 151q7 48 7 166q0 234 -124 378q-132 152 -363 152
q-193 0 -327 -116q-161 -139 -161 -426v-15q0 -249 134 -392t365 -141q132 1 242 64q115 65 175 179zM557 927q-121 0 -208 -99t-87 -297q0 -73 14 -140q24 -115 98 -184q78 -73 192 -73q159 0 237 128q65 106 65 275q0 160 -68 265q-80 125 -231 125h-12zM556 947h13
q120 0 203 -79q77 -73 103 -195q13 -62 13 -136q0 -177 -71 -289q-84 -134 -251 -134q-122 0 -206 77q-79 73 -104 196q-12 60 -13 144q-1 169 70 282q83 134 243 134zM789 1188q-4 -3 -8 -4h-151q-10 0 -10 10q1 3 35 78l93 206q2 5 9 6h231q20 0 8 -16zM968 1464h-205
l-117 -260h130zM435 1188q-4 -3 -8 -4h-144q-10 0 -10 10q3 8 33 78l84 195q7 17 14 17h234q20 0 8 -16zM618 1464h-207l-113 -260h124z" />
    <glyph glyph-name="OE" unicode="&#x152;" horiz-adv-x="2048" 
d="M1312 663v-480h671q10 0 10 -10v-173q0 -10 -10 -10h-862q-10 0 -10 10v176q-137 -211 -390 -211q-307 0 -466 238q-136 204 -136 532q0 333 136 534q159 234 476 232q243 -2 380 -199v164q0 10 10 10h831q10 0 10 -10v-173q0 -10 -10 -10h-640v-428h589q10 0 10 -10
v-172q0 -10 -10 -10h-589zM1131 10h842v153h-671q-10 0 -10 10v500q0 10 10 10h589v152h-589q-10 0 -10 10v448q0 10 10 10h640v153h-811v-188q0 -9 -7 -11t-12 6q-133 218 -395 218q-46 0 -88 -5q-257 -31 -385 -265q-105 -193 -105 -476q0 -318 131 -518
q152 -232 451 -232q258 0 391 232q5 8 12 6t7 -11v-202zM987 1186q-78 95 -137 121q-40 17 -130 17q-98 0 -191 -63q-190 -129 -190 -541v-3q0 -413 231 -539q68 -37 150 -37q212 0 309 210q71 154 71 394q0 302 -113 441zM1002 1200q81 -100 103 -204q15 -70 15 -251
q0 -249 -76 -409q-102 -215 -324 -215q-213 0 -319 203q-82 159 -82 393v3q0 423 198 557q99 67 203 67q164 0 282 -144z" />
    <glyph glyph-name="oe" unicode="&#x153;" horiz-adv-x="1933" 
d="M1083 473q5 -144 82 -237q84 -102 224 -102q95 0 164 53q79 91 100 162q2 8 11 7l180 -26q12 -2 9 -13q-91 -351 -467 -351q-273 0 -409 192q-154 -192 -395 -192q-244 0 -380 157q-130 148 -130 395q0 377 242 511q121 67 270 67q270 0 395 -195q143 195 388 195
q206 0 335 -124q123 -118 154 -325q12 -79 11 -164q0 -10 -10 -10h-774zM1847 493q0 255 -110 408q-125 175 -370 175q-244 0 -381 -199q-9 -13 -17 1q-114 198 -385 198q-320 0 -434 -260q-58 -133 -58 -298q0 -239 124 -381q131 -151 366 -151q237 0 388 195q9 11 16 0
q129 -195 400 -195q353 0 444 326l-160 23q-29 -88 -103 -162l-1 -1q-75 -58 -177 -58q-152 0 -241 111q-82 102 -85 258q0 10 10 10h774zM1091 641h565q-12 128 -80 204q-74 83 -198 83q-122 0 -201 -84q-74 -78 -86 -203zM1378 948q136 0 215 -92q73 -84 84 -224
q1 -11 -10 -11h-587q-11 0 -10 11q11 137 90 223q84 93 218 93zM880 535q0 162 -69 268q-80 125 -234 125q-150 0 -231 -128q-69 -109 -69 -267q0 -183 69 -277q89 -122 231 -122q152 0 234 130q69 110 69 271zM577 114q-152 0 -247 130q-73 100 -73 289q0 166 75 281
q88 134 245 134q162 0 249 -131q74 -112 74 -282q0 -169 -75 -285q-88 -136 -248 -136z" />
    <glyph glyph-name="Racute" unicode="&#x154;" horiz-adv-x="1479" 
d="M1209 -10q-6 1 -8 5l-194 305q-55 87 -107 157q-80 109 -129 140q-42 27 -85 37q-58 7 -106 7h-215v-641q0 -10 -10 -10h-194q-10 0 -10 10v1466q0 10 10 10h650q175 0 267 -28q136 -42 206 -161q59 -100 59 -221q0 -337 -391 -404q134 -71 254 -258l255 -399
q10 -15 -8 -15h-244zM1435 10l-245 384q-72 113 -160 193q-37 34 -114 71q-9 4 -8 11t11 8q404 55 404 389q0 114 -55 210q-60 102 -161.5 141t-295.5 39h-640v-1446h174v641q0 10 10 10h225q47 0 109 -7h1q95 -17 193 -141q57 -72 140 -203l191 -300h221zM772 829
q242 0 314 111q37 57 37 126q0 228 -304 228h-454v-465h407zM772 809h-417q-10 0 -10 10v485q0 10 10 10h464q324 0 324 -248q0 -170 -160 -229q-76 -28 -211 -28zM855 1798l-195 -248q-4 -3 -8 -4h-149q-10 0 -10 9q2 6 14 32l114 240q9 19 15 19h236q11 0 11 -7
q0 -5 -28 -41zM519 1566h128l204 260h-209l-74 -157q-8 -16 -49 -103z" />
    <glyph glyph-name="racute" unicode="&#x155;" horiz-adv-x="682" 
d="M714 1009l-30 -79q-30 -79 -36 -79q-36 16 -93 36q-22 4 -39 3q-193 -12 -193 -334v-556q0 -10 -10 -10h-180q-10 0 -10 10v1062q0 10 10 10h162q10 0 10 -10v-123q94 157 220 157q95 0 190 -59q8 -5 -1 -28zM698 1024q-88 52 -173 52q-122 0 -221 -180q-4 -8 -12 -6
q-7 1 -7 11v151h-142v-1042h160v546q0 347 213 354q59 2 127 -34zM594 1436l-195 -248q-4 -3 -8 -4h-149q-10 0 -10 9q2 6 14 32l114 240q9 19 15 19h236q11 0 11 -7q0 -5 -28 -41zM258 1204h128l204 260h-209l-74 -157q-8 -16 -49 -103z" />
    <glyph glyph-name="Rcedilla" unicode="&#x156;" horiz-adv-x="1479" 
d="M1209 -10q-6 1 -8 5l-194 305q-55 87 -107 157q-80 109 -129 140q-42 27 -85 37q-58 7 -106 7h-215v-641q0 -10 -10 -10h-194q-10 0 -10 10v1466q0 10 10 10h650q175 0 267 -28q136 -42 206 -161q59 -100 59 -221q0 -337 -391 -404q134 -71 254 -258l255 -399
q10 -15 -8 -15h-244zM1435 10l-245 384q-72 113 -160 193q-37 34 -114 71q-9 4 -8 11t11 8q404 55 404 389q0 114 -55 210q-60 102 -161.5 141t-295.5 39h-640v-1446h174v641q0 10 10 10h225q47 0 109 -7h1q95 -17 193 -141q57 -72 140 -203l191 -300h221zM772 829
q242 0 314 111q37 57 37 126q0 228 -304 228h-454v-465h407zM772 809h-417q-10 0 -10 10v485q0 10 10 10h464q324 0 324 -248q0 -170 -160 -229q-76 -28 -211 -28zM765 -36q109 0 181 -41q90 -50 90 -151q0 -108 -104 -161q-82 -42 -199 -42q-67 0 -142 12q-9 1 -8 11
l11 117q1 10 11 9q42 -4 86 -4q157 0 157 66q0 57 -117 57q-42 0 -42 8v105q0 9 9 10q35 4 67 4zM765 -56q-26 0 -56 -3v-85q12 1 22 1q137 0 137 -77q0 -86 -177 -86q-39 0 -78 3l-9 -98q71 -10 129 -10q108 0 184 37q99 48 99 146q0 91 -85 136q-67 36 -166 36z" />
    <glyph glyph-name="rcedilla" unicode="&#x157;" horiz-adv-x="682" 
d="M714 1009l-30 -79q-30 -79 -36 -79q-36 16 -93 36q-22 4 -39 3q-193 -12 -193 -334v-556q0 -10 -10 -10h-180q-10 0 -10 10v1062q0 10 10 10h162q10 0 10 -10v-123q94 157 220 157q95 0 190 -59q8 -5 -1 -28zM698 1024q-88 52 -173 52q-122 0 -221 -180q-4 -8 -12 -6
q-7 1 -7 11v151h-142v-1042h160v546q0 347 213 354q59 2 127 -34zM316 -36q109 0 181 -41q90 -50 90 -151q0 -108 -104 -161q-82 -42 -199 -42q-67 0 -142 12q-9 1 -8 11l11 117q1 10 11 9q42 -4 86 -4q157 0 157 66q0 57 -117 57q-42 0 -42 8v105q0 9 9 10q35 4 67 4z
M316 -56q-26 0 -56 -3v-85q12 1 22 1q137 0 137 -77q0 -86 -177 -86q-39 0 -78 3l-9 -98q71 -10 129 -10q108 0 184 37q99 48 99 146q0 91 -85 136q-67 36 -166 36z" />
    <glyph glyph-name="Rcaron" unicode="&#x158;" horiz-adv-x="1479" 
d="M1209 -10q-6 1 -8 5l-194 305q-55 87 -107 157q-80 109 -129 140q-42 27 -85 37q-58 7 -106 7h-215v-641q0 -10 -10 -10h-194q-10 0 -10 10v1466q0 10 10 10h650q175 0 267 -28q136 -42 206 -161q59 -100 59 -221q0 -337 -391 -404q134 -71 254 -258l255 -399
q10 -15 -8 -15h-244zM1435 10l-245 384q-72 113 -160 193q-37 34 -114 71q-9 4 -8 11t11 8q404 55 404 389q0 114 -55 210q-60 102 -161.5 141t-295.5 39h-640v-1446h174v641q0 10 10 10h225q47 0 109 -7h1q95 -17 193 -141q57 -72 140 -203l191 -300h221zM772 829
q242 0 314 111q37 57 37 126q0 228 -304 228h-454v-465h407zM772 809h-417q-10 0 -10 10v485q0 10 10 10h464q324 0 324 -248q0 -170 -160 -229q-76 -28 -211 -28zM746 1544q-4 -3 -8 -4h-192q-5 1 -8 4l-216 280q-12 16 8 16h206q6 -1 8 -4l105 -158l36 56q68 106 74 106
h204q21 0 8 -16zM942 1820h-178l-107 -165q-3 -6 -7 -7q-5 0 -58 80l-61 92h-181l201 -260h182z" />
    <glyph glyph-name="rcaron" unicode="&#x159;" horiz-adv-x="682" 
d="M714 1009l-30 -79q-30 -79 -36 -79q-36 16 -93 36q-22 4 -39 3q-193 -12 -193 -334v-556q0 -10 -10 -10h-180q-10 0 -10 10v1062q0 10 10 10h162q10 0 10 -10v-123q94 157 220 157q95 0 190 -59q8 -5 -1 -28zM698 1024q-88 52 -173 52q-122 0 -221 -180q-4 -8 -12 -6
q-7 1 -7 11v151h-142v-1042h160v546q0 347 213 354q59 2 127 -34zM476 1188q-4 -3 -8 -4h-192q-5 1 -8 4l-216 280q-12 16 8 16h206q6 -1 8 -4l105 -158l36 56q68 106 74 106h204q21 0 8 -16zM672 1464h-178l-107 -165q-3 -6 -7 -7q-5 0 -58 80l-61 92h-181l201 -260h182z
" />
    <glyph glyph-name="Sacute" unicode="&#x15a;" horiz-adv-x="1366" 
d="M1200 188q-144 -223 -483 -223q-397 0 -553 237q-78 119 -82 269q0 9 43 13l149 13q10 1 11 -9q25 -209 202 -286q99 -43 221 -43q135 0 232 51q122 64 122 188q0 134 -166 198q-63 24 -259 71q-183 44 -266 83q-233 110 -233 337q0 124 69 221q67 93 184 142
q123 51 273 51q348 0 487 -212q69 -106 74 -236q0 -9 -56 -13l-139 -11q-10 -1 -11 9q-29 272 -347 272q-231 0 -303 -122q-24 -41 -24 -88q0 -111 136 -169q43 -19 231 -62q196 -45 272 -76q285 -115 285 -379q0 -119 -69 -226zM1184 199q65 100 65 215q0 237 -244 349
q-82 38 -297 87q-102 23 -164 42q-121 36 -159 71q-60 55 -60 137q0 125 118 184q91 46 229 46q330 0 366 -280l167 12q-10 169 -120 276q-103 101 -275 131q-69 12 -146 12q-319 0 -445 -192q-61 -93 -61 -202q0 -203 203 -310q91 -48 268 -89q206 -48 275 -74
q178 -68 178 -216q0 -158 -174 -225q-88 -34 -200 -34q-270 0 -381 162q-46 67 -61 175l-164 -14q7 -159 96.5 -274.5t241.5 -164.5q118 -38 277 -38q328 0 467 214zM844 1798l-195 -248q-4 -3 -8 -4h-149q-10 0 -10 9q2 6 14 32l114 240q9 19 15 19h236q11 0 11 -7
q0 -5 -28 -41zM508 1566h128l204 260h-209l-74 -157q-8 -16 -49 -103z" />
    <glyph glyph-name="sacute" unicode="&#x15b;" horiz-adv-x="1024" 
d="M149 341q80 11 89 14q12 0 15 -18q6 -40 19 -70q58 -133 244 -133q92 0 155 33q79 42 79 126q0 57 -48 88q-31 20 -222 70q-92 24 -236 76q-161 77 -161 253q0 149 125 240q105 76 276 76h13q254 0 354 -138q46 -63 64 -168q4 -24 -112 -26q-26 -5 -49 -9q-33 -5 -35 8
q-24 165 -222 165q-220 0 -220 -127q0 -69 85 -102q23 -9 158 -45q76 -20 267 -84q168 -64 168 -258q0 -100 -59 -182q-56 -78 -151 -120q-100 -44 -228 -44q-402 0 -464 349q-3 15 40 20q19 2 56 6zM75 309q62 -323 442 -323q260 0 367 162q51 77 51 164q0 137 -98 206
q-59 41 -221 88q-4 1 -102 28q-134 37 -160 47q-97 38 -97 120q0 147 240 147q209 0 240 -173l156 22q-33 183 -193 244q-92 35 -203 35h-13q-260 0 -350 -169q-31 -58 -31 -127q0 -163 150 -234q69 -33 232 -76q43 -11 128.5 -34.5t117.5 -52.5q39 -36 39 -90
q0 -93 -85 -140q-69 -39 -169 -39q-247 0 -283 220zM746 1436l-195 -248q-4 -3 -8 -4h-149q-10 0 -10 9q2 6 14 32l114 240q9 19 15 19h236q11 0 11 -7q0 -5 -28 -41zM410 1204h128l204 260h-209l-74 -157q-8 -16 -49 -103z" />
    <glyph glyph-name="Scircumflex" unicode="&#x15c;" horiz-adv-x="1366" 
d="M1200 188q-144 -223 -483 -223q-397 0 -553 237q-78 119 -82 269q0 9 43 13l149 13q10 1 11 -9q25 -209 202 -286q99 -43 221 -43q135 0 232 51q122 64 122 188q0 134 -166 198q-63 24 -259 71q-183 44 -266 83q-233 110 -233 337q0 124 69 221q67 93 184 142
q123 51 273 51q348 0 487 -212q69 -106 74 -236q0 -9 -56 -13l-139 -11q-10 -1 -11 9q-29 272 -347 272q-231 0 -303 -122q-24 -41 -24 -88q0 -111 136 -169q43 -19 231 -62q196 -45 272 -76q285 -115 285 -379q0 -119 -69 -226zM1184 199q65 100 65 215q0 237 -244 349
q-82 38 -297 87q-102 23 -164 42q-121 36 -159 71q-60 55 -60 137q0 125 118 184q91 46 229 46q330 0 366 -280l167 12q-10 169 -120 276q-103 101 -275 131q-69 12 -146 12q-319 0 -445 -192q-61 -93 -61 -202q0 -203 203 -310q91 -48 268 -89q206 -48 275 -74
q178 -68 178 -216q0 -158 -174 -225q-88 -34 -200 -34q-270 0 -381 162q-46 67 -61 175l-164 -14q7 -159 96.5 -274.5t241.5 -164.5q118 -38 277 -38q328 0 467 214zM786 1540q-6 1 -8 5l-102 157l-105 -158q-4 -3 -8 -4h-206q-20 0 -8 16l199 258q20 26 25 26h192
q5 -1 8 -4l191 -238q37 -46 37 -51q0 -7 -11 -7h-204zM969 1560l-209 260h-182l-201 -260h181l110 166q4 5 7 6q6 0 57 -80l59 -92h178z" />
    <glyph glyph-name="scircumflex" unicode="&#x15d;" horiz-adv-x="1024" 
d="M149 341q80 11 89 14q12 0 15 -18q6 -40 19 -70q58 -133 244 -133q92 0 155 33q79 42 79 126q0 57 -48 88q-31 20 -222 70q-92 24 -236 76q-161 77 -161 253q0 149 125 240q105 76 276 76h13q254 0 354 -138q46 -63 64 -168q4 -24 -112 -26q-26 -5 -49 -9q-33 -5 -35 8
q-24 165 -222 165q-220 0 -220 -127q0 -69 85 -102q23 -9 158 -45q76 -20 267 -84q168 -64 168 -258q0 -100 -59 -182q-56 -78 -151 -120q-100 -44 -228 -44q-402 0 -464 349q-3 15 40 20q19 2 56 6zM75 309q62 -323 442 -323q260 0 367 162q51 77 51 164q0 137 -98 206
q-59 41 -221 88q-4 1 -102 28q-134 37 -160 47q-97 38 -97 120q0 147 240 147q209 0 240 -173l156 22q-33 183 -193 244q-92 35 -203 35h-13q-260 0 -350 -169q-31 -58 -31 -127q0 -163 150 -234q69 -33 232 -76q43 -11 128.5 -34.5t117.5 -52.5q39 -36 39 -90
q0 -93 -85 -140q-69 -39 -169 -39q-247 0 -283 220zM644 1184q-6 1 -8 5l-102 157l-105 -158q-4 -3 -8 -4h-206q-20 0 -8 16l199 258q20 26 25 26h192q5 -1 8 -4l191 -238q37 -46 37 -51q0 -7 -11 -7h-204zM827 1204l-209 260h-182l-201 -260h181l110 166q4 5 7 6
q6 0 57 -80l59 -92h178z" />
    <glyph glyph-name="Scedilla" unicode="&#x15e;" horiz-adv-x="1366" 
d="M1200 188q-144 -223 -483 -223q-397 0 -553 237q-78 119 -82 269q0 9 43 13l149 13q10 1 11 -9q25 -209 202 -286q99 -43 221 -43q135 0 232 51q122 64 122 188q0 134 -166 198q-63 24 -259 71q-183 44 -266 83q-233 110 -233 337q0 124 69 221q67 93 184 142
q123 51 273 51q348 0 487 -212q69 -106 74 -236q0 -9 -56 -13l-139 -11q-10 -1 -11 9q-29 272 -347 272q-231 0 -303 -122q-24 -41 -24 -88q0 -111 136 -169q43 -19 231 -62q196 -45 272 -76q285 -115 285 -379q0 -119 -69 -226zM1184 199q65 100 65 215q0 237 -244 349
q-82 38 -297 87q-102 23 -164 42q-121 36 -159 71q-60 55 -60 137q0 125 118 184q91 46 229 46q330 0 366 -280l167 12q-10 169 -120 276q-103 101 -275 131q-69 12 -146 12q-319 0 -445 -192q-61 -93 -61 -202q0 -203 203 -310q91 -48 268 -89q206 -48 275 -74
q178 -68 178 -216q0 -158 -174 -225q-88 -34 -200 -34q-270 0 -381 162q-46 67 -61 175l-164 -14q7 -159 96.5 -274.5t241.5 -164.5q118 -38 277 -38q328 0 467 214zM590 -421q-82 0 -146 12q-9 2 -8 11l11 117q1 10 11 9q58 -4 93 -4q151 0 151 65q0 55 -147 57
q-10 0 -10 11q5 16 28 96l24 83q3 7 10 7h134q10 0 10 -10q-4 -16 -30 -99q168 -24 168 -155q0 -104 -104 -158q-81 -42 -195 -42zM869 -221q0 118 -162 137q-9 1 -9 13q4 13 29 94h-113l-46 -157q154 -4 154 -77q0 -85 -171 -85q17 0 -51 2l-34 1l-9 -98q58 -10 133 -10
q105 0 181 37q98 48 98 143z" />
    <glyph glyph-name="scedilla" unicode="&#x15f;" horiz-adv-x="1024" 
d="M149 341q80 11 89 14q12 0 15 -18q6 -40 19 -70q58 -133 244 -133q92 0 155 33q79 42 79 126q0 57 -48 88q-31 20 -222 70q-92 24 -236 76q-161 77 -161 253q0 149 125 240q105 76 276 76h13q254 0 354 -138q46 -63 64 -168q4 -24 -112 -26q-26 -5 -49 -9q-33 -5 -35 8
q-24 165 -222 165q-220 0 -220 -127q0 -69 85 -102q23 -9 158 -45q76 -20 267 -84q168 -64 168 -258q0 -100 -59 -182q-56 -78 -151 -120q-100 -44 -228 -44q-402 0 -464 349q-3 15 40 20q19 2 56 6zM75 309q62 -323 442 -323q260 0 367 162q51 77 51 164q0 137 -98 206
q-59 41 -221 88q-4 1 -102 28q-134 37 -160 47q-97 38 -97 120q0 147 240 147q209 0 240 -173l156 22q-33 183 -193 244q-92 35 -203 35h-13q-260 0 -350 -169q-31 -58 -31 -127q0 -163 150 -234q69 -33 232 -76q43 -11 128.5 -34.5t117.5 -52.5q39 -36 39 -90
q0 -93 -85 -140q-69 -39 -169 -39q-247 0 -283 220zM410 -411q-82 0 -146 12q-9 2 -8 11l11 117q1 10 11 9q58 -4 93 -4q151 0 151 65q0 55 -147 57q-10 0 -10 11q5 16 28 96l24 83q3 7 10 7h134q10 0 10 -10q-4 -16 -30 -99q168 -24 168 -155q0 -104 -104 -158
q-81 -42 -195 -42zM689 -211q0 118 -162 137q-9 1 -9 13q4 13 29 94h-113l-46 -157q154 -4 154 -77q0 -85 -171 -85q17 0 -51 2l-34 1l-9 -98q58 -10 133 -10q105 0 181 37q98 48 98 143z" />
    <glyph glyph-name="Scaron" unicode="&#x160;" horiz-adv-x="1366" 
d="M1200 188q-144 -223 -483 -223q-397 0 -553 237q-78 119 -82 269q0 9 43 13l149 13q10 1 11 -9q25 -209 202 -286q99 -43 221 -43q135 0 232 51q122 64 122 188q0 134 -166 198q-63 24 -259 71q-183 44 -266 83q-233 110 -233 337q0 124 69 221q67 93 184 142
q123 51 273 51q348 0 487 -212q69 -106 74 -236q0 -9 -56 -13l-139 -11q-10 -1 -11 9q-29 272 -347 272q-231 0 -303 -122q-24 -41 -24 -88q0 -111 136 -169q43 -19 231 -62q196 -45 272 -76q285 -115 285 -379q0 -119 -69 -226zM1184 199q65 100 65 215q0 237 -244 349
q-82 38 -297 87q-102 23 -164 42q-121 36 -159 71q-60 55 -60 137q0 125 118 184q91 46 229 46q330 0 366 -280l167 12q-10 169 -120 276q-103 101 -275 131q-69 12 -146 12q-319 0 -445 -192q-61 -93 -61 -202q0 -203 203 -310q91 -48 268 -89q206 -48 275 -74
q178 -68 178 -216q0 -158 -174 -225q-88 -34 -200 -34q-270 0 -381 162q-46 67 -61 175l-164 -14q7 -159 96.5 -274.5t241.5 -164.5q118 -38 277 -38q328 0 467 214zM752 1544q-4 -3 -8 -4h-192q-5 1 -8 4l-216 280q-12 16 8 16h206q6 -1 8 -4l105 -158l36 56q68 106 74 106
h204q21 0 8 -16zM948 1820h-178l-107 -165q-3 -6 -7 -7q-5 0 -58 80l-61 92h-181l201 -260h182z" />
    <glyph glyph-name="scaron" unicode="&#x161;" horiz-adv-x="1024" 
d="M149 341q80 11 89 14q12 0 15 -18q6 -40 19 -70q58 -133 244 -133q92 0 155 33q79 42 79 126q0 57 -48 88q-31 20 -222 70q-92 24 -236 76q-161 77 -161 253q0 149 125 240q105 76 276 76h13q254 0 354 -138q46 -63 64 -168q4 -24 -112 -26q-26 -5 -49 -9q-33 -5 -35 8
q-24 165 -222 165q-220 0 -220 -127q0 -69 85 -102q23 -9 158 -45q76 -20 267 -84q168 -64 168 -258q0 -100 -59 -182q-56 -78 -151 -120q-100 -44 -228 -44q-402 0 -464 349q-3 15 40 20q19 2 56 6zM75 309q62 -323 442 -323q260 0 367 162q51 77 51 164q0 137 -98 206
q-59 41 -221 88q-4 1 -102 28q-134 37 -160 47q-97 38 -97 120q0 147 240 147q209 0 240 -173l156 22q-33 183 -193 244q-92 35 -203 35h-13q-260 0 -350 -169q-31 -58 -31 -127q0 -163 150 -234q69 -33 232 -76q43 -11 128.5 -34.5t117.5 -52.5q39 -36 39 -90
q0 -93 -85 -140q-69 -39 -169 -39q-247 0 -283 220zM604 1188q-4 -3 -8 -4h-192q-5 1 -8 4l-216 280q-12 16 8 16h206q6 -1 8 -4l105 -158l36 56q68 106 74 106h204q21 0 8 -16zM800 1464h-178l-107 -165q-3 -6 -7 -7q-5 0 -58 80l-61 92h-181l201 -260h182z" />
    <glyph glyph-name="Tcedilla" unicode="&#x162;" horiz-adv-x="1251" 
d="M735 1283v-1283q0 -10 -10 -10h-194q-10 0 -10 10v1283h-473q-10 0 -10 10v173q0 10 10 10h1162q10 0 10 -10v-173q0 -10 -10 -10h-475zM725 1303h475v153h-1142v-153h473q10 0 10 -10v-1283h174v1283q0 10 10 10zM565 -588q-8 -4 -12 4q-52 77 -52 82q0 6 6 8
q98 44 107 158h-91q-10 0 -10 10v205q0 10 10 10h205q10 0 10 -10v-205q0 -186 -173 -262zM565 -566q153 71 153 240v195h-185v-185h92q11 0 11 -19q0 -115 -110 -172z" />
    <glyph glyph-name="tcedilla" unicode="&#x163;" horiz-adv-x="569" 
d="M418 -24q-186 0 -237 119q-23 53 -23 216v601h-122q-10 0 -10 10v140q0 10 10 10h122v253q2 7 5 9l179 108q15 9 15 -9v-361h171q10 0 10 -10v-140q0 -10 -10 -10h-171v-611q0 -74 9 -95q18 -42 83 -42q27 0 78 7q9 1 11 -8l26 -159q2 -10 -8 -12q-76 -16 -138 -16z
M418 -4q55 0 125 14l-23 140q-43 -6 -71 -6q-73 0 -96 45q-16 31 -16 112v621q0 10 10 10h171v120h-171q-10 0 -10 10v353l-159 -96v-257q0 -10 -10 -10h-122v-120h122q10 0 10 -10v-611q0 -161 21 -209q47 -106 219 -106zM313 -541q-8 -4 -12 4q-44 68 -46 75q0 6 6 8
q85 38 95 139h-81q-10 0 -10 10v184q0 10 10 10h185q10 0 10 -10v-184q0 -167 -157 -236zM450 -305v174h-165v-164h82q12 0 12 -23q0 -43 -30 -85.5t-69 -63.5l33 -52q137 64 137 214z" />
    <glyph glyph-name="Tcaron" unicode="&#x164;" horiz-adv-x="1251" 
d="M735 1283v-1283q0 -10 -10 -10h-194q-10 0 -10 10v1283h-473q-10 0 -10 10v173q0 10 10 10h1162q10 0 10 -10v-173q0 -10 -10 -10h-475zM58 1303h473q10 0 10 -10v-1283h174v1283q0 10 10 10h475v153h-1142v-153zM727 1544q-4 -3 -8 -4h-192q-5 1 -8 4l-216 280
q-12 16 8 16h206q6 -1 8 -4l105 -158l36 56q68 106 74 106h204q21 0 8 -16zM923 1820h-178l-107 -165q-3 -6 -7 -7q-5 0 -58 80l-61 92h-181l201 -260h182z" />
    <glyph glyph-name="tcaron" unicode="&#x165;" horiz-adv-x="768" 
d="M619 1012q-8 -3 -12 3q-46 71 -47 75q0 6 6 8q90 41 96 173h-81q-10 0 -10 10v185q0 10 10 10h184q10 0 10 -10v-185q0 -201 -156 -269zM755 1281v175h-164v-165h81q12 0 12 -23q0 -131 -99 -183l34 -51q136 63 136 247zM417 -24q-186 0 -237 119q-23 53 -23 216v601
h-122q-10 0 -10 10v140q0 10 10 10h122v253q2 7 5 9l179 108q15 9 15 -9v-361h171q10 0 10 -10v-140q0 -10 -10 -10h-171v-611q0 -74 9 -95q18 -42 83 -42q27 0 78 7q9 1 11 -8l26 -159q2 -10 -8 -12q-76 -16 -138 -16zM417 -4q55 0 125 14l-23 140q-43 -6 -71 -6
q-73 0 -96 45q-16 31 -16 112v621q0 10 10 10h171v120h-171q-10 0 -10 10v353l-159 -96v-257q0 -10 -10 -10h-122v-120h122q10 0 10 -10v-611q0 -161 21 -209q47 -106 219 -106z" />
    <glyph glyph-name="Tbar" unicode="&#x166;" horiz-adv-x="1251" 
d="M201 619q-10 0 -10 10v132q0 10 10 10h320v512h-473q-10 0 -10 10v173q0 10 10 10h1162q10 0 10 -10v-173q0 -10 -10 -10h-475v-512h318q10 0 10 -10v-132q0 -10 -10 -10h-318v-619q0 -10 -10 -10h-194q-10 0 -10 10v619h-320zM211 639h320q10 0 10 -10v-619h174v619
q0 10 10 10h318v112h-318q-10 0 -10 10v532q0 10 10 10h475v153h-1142v-153h473q10 0 10 -10v-532q0 -10 -10 -10h-320v-112z" />
    </font>
</defs>
</svg>
